<svg xmlns="http://www.w3.org/2000/svg" viewBox="0 0 69.877 83.149"><defs><style>.a{fill:#0cf;}.b{fill:#7aeaff;}.c{fill:#fff;}</style></defs><g transform="translate(-32.973 0)"><path class="a" d="M137.217,136.4H95.037a1.7,1.7,0,0,0-1.7,1.7v35.372a1.7,1.7,0,0,0,1.7,1.7h7.52v11.92a5.008,5.008,0,0,0,5.008,5.008h0a5.008,5.008,0,0,0,5.008-5.008v-11.92h7v11.92a5.008,5.008,0,0,0,5.008,5.008h0a5.008,5.008,0,0,0,5.008-5.008v-11.92h7.624a1.7,1.7,0,0,0,1.7-1.7V138.094A1.7,1.7,0,0,0,137.217,136.4Z" transform="translate(-48.216 -108.944)"/><path class="b" d="M37.981,136.354h0a5.008,5.008,0,0,0-5.008,5.008V161.7a5.008,5.008,0,0,0,5.008,5.008h0a5.008,5.008,0,0,0,5.008-5.008V141.362A5.008,5.008,0,0,0,37.981,136.354Z" transform="translate(0 -108.911)"/><path class="b" d="M335.406,136.354h0a5.008,5.008,0,0,0-5.008,5.008V161.7a5.008,5.008,0,0,0,5.008,5.008h0a5.008,5.008,0,0,0,5.008-5.008V141.362A5.008,5.008,0,0,0,335.406,136.354Z" transform="translate(-237.565 -108.911)"/><path class="c" d="M96.726,24.97h41.4a1.7,1.7,0,0,0,1.664-2.052,22.883,22.883,0,0,0-11.163-15.2l3.539-6.385A.9.9,0,0,0,130.6.461l-3.566,6.434a22.9,22.9,0,0,0-19.214,0L104.252.461a.895.895,0,1,0-1.566.868l3.539,6.385a22.884,22.884,0,0,0-11.163,15.2A1.7,1.7,0,0,0,96.726,24.97Zm33.052-9.516a1.925,1.925,0,1,1-1.925-1.925A1.925,1.925,0,0,1,129.778,15.454ZM107,13.529a1.925,1.925,0,1,1-1.925,1.925A1.925,1.925,0,0,1,107,13.529Z" transform="translate(-49.563 0)"/></g></svg>