<svg xmlns="http://www.w3.org/2000/svg" viewBox="0 0 86.434 87.389"><defs><style>.a{fill:#0cf;}.b{fill:#0084f3;}</style></defs><g transform="translate(-5.591 -6.397)"><path class="a" d="M48.294,6.4a59.529,59.529,0,0,0-9.962.85c-8.822,1.559-10.424,4.821-10.424,10.837v7.946H48.755V28.68H20.083c-6.059,0-11.365,3.642-13.024,10.57-1.914,7.941-2,12.9,0,21.188,1.482,6.172,5.021,10.57,11.08,10.57h7.168V61.483A13.249,13.249,0,0,1,38.331,48.532H59.155A10.5,10.5,0,0,0,69.579,37.937V18.085c0-5.65-4.766-9.894-10.424-10.837A65.026,65.026,0,0,0,48.294,6.4ZM37.019,12.788a3.973,3.973,0,1,1-3.912,3.985A3.956,3.956,0,0,1,37.019,12.788Z"/><path class="b" d="M78.564,35.054v9.258A13.372,13.372,0,0,1,65.539,57.53H44.716A10.635,10.635,0,0,0,34.291,68.125V87.977c0,5.65,4.913,8.973,10.424,10.594a34.881,34.881,0,0,0,20.824,0c5.249-1.52,10.424-4.578,10.424-10.594V80.031H55.14V77.382H86.388c6.059,0,8.317-4.226,10.424-10.57,2.177-6.531,2.084-12.811,0-21.188-1.5-6.032-4.357-10.57-10.424-10.57ZM66.852,85.328a3.973,3.973,0,1,1-3.912,3.961A3.935,3.935,0,0,1,66.852,85.328Z" transform="translate(-6.384 -6.375)"/></g></svg>