<?xml version="1.0" encoding="utf-8"?>
<!-- Generator: Adobe Illustrator 22.1.0, SVG Export Plug-In . SVG Version: 6.00 Build 0)  -->
<svg version="1.1" id="Layer_1" xmlns="http://www.w3.org/2000/svg" xmlns:xlink="http://www.w3.org/1999/xlink" x="0px" y="0px"
	 viewBox="0 0 413.5 485.1" style="enable-background:new 0 0 413.5 485.1;" xml:space="preserve">
<style type="text/css">
	.st0{fill:#0084F3;}
	.st1{fill:#00CCFF;}
	.st2{fill:#FFFFFF;}
	.st3{fill:#7AEAFF;}
	.st4{fill:#FAFCFE;}
	.st5{fill:#D54137;}
	.st6{fill:#417DF8;}
	.st7{fill:#FEFEFE;}
	.st8{fill:#F1F1F1;}
	.st9{enable-background:new    ;}
	.st10{fill:#333333;}
</style>
<g id="Group_71" transform="translate(-754 -212)">
	<g id="DSC_Logo-01" transform="translate(704 164.14)">
		<path id="Path_1" class="st0" d="M255.9,460C142.2,459.9,50,367.6,50,253.9S142.3,47.8,256.1,47.9c114.1,0.1,206.1,92.4,206,206.6
			C462,367.9,369.6,460,255.9,460z M456.6,253.5c0.1-11.8-1-23.7-3.1-35.3c-6.5-36-21.6-68-45.7-95.4c-36.4-41.5-82.1-64.5-137.3-69
			c-21.8-1.8-43.7,0.2-64.8,5.9c-48.5,12.9-86.9,40.2-115.4,81.4c-16,23.2-26.8,49.5-31.6,77.2c-4.7,26.3-4.1,53.2,1.7,79.3
			c10.7,46.6,34.8,84.7,72.3,114.3c31.2,24.6,66.7,38.4,106.3,41.8c20.9,2,42.1,0.5,62.5-4.4c59.1-14.5,103.2-48.7,132.3-102.1
			c10.9-20.2,18-42.3,21.1-65.1C456.1,272.7,456.7,263.1,456.6,253.5L456.6,253.5z"/>
		<path id="Path_2" class="st1" d="M55.5,253.8c-0.1-11.9,1-23.8,3.1-35.5c4.8-27.7,15.6-54.1,31.6-77.2
			c28.5-41.2,67-68.4,115.5-81.4c21.1-5.6,43.1-7.6,64.8-5.9c55.1,4.4,100.8,27.4,137.3,68.9c24.1,27.5,39.1,59.5,45.7,95.4
			c2.2,11.6,3.2,23.5,3.1,35.3h-78.2c-0.5,0-1,0.1-1.5,0.2c-0.1-6.6-0.6-13.2-1.7-19.7c-8.7-52.2-50.5-92.7-102.9-99.7
			c-15.5-2.2-31.3-1.3-46.4,2.7c-36.9,10.1-63.5,32.6-79.8,67.1c-7.2,15.4-10.9,32.2-10.6,49.2c-0.6,0-1.3,0.1-1.9,0.1l-75.9,0
			C56.9,253.4,56.1,253.5,55.5,253.8z M398.2,204.5c0.1,0.1,0.2,0.2,0.2,0.2c-2,5.6,0,10,5.4,10.8c4.2,0.7,8.4-0.8,11.2-3.9
			c1.3-1.3,1.9-3.1,1.8-4.9c-0.1-3.2-1.7-5.3-4.5-6.8l5.4-1.9c3.3-1.1,3.3-1.1,2.1-4.5c-0.4-1.1-0.7-1.3-1.8-0.9
			c-7.3,2.6-14.7,5.1-22,7.6c-0.4,0.1-1,0.4-1,0.5c0.3,1.3,0.7,2.6,1.2,3.8C396.7,205.6,397.5,204.4,398.2,204.5L398.2,204.5z
			 M100.5,212c-6.9,0-10.4,2.7-11.8,8.6c-0.7,3.2-1.3,6.4-1.9,9.5c-0.2,0.9,0,1.2,1,1.4c7.6,1.5,15.2,2.9,22.8,4.5
			c1.2,0.2,1.7-0.1,1.9-1.3c0.5-2.9,1.2-5.9,1.7-8.9c0.8-4.5-0.2-8.4-4.3-11.1C107.1,213.1,103.8,212.1,100.5,212L100.5,212z
			 M238.8,82.5c-2.1,0-4.3,0.4-6.3,1.3c-3.4,1.6-5.1,4.9-4.1,8.2s3.6,4.8,6.8,5.4c2,0.4,4.1,0.6,6.2,0.9c1.5,0.3,2.9,0.8,3,2.6
			c0.1,1.6-1,3.1-2.6,3.5c-3.2,1.1-6.5,0.7-7.9-2.8c-0.2-0.5-0.3-1-1.1-0.8c-1.3,0.5-2.9,0.3-4,1.2c-0.1,0.1,0,0.6,0.1,0.8
			c1.1,3.3,3.1,5.6,6.5,6.3c3.3,0.7,6.7,0.2,9.7-1.2c3.1-1.3,5-4.5,4.6-7.9c-0.3-3.3-2.2-5.6-5.7-6.6c-1-0.3-2-0.4-3.1-0.6
			c-2-0.2-4-0.5-6-1.1c-1.6-0.5-2.2-1.9-1.4-3.1c1-1.7,6.7-2.9,8-0.3c0.9,1.7,1.9,1.8,3.4,1.3c0.5-0.2,1-0.3,1.5-0.3
			c1.2,0,1.1-0.6,0.8-1.5C246.3,84.5,243.2,82.5,238.8,82.5L238.8,82.5z M381.7,139.2c-5.8,0-13,5.8-14.3,11.5
			c-1.8,8.2,5.6,15.8,13.4,13.9c2.8-0.7,2.8-0.7,1.7-3.4c-0.1-0.3-0.2-0.5-0.3-0.8c-0.4-1.3-0.9-1.8-2.4-1.1c-2.1,1-4.6,0.6-6.1-1.2
			c-1.8-1.6-2.2-4.2-1.2-6.4c1.7-3.5,4.8-6.2,8.6-7.4c2.1-0.6,4.3,0,5.7,1.7c1.6,1.4,2.2,3.6,1.4,5.6c-0.7,1.6-0.4,2.3,1,3
			c0.5,0.2,0.9,0.5,1.3,0.9c1,0.9,1.5,0.8,2.1-0.5C395.9,148.1,389.8,139.2,381.7,139.2L381.7,139.2z M301.5,111.5
			c-1.3,2.4,0,2.8,1.6,3c0.2,0,0.5,0.1,0.7,0.2c1.2,0.6,1.7,0.1,2-1.1c1.7-6.7,3.5-13.4,5.4-20.1c0.9-3.5,0.9-3.4-2.5-4.4
			c-1.2-0.3-1.5,0-1.8,1c-0.6,2.4-1.3,4.7-1.9,7.1l-0.4,0.2c-0.1-0.2-0.2-0.4-0.3-0.6c-3.7-4.7-10-4.1-12.9,1.2
			c-1.1,2.1-1.7,4.3-1.8,6.7c-0.3,3.9,2.3,7.5,6.1,8.4C297.6,113.4,299.3,112.7,301.5,111.5L301.5,111.5z M173.6,132.3
			c0.5,0,0.9,0,1.4,0c3.8,0.5,7.4-2.2,7.8-6.1c0.1-0.5,0.1-1,0-1.5c-0.2-4.3-2.7-8.2-6.5-10.3c-2.8-1.6-6.3-1.1-8.5,1.2
			c-1.2,1.3-2,3-2.3,4.7c-0.8-2.5-2-1.9-3.3-0.9c-0.1,0.1-0.2,0.1-0.3,0.2c-1.3,0.6-1.6,1.2-0.7,2.6c3.7,5.7,7.3,11.6,10.9,17.4
			c2,3.2,1.9,3.1,5.1,1.2c1-0.6,0.9-1,0.4-1.9C176.3,136.7,175,134.6,173.6,132.3z M164,138.2c-0.2-5.5-4.6-9.8-10-10
			c-5.1,0-9.9,4.8-9.8,9.8c0.1,5.1,4.9,10.2,9.8,10.2C159.4,148,163.8,143.6,164,138.2L164,138.2z M113.4,209.5
			c2.9,0,5.6-1.7,6.9-4.3c1.6-3,2.3-6.1,0.3-9.2c-1.4-2.2-1.6-2.2-2.9,0c-0.3,0.5-0.6,1-0.9,1.5c-0.3,0.3-0.4,0.9,0,1.2
			c0,0,0.1,0.1,0.1,0.1c1.2,1.1,1.3,3,0.2,4.2c-1,1.3-2.7,1.9-4.3,1.5c-0.8-0.2-1-0.5-0.6-1.3c1-2.4,1.9-4.7,2.9-7.1
			c1.6-4,1.6-4-2.8-4.8c-4.7-0.9-9.2,2.2-10.1,6.9c-0.2,1.1-0.2,2.3,0,3.4C102.9,205.9,108,209.5,113.4,209.5L113.4,209.5z
			 M182.8,112.1c0.1,3.3,1.4,6.4,3.7,8.8c2.1,2.3,5.4,3,8.3,1.9c3.2-1.1,5.8-2.9,6.5-6.6c0.4-2.4,0.4-2.5-2-1.8
			c-0.6,0.1-1.1,0.3-1.7,0.4c-0.6,0-1,0.5-1,1c0,0.1,0,0.1,0,0.2c0.1,1.5-1,2.9-2.5,3.1c-1.6,0.4-3.3-0.3-4.3-1.7
			c-0.6-0.8-0.5-1.3,0.5-1.7c2.1-0.9,4.2-1.9,6.4-2.8c4.4-1.9,4.5-2.2,1.3-6.1c-2.2-2.9-6-3.9-9.4-2.6
			C185.1,105.2,182.8,108.4,182.8,112.1z M132.8,172.4c5.2,0,9.9-5.9,8.6-10.9c-0.2-1-0.5-2.2-1.3-2.5s-1.3,1-2.1,1.6
			c-0.3,0.3-0.6,0.6-0.9,0.9c-0.4,0.4-0.6,0.8-0.3,1.3c0.9,1.3,0.6,3.1-0.6,4.1c-1.2,1.1-2.9,1.4-4.4,0.7c-1-0.4-1.3-0.8-0.5-1.8
			c1.5-1.9,2.8-3.8,4.2-5.8c2.7-3.7,2.6-4-1.8-5.7c-0.3-0.1-0.7-0.2-1-0.3c-4.6-1.2-9.3,1.5-10.5,6.1c-0.3,1.3-0.4,2.6-0.1,3.9
			C123.2,168.3,128.2,172.3,132.8,172.4L132.8,172.4z M329.4,110.4c0.1-4.7-3.7-8.7-8.4-8.8c-2.5-0.1-4.9,1-6.6,2.8
			c-1.5,1.7-2.6,3.8-3,6c-0.8,3.5-0.1,6.6,3,8.8s6.3,3.2,9.9,1.2c2.3-1.3,2.3-1.5,0.1-2.9c-0.5-0.3-1-0.6-1.4-1
			c-0.4-0.4-1-0.4-1.3,0c0,0,0,0-0.1,0.1c-1.1,1.1-2.9,1.2-4.1,0.2c-1.3-1-1.9-2.7-1.5-4.3c0.2-0.9,0.5-1.1,1.4-0.7
			c2.1,1,4.3,1.9,6.5,2.9c4.3,1.9,4.7,1.7,5.4-3.1C329.4,111.1,329.4,110.7,329.4,110.4L329.4,110.4z M341,114.1
			c1.7-1.8,0.5-2.6-0.9-3.3c-0.2-0.1-0.3-0.2-0.4-0.3c-1.1-1-1.7-0.6-2.4,0.6c-2.4,3.9-4.8,7.7-7.2,11.5c-1.9,3.1-1.9,3,1.2,5
			c0.9,0.6,1.3,0.5,1.9-0.4c1.4-2.4,2.9-4.7,4.4-7.1c0.6-1,1.3-1.8,2.1-2.5c1.4-1.1,3.3-1.1,4.7,0c1.2,1,1.5,2.4,0.6,4.1
			c-1.8,3.2-3.8,6.2-5.7,9.4c-0.3,0.5-0.9,1.1,0,1.6c1.2,0.6,2.2,1.9,3.7,1.8c0.1,0,0.1-0.2,0.2-0.3c2.4-3.9,5.1-7.7,7.1-11.8
			c1-2,0.6-4.4-1-5.9C347.1,114.1,344.3,113.4,341,114.1L341,114.1z M279.6,106.9c-0.2,2.6-0.2,2.6,2.2,2.8c0.3,0,0.6,0.1,0.9,0.1
			c1.1,0.3,1.4-0.1,1.5-1.2c0.6-4.8,1.2-9.5,1.7-14.3c0.4-3.3,0.4-3.2-3-3.5c-1.4-0.1-1.8,0.3-1.9,1.6c-0.3,3.4-0.7,6.8-1.4,10.1
			c-0.4,2-2.4,3.3-4.4,2.9c0,0,0,0,0,0c-1.8-0.3-2.6-1.7-2.4-4c0.3-2.7,0.7-5.4,0.9-8.1c0.4-3.6,0.3-3.5-3.3-4c-1-0.1-1.2,0.1-1.3,1
			c-0.5,4.1-1,8.2-1.4,12.4c-0.4,2.6,1.1,5.1,3.6,5.9C274.3,109.7,277,109,279.6,106.9z M393,190.5c-2,1.5-2,1.5-0.7,3.8
			c0,0,0.1,0.1,0.1,0.2c0.4,1.2,1,1.4,2.2,0.7c4-2.2,8.1-4.3,12.1-6.5c3.2-1.7,3.2-1.7,1.4-4.9c-0.5-1-1-1-1.9-0.5
			c-2.9,1.6-5.8,3.1-8.8,4.6c-2.4,1.2-4.5,0.5-5.5-1.5c-1-1.9-0.4-3.1,2.2-4.6c3-1.7,6-3.2,9-4.9c0.5-0.2,1.1-0.5,0.6-1.1
			c-0.9-1.1-0.8-2.9-2.4-3.5c-0.1,0-0.2,0.1-0.3,0.1c-3.9,2.1-7.9,3.9-11.6,6.3c-2.7,1.8-3.3,4.5-2,7.5
			C388.6,188.4,390.6,190,393,190.5z M401.8,226.5c0,2.4,0.6,4.7,1.8,6.8c1.3,2.2,3.8,3.4,6.3,3c2.4-0.5,3.7-2.1,4.1-5.1
			c0.3-2.4,0.4-4.7,0.6-7.1c0.1-0.6,0.2-1.2,0.9-1.3c0.7-0.1,1.3,0.3,1.5,0.9c0.7,1.9,1.6,3.9-0.3,5.6c-0.2,0.2-0.4,0.4-0.3,0.8
			c0.5,1.3,0.6,3.4,1.6,3.6c1.2,0.3,2.2-1.3,2.9-2.6c0.5-0.9,0.7-2,0.7-3c0-1.9-0.4-3.8-1-5.6c-1.1-3.1-3.3-4.5-6.2-4.2
			c-2.6,0.3-4.1,2.1-4.6,5.5c-0.3,2-0.2,4-0.4,6.1c-0.1,0.7-0.2,1.4-1,1.6c-0.6,0.2-1.2,0-1.6-0.4c-1.3-1.2-2-5.4,0-6.6
			c0.8-0.4,0.8-1,0.5-1.8c-0.3-0.8-0.6-1.6-0.9-2.5c-0.3-1.2-0.9-1-1.6-0.4C402.8,221.3,401.6,223.9,401.8,226.5L401.8,226.5z
			 M123.3,182.5c-3.6-0.5-6.8-1-10.1-1.4c-3.1-0.4-3.1-0.3-4.5,2.4c-1,1.9-1,1.9,1.3,2.1c4.9,0.5,9.8,1,14.7,1.5
			c4.1,0.5,2.9,0.7,4.7-2.4c0.5-0.7,0.4-1.7-0.3-2.2c-3-3.5-6-7.1-9-10.6c-1-1.2-2.1-2.4-3.2-3.7c-0.5,1-1,2-1.6,2.9
			c-0.8,1.1-0.6,1.9,0.3,2.8C118.1,176.6,120.6,179.4,123.3,182.5z M260.3,86L260.3,86l0-2.4c0-0.4-0.1-0.8-0.5-0.6
			c-1.5,0.7-2.9,1.5-4.2,2.4c-0.8,0.5-0.2,1.6-0.3,2.5c-0.1,0.5,0.3,1.4-0.7,1.3c-2.1-0.3-1.7,1.1-1.8,2.2s-0.1,2,1.5,1.9
			c1-0.1,0.9,0.7,0.8,1.3c-0.1,2.9-0.2,5.8-0.2,8.7c0,4.1,2.1,5.8,6.1,5.3c2.7-0.4,2.9-0.6,2.4-3.3c-0.1-0.9-0.5-1.2-1.4-0.9
			c-1.6,0.5-2.1-0.3-2.1-1.8c0-2.4,0.1-4.9,0-7.3c-0.1-1.5,0.3-2.2,1.9-1.9c1.3,0.3,1.8-0.3,1.6-1.6c-0.2-1,0.7-2.7-1.5-2.4
			c-1.7,0.2-2.2-0.5-1.9-2C260.3,86.8,260.3,86.4,260.3,86z M366.3,120.9c-1-0.2-1.7-0.3-2.4-0.4c-2.1-0.5-4-0.6-5.1,1.8
			c-0.3,0.8-0.9,0.5-1.4,0.1c-0.7-0.8-1.3-0.6-1.8,0.3c-0.3,0.5-0.7,0.9-1.1,1.4c-0.5,0.6-0.5,1,0.2,1.4c1.2,0.6,0.7,1.3,0.1,2
			c-1.8,2.2-3.5,4.5-5.2,6.7c-2.4,3.2-2,5.5,1.4,7.7c2.4,1.6,2.6,1.5,4.1-1c0.4-0.7,0.5-1.1-0.4-1.5c-1.7-0.8-1.8-1.3-0.6-2.9
			c1.5-2,3.1-3.9,4.6-5.9c0.7-1,1.3-1.2,2.2-0.3c0.4,0.4,1,1.3,1.5,0.9c0.9-0.7,1.6-1.6,2-2.6c0.4-0.8-0.6-1.1-1.2-1.4
			c-1.1-0.7-1-1.3-0.2-2.2C364.3,123.7,365.2,122.3,366.3,120.9z M147.2,158.8c0.2-0.2,0.5-0.4,0.6-0.6c0.4-0.4,0.8-0.9,1.1-1.3
			c1.6-1.8,1.6-1.8-0.3-3.3c-5-4.3-10-8.7-15-13c-2.9-2.5-2.9-2.5-5.3,0.4c-0.6,0.7-0.7,1,0.1,1.7c6,5.1,11.9,10.3,17.9,15.5
			C146.6,158.3,146.9,158.5,147.2,158.8z M382.6,176.4c0.4-0.2,0.8-0.5,1.3-0.8c5.8-3.8,11.6-7.6,17.5-11.4c2.8-1.8,2.7-1.8,0.9-4.6
			c-0.7-1.1-1.1-1.2-2.2-0.5c-5.7,3.8-11.5,7.6-17.3,11.3c-3.5,2.2-3.5,2.4-0.8,5.5C382.1,176.2,382.2,176.4,382.6,176.4
			L382.6,176.4z M207,99.7c-0.3-2.1-1.4-2.2-3-1.5c-0.4,0.2-0.8,0.3-1.1,0.4c-0.7,0.2-1.1,0.5-0.8,1.4c1.8,5.3,3.5,10.7,5.2,16
			c0.2,0.7,0.6,0.8,1.3,0.6c3.9-1,3.9-1,2.6-4.8c-0.4-1.1-0.8-2.2-1.1-3.3c-0.5-1.5-0.9-3.1-1.1-4.7c-0.3-2.2,0.8-3.7,2.7-3.6
			c1.6,0.1,1.9-0.5,1.7-1.8c-0.1-0.4-0.1-0.8,0-1.2c0.3-1.4-0.5-1.7-1.7-1.6C209.2,95.7,207.7,97.1,207,99.7z"/>
		<path id="Path_3" class="st2" d="M376.8,253.7c0.5-0.1,1-0.2,1.5-0.2h78.2c0.1,9.6-0.5,19.1-1.9,28.6
			c-3.1,22.8-10.2,44.8-21.1,65.1c-29.1,53.4-73.2,87.6-132.3,102.1c-20.5,4.9-41.6,6.4-62.5,4.4c-39.5-3.5-75.1-17.3-106.3-41.8
			C95,382.4,70.9,344.3,60.2,297.6c-3.3-14.4-4.9-29.1-4.8-43.8c0.7-0.3,1.5-0.4,2.2-0.3h75.8c0.6,0,1.3-0.1,1.9-0.1
			c0.3,3.2,0.1,6.5,0.3,9.7c0.4,5.2,1.2,10.4,2.2,15.6c2.5,12.2,6.9,23.9,13.1,34.7c5.9,10.4,13.3,19.9,22.1,28.1
			c4.6,4.3,9.6,8.4,14.8,12c7.9,5.4,16.5,9.9,25.5,13.3c12.7,4.8,26,7.4,39.5,7.9c3.1,0.1,6.1,0,9.2-0.2c4.6-0.3,9.1-0.7,13.6-1.4
			c11.7-1.8,23-5.4,33.5-10.7c8.8-4.3,17.1-9.8,24.6-16.1c7-5.9,13.3-12.6,18.8-19.9c5.2-6.8,9.6-14.2,13.1-22
			c2.6-5.7,4.8-11.7,6.5-17.7C375.2,275.9,376.7,264.8,376.8,253.7z M243.8,416.6c-0.1,0-0.1-0.1-0.2-0.2c0.2-1.3,0.6-2.6,1.3-3.7
			c2.9-4.8,5.8-9.5,8.6-14.3c1-1.7,0.7-2.2-1.2-2.2h-7.5c-1.3-0.1-2.6,0.5-3.3,1.7c-1.5,2.3-2.9,4.6-4.1,7.1
			c-2.1,2.9-3.8,6.1-5.6,9.2c-0.7,1.1-0.6,2.6,0.1,3.6c3.1,5.1,6.2,10.2,9.2,15.4c0.8,1.5,2.4,2.3,4,2.2c2.3-0.1,4.6,0,7,0
			c2,0,2.3-0.5,1.3-2.2c-0.1-0.3-0.3-0.5-0.4-0.7C250.1,427,246.7,422,243.8,416.6L243.8,416.6z M269.1,415.4
			c-0.6,1-0.8,2.1-1.4,3.1c-2.9,4.8-5.8,9.7-8.7,14.6c-1,1.7-0.7,2.1,1.3,2.1c2.3,0,4.6-0.1,7,0c1.7,0.1,3.2-0.7,4-2.2
			c1.3-2.2,2.6-4.4,3.9-6.5c1.8-3,3.7-6,5.5-9.1c0.7-1.1,0.7-2.5,0-3.6c-0.7-1-1.4-2-2-3c-2.1-4.4-4.9-8.4-7.3-12.6
			c-0.7-1.3-2.1-2.1-3.6-2.1h-7.5c-1.9,0-2.2,0.5-1.2,2.2c2,3.3,4,6.5,5.9,9.8C266.5,410.5,267.9,412.9,269.1,415.4L269.1,415.4z
			 M295,413.7c-1-0.1-2.5,0.4-4.1,0.3c-1.1-0.1-1.2,0.5-1.2,1.4c0.3,2.5,1.5,4.8,3.5,6.4c6.9,5.8,19.3,6.3,27.1,2.8
			c1-0.4,0.7-0.9,0.4-1.6c-1.2-2.4-3.3-3.8-5.6-5C309,414.6,302.3,413.9,295,413.7L295,413.7z M177.3,415.3
			c4.4,0.1,8.6-1.3,12.2-3.8c1.5-1.1,2.5-2.7,3-4.5c0.2-0.9,0.1-1.5-1.1-1.8c-7.1-1.9-14.5-2.2-21.6-0.9c-3.2,0.6-6.3,1.7-8.6,4.2
			c-1.4,1.5-1.3,1.7,0.4,2.7C166.2,413.9,171.3,415.1,177.3,415.3L177.3,415.3z M120.4,360.7c2.2,0,4.3-0.7,6-2c0.7-0.5,1-1,0.3-1.8
			c-5.1-6-11-11.1-18.4-14.2c-2.6-1.2-5.5-1.6-8.3-1.2c-1.4,0.3-1.9,0.7-1.3,2.3c2.1,4.7,5.4,8.9,9.5,12
			C111.7,358.6,116,360.4,120.4,360.7L120.4,360.7z M134.2,382.3c6,0.1,9-1.2,10.8-3.5c0.6-0.8,0.8-1.3-0.3-2.1
			c-6.6-4.7-13.7-8.2-21.8-9.3c-2.8-0.5-5.7,0-8.2,1.3c-0.8,0.5-1,0.9-0.4,1.8C119.9,377.6,127,381.7,134.2,382.3L134.2,382.3z
			 M148.2,388.6c-0.9,0-1.8-0.1-2.6,0c-3.2,0.3-6.4,0.8-9.1,2.9c-1.5,1.2-1.5,1.6,0,2.7c6.6,5,14,7.3,22.2,6.1
			c3.9-0.6,7.3-2.1,9-6.1c0.4-0.8,0.4-1.3-0.6-1.7C161.2,390.1,154.8,388.7,148.2,388.6L148.2,388.6z M427.3,282.4
			c0.4-1.5-0.2-1.9-1.6-1.8c-2.5,0.2-4.9,1.1-6.8,2.7c-6.9,5.1-11.2,12-14.6,19.7c-0.3,0.8-0.1,1.1,0.6,1.4c2.9,1.3,6.2,1,8.8-0.7
			C422,299,425.8,291.4,427.3,282.4z M400.5,334.2c2.7,0.1,5.3-0.7,7.4-2.3c7.2-4.9,11.2-11.8,12.6-20.3c0.2-1.1-0.5-1.1-1.2-1.1
			c-3.4-0.2-6.2,1.4-8.7,3.3c-5.8,4.3-10,10.1-13.3,16.4c-1.4,2.7-0.9,3.6,2.2,3.9C399.8,334.2,400.1,334.2,400.5,334.2L400.5,334.2
			z M90.6,311.3c-1.7,0-2,0.2-1.8,1.8c0.7,4.9,2.7,9.6,5.8,13.5c2.5,3.5,5.9,6.2,9.8,7.8c2.5,1.1,5.3,1.1,7.7-0.1
			c0.7-0.4,1.1-0.7,0.6-1.6c-3.1-6.4-7.4-12.2-12.8-16.9C97.2,313.4,94.2,311.6,90.6,311.3z M331.7,414.3c5.6,0.1,11.2-1.3,16.1-4.1
			c1.4-0.8,1.3-1.5,0.3-2.5c-1.5-1.7-3.5-2.9-5.7-3.5c-8.3-2.5-16.7-1.8-25,0.2c-1,0.2-1,0.8-0.8,1.5c0.5,2.1,1.8,3.9,3.6,5.1
			C323.6,413.3,327.6,414.5,331.7,414.3L331.7,414.3z M407,340.5c-1.2,0-2.4,0.2-3.6,0.6c-8.7,2.6-15.2,8.4-21,15.1
			c-0.6,0.7-0.3,1.1,0.2,1.6c2.7,2.4,5.9,2.5,9.2,1.7c8.2-2.1,13.8-7.4,17.8-14.7C411.5,341.1,411.1,340.5,407,340.5L407,340.5z
			 M214.1,414.7c-2.6-0.1-5.1,0-7.7,0.3c-4.6,0.5-9.1,1.9-13.3,4.1c-1.8,1-3.3,2.4-4.4,4.1c-0.7,1.2-0.8,1.8,0.7,2.4
			c2.5,0.9,5.1,1.6,7.7,1.8c6.4,0.6,12.5-0.4,17.8-4.1c2.5-1.7,4.3-4,4.5-7.3c0-1-0.3-1.4-1.3-1.4
			C216.6,414.7,215.1,414.7,214.1,414.7L214.1,414.7z M100.7,306c1.2,0,2.4-0.3,3.5-0.8c0.8-0.3,1-0.7,0.6-1.6
			c-3-6.9-7-13.2-12.7-18.2c-2.1-2-4.7-3.4-7.6-4.1c-2.4-0.5-3,0.1-2.6,2.5c0.9,5.9,3.5,11.3,7.5,15.8
			C92.4,303.1,96,305.7,100.7,306z M388.3,366.7c-1-0.1-2-0.1-2.9,0c-7.8,1.3-14.7,4.7-21,9.2c-0.9,0.6-0.8,1.1-0.2,1.8
			c1.8,2.5,4.8,3.9,7.8,3.8c9.6,0,17-4.4,22.9-11.8c0.7-0.9,0.4-1.4-0.5-1.9C392.5,366.9,390.4,366.4,388.3,366.7L388.3,366.7z
			 M355.7,399.7c1.3,0,2.6-0.1,3.8-0.4c5-0.9,9.7-3.1,13.7-6.4c0.7-0.6,0.7-1,0.1-1.6c-1.4-1.4-3.1-2.3-4.9-2.8
			c-3.4-0.9-7-1.1-10.5-0.7c-5.5,0.5-10.9,1.8-16.1,4c-0.8,0.3-0.8,0.7-0.5,1.4c0.8,2,2.3,3.7,4.2,4.7
			C348.7,399.7,352.2,399.9,355.7,399.7L355.7,399.7z M331.2,381.9c0-1.2-0.1-2.3-0.3-3.5c-0.1-0.9-0.3-1-1.2-0.8
			c-2.8,0.6-4.7,2.4-6.4,4.5c-4.4,5.5-6.6,12.1-8,18.9c-0.2,0.7,0.1,1,0.9,1.1c2.9,0.7,5.4-0.5,7.4-2.4
			C328.9,395.1,330.7,388.8,331.2,381.9L331.2,381.9z M149.4,364c0.1-2.5-0.2-4.9-0.7-7.3c-0.7-3.3-1.7-6.6-4.5-8.9
			c-0.9-0.8-1.5-0.7-2.1,0.4c-1.6,2.9-2.6,6.2-2.9,9.5c-0.5,4.8-0.1,9.5,2.6,13.7c1,1.8,2.7,3.2,4.7,3.8c1,0.3,1.8,0.4,2-1.1
			C149,370.7,149.4,367.3,149.4,364z M156.7,371.9c-0.1,1.5,0,3,0.3,4.4c0.8,4.4,2.3,8.5,5.6,11.7c1.6,1.7,3.7,2.6,6,2.6
			c1,0,1.4-0.4,1.3-1.3c-0.1-1.4-0.2-2.8-0.4-4.1c-0.8-5.8-2.2-11.4-5.5-16.4c-1.1-1.7-2.6-3.1-4.4-4.1c-1.3-0.7-2-0.4-2.2,1
			C156.9,367.7,156.7,369.8,156.7,371.9L156.7,371.9z M292.2,412c2.1,0,4.1-0.6,5.8-1.9c6.7-4.8,9.7-11.5,10.4-19.5
			c0.1-0.8-0.2-1.1-1.1-1.1c-2.2,0.1-4.2,0.9-5.8,2.4c-5.6,4.3-9,10.2-11.6,16.5C288.7,411.4,289,411.8,292.2,412
			C292.3,412,292.4,412,292.2,412L292.2,412z M190.8,403.2c3.2,0,3.4-0.2,2.9-2.6c-0.3-1.5-0.6-3-1.1-4.5c-1.7-5.5-4-10.7-8.2-14.8
			c-1.2-1.3-2.7-2.2-4.4-2.7c-0.6-0.2-1.5-0.5-1.7,0.8c-0.9,6.7,0.9,13.4,4.9,18.8C185.3,400.8,187.8,403,190.8,403.2L190.8,403.2z
			 M135.1,337.3c0.1-3.2-0.3-6.3-2.4-9c-0.6-0.7-1-1-1.7-0.1c-5.3,6.2-8,13.2-6.6,21.4c0.3,2.8,2.1,5.2,4.6,6.4
			c0.8,0.4,1.2,0.3,1.6-0.5C133.2,349.6,135.1,343.6,135.1,337.3L135.1,337.3z M200.9,392.5c0.8,7,3.5,13,8.9,17.6
			c2.6,2.1,5.5,3.6,9.1,2.5c1-0.3,1.4-0.7,0.9-1.9c-1.7-4.6-4.1-8.9-7.1-12.8c-2.6-3.2-5.4-6.2-9.6-7.3
			C200.9,390,200.9,390,200.9,392.5L200.9,392.5z M385.2,344.6c-0.1-6.3-2.5-12.4-6.8-17.1c-0.9-1-1.4-0.8-2.1,0.1
			c-1.5,2.2-2.3,4.8-2.3,7.5c-0.2,6.3,1.5,12.2,3.9,17.9c1.2,2.7,2,2.8,4.2,0.7c0.5-0.4,0.9-0.9,1.2-1.5
			C384.7,349.9,385.3,347.3,385.2,344.6L385.2,344.6z M126.4,310.3c0-1.3-0.2-2.6-0.8-3.8c-0.4-1.1-0.9-1.4-2-0.6
			c-6.5,4.6-10.6,10.7-11.3,18.8c-0.4,2.8,0.7,5.5,2.7,7.4c0.7,0.6,1.2,0.7,1.9-0.2c3-3.6,5.4-7.7,7.2-12
			C125.6,316.9,126.4,313.7,126.4,310.3z M352.4,371.1c0.1-2.1-0.2-4.3-0.7-6.4c-0.3-1.4-0.9-1.5-2.1-0.9c-2.3,1.2-4.2,3.2-5.3,5.5
			c-3.4,5.9-4.5,12.4-5.1,19c-0.1,1.7,1,1.6,2,1.5c2.6-0.3,4.9-1.6,6.4-3.7C350.9,381.8,352.6,376.5,352.4,371.1z M370.2,359.9
			c0.1-4.3-0.9-8.6-2.9-12.5c-0.7-1.3-1.3-1.3-2.3-0.4c-1.2,1.1-2.2,2.4-2.8,3.9c-3.1,7.5-2.7,15.1-1.2,22.8
			c0.2,0.8,0.6,0.9,1.4,0.7c2.2-0.5,4-1.9,5.2-3.8C369.5,367.4,370.4,363.7,370.2,359.9z M404.4,295.7c-0.9-8.5-5.4-14.8-12.6-19.2
			c-0.7-0.4-1.1-0.3-1.4,0.4c-0.9,2-1.1,4.2-0.6,6.3c1.4,7.5,5.4,13.6,10.4,19.3c0.7,0.7,1.1,0.5,1.7,0
			C403.7,300.8,404.6,298.3,404.4,295.7L404.4,295.7z M382.7,309.9c0,0.3,0,0.6,0,0.9c1,7.9,4.8,14.5,9.7,20.6
			c0.7,0.8,1.2,0.4,1.7-0.1c2.4-2.2,3.1-5.1,2.7-8.2c-0.8-6.2-3.8-11.8-8.6-15.8c-1.2-1.1-2.6-3-3.9-2.4
			C382.7,305.6,382.8,308,382.7,309.9L382.7,309.9z M119.6,282c0-1.2-0.1-2.4-0.5-3.6c-0.4-1.4-1.1-1.5-2.3-0.8
			c-6.3,4.1-10.5,9.6-11.8,17c-0.6,3-0.2,6,2.1,8.4c0.7,0.8,1.3,1.1,2.2,0c1.7-2,3.3-4.1,4.7-6.2C116.9,292.3,119.3,287.6,119.6,282
			z"/>
		<path id="Path_4" class="st3" d="M376.8,253.7c-0.1,11.1-1.7,22.1-4.6,32.8c-1.7,6.1-3.9,12-6.5,17.7c-3.6,7.8-8,15.2-13.1,22
			c-5.5,7.3-11.8,14-18.8,19.9c-7.5,6.4-15.8,11.8-24.6,16.1c-10.6,5.2-21.9,8.8-33.6,10.7c-4.5,0.7-9,1.2-13.6,1.4
			c-3.1,0.2-6.1,0.3-9.2,0.2c-13.5-0.4-26.9-3.1-39.5-7.8c-9-3.4-17.5-7.9-25.5-13.3c-5.2-3.6-10.2-7.6-14.8-12
			c-8.7-8.2-16.2-17.7-22.1-28.1c-6.2-10.8-10.6-22.5-13.1-34.7c-1-5.1-1.8-10.3-2.2-15.6c-0.3-3.2-0.1-6.5-0.3-9.7
			c-0.2-17,3.4-33.8,10.6-49.2c16.3-34.6,42.9-57,79.8-67.1c15.1-4.1,30.9-5,46.4-2.7c52.5,7.1,94.2,47.5,102.9,99.7
			C376.2,240.6,376.7,247.2,376.8,253.7z M178.6,260.1v8l-10.3,2.1c-7.1,1.4-14.1,2.9-21.2,4.2c-2.5,0.5-1.3,1.9-1.2,3.1
			c0.1,1.4,1,1.5,2.1,1.3c4.7-1,9.5-2,14.2-3c5.5-1.1,11.1-2.2,16.6-3.3c0.4,2.2,0.8,4.5,1.2,6.7c-0.8,0-1.5,0.1-2.2,0.5
			c-3.5,1.2-7,2.5-10.5,3.7c-5.6,2-11.1,3.9-16.7,5.8c-0.5,0.2-1.1,0.3-1.2,1c-0.3,2.1,1.3,3.5,3.2,2.9l28.3-9.8l2.6,9.2
			c-2.9,1.6-5.9,3.2-8.8,4.8c-5.6,3.1-11.3,6.2-16.9,9.3c-0.5,0.3-0.8,0.6-0.7,1.2c0.4,2.4,2,3.2,4,2c5.3-3,10.6-5.9,15.9-8.8
			c2.7-1.5,5.3-3,8-4.5c0.9,2.2,1.9,4.5,2.8,6.8c-0.5,0.4-1.1,0.9-1.6,1.3l-20.1,15.3c-2.1,1.6-2.1,1.6-0.4,3.7
			c0.7,0.9,1.2,1.3,2.4,0.4c4.9-3.9,9.8-7.7,14.8-11.4c2.3-1.7,4.4-3.8,7-5.1l4.9,8.6c-0.1,0.5-0.4,1-0.7,1.3
			c-5.4,5.7-10.7,11.5-16.1,17.1c-0.9,0.9-1,1.4,0,2.4c2.1,2,2,2,3.9-0.3c0.2-0.2,0.3-0.3,0.5-0.5c4.2-4.5,8.5-9,12.7-13.5
			c0.8-0.9,1.5-1.9,2.2-2.9l6.9,8.6c-0.3,0.4-0.5,0.9-0.8,1.3c-3.6,5.5-7.2,11.1-10.8,16.5c-0.7,1.1-0.7,1.8,0.5,2.4
			c0.5,0.2,0.9,0.5,1.3,0.9c0.7,0.7,1.1,0.4,1.6-0.4c3.8-5.8,7.6-11.6,11.4-17.4l7.7,6.8c-2.6,5.6-5.2,11.1-7.8,16.7
			c-1.1,2.4-0.9,2.7,1.8,3.7c0.8,0.3,1.2,0.2,1.6-0.7c2.1-4.6,4.2-9.2,6.3-13.7c0.5-1.1,0.8-2.4,1.9-3.2c3.1,2,6.4,3.8,9.7,5.6
			c-0.1,0.4-0.1,0.8-0.2,1.2c-1.2,4.6-2.4,9.1-3.7,13.7c-0.3,1.2-0.1,1.8,1.1,2c0.5,0.1,0.9,0.2,1.3,0.3c1,0.4,1.4,0.2,1.7-0.9
			c0.4-1.7,1-3.3,1.4-5c0.7-3.2,2.1-6.2,2.4-9.5c4.7,1.7,9.6,3,14.6,3.9c0.3,4.4-0.3,8.9-0.4,13.3c-0.1,1.7,0.5,2.1,1.9,2.3
			c0.4,0,0.8,0,1.2,0c0.8,0.1,1.1-0.2,1.2-1.1c0.2-4.7,0.5-9.3,0.7-14c3.8,0.2,7.7,0.1,11.5-0.2c0.4,4.4,0.7,8.7,1.2,13.1
			c0.1,0.8-0.2,2,0.7,2.4c1.1,0.4,2.2,0.3,3.2-0.2c0.9-0.4,0.6-1.2,0.5-1.8c-0.4-4.6-0.9-9.3-1.4-13.9c4.3-0.9,8.5-2.1,12.6-3.5
			c1.3,4.7,2.6,9.3,3.8,14c0.8,3,0.7,2.9,3.7,2.1c1-0.3,1.3-0.7,0.9-1.7c-0.5-1.3-0.8-2.8-1.2-4.1c-1.1-4-2.1-8-3.2-12
			c3.7-1.9,7.3-3.9,10.8-6.2c1.6,1.8,2.2,4,3.2,6.1c1.8,3.8,3.6,7.7,5.3,11.5c0.4,0.9,0.9,1.1,1.8,0.6c0.4-0.3,0.9-0.5,1.4-0.7
			c1.1-0.4,1.1-1.1,0.7-2.1c-2.8-6.1-5.6-12.2-8.5-18.2l8.3-7.6c0.8,0.3,1,1.1,1.4,1.7c3.5,5.3,6.9,10.5,10.3,15.8
			c1.2,2,2.1,0.4,3.1-0.1s1.5-1,0.6-2.2c-4.1-6.2-8.2-12.4-12.3-18.7l5.3-6.9c0.3,0.1,0.5,0.2,0.8,0.3c2.8,2.9,5.7,5.7,8.3,8.8
			c1.8,2.1,4,3.9,5.6,6.1c1.3,1.8,1.5,1.6,3.5,0c1-0.8,1.3-1.4,0.2-2.6c-2.8-2.8-5.3-5.9-8.2-8.7c-2.6-2.5-4.7-5.6-7.6-7.8l5.6-10.1
			c0.3,0,0.7,0.2,0.9,0.4c5.9,4.5,11.8,9,17.7,13.5c2.5,1.9,2.5,1.9,4.4-0.6c0.6-0.8,0.5-1.2-0.2-1.7c-7-5.3-14-10.6-20.9-15.9
			c0.9-2.3,1.8-4.7,2.8-7c0.5,0.2,1,0.4,1.4,0.6c7.2,4,14.5,8,21.7,12c0.8,0.5,1.4,0.4,1.8-0.5c0.2-0.4,0.4-0.8,0.7-1.2
			c0.8-1,0.6-1.6-0.6-2.2c-5.2-2.8-10.4-5.8-15.6-8.6c-2.6-1.5-5.2-2.9-8-4.2l2.6-9.7c3.1,1.1,6.2,2.2,9.3,3.3c6,2.1,12,4.2,18,6.2
			c0.5,0.2,1,0.5,1.5-0.3c1.5-2.4,1.2-3.5-1.5-4.4c-0.9-0.3-1.8-0.6-2.6-0.9c-7.9-2.7-15.8-5.5-23.8-8.2c0.1-2.4,0.9-4.6,0.8-6.9
			c9.5,1.9,19,3.9,28.4,5.9c2.8,0.6,2.7,0.6,3.2-2.2c0.3-1.4-0.3-1.7-1.5-1.9c-6.6-1.3-13.2-2.7-19.8-4c-3.4-0.7-6.8-1.7-10.4-1.9
			v-8.3c2.6,0.1,5.2,0.1,7.8,0.3c7.4,0.5,14.7,0.8,22.1,1.1c2.4,0.1,2.8-0.4,2.8-2.8c0-1-0.3-1.2-1.3-1.4c-3.1-0.4-6.2-0.6-9.3-0.6
			c-7.4-0.4-14.7-0.9-22.1-1.2v-9.4c4.4-0.2,8.7-0.7,13-1.4c6-0.7,12-1.4,18-2c1.3-0.1,1.6-0.7,1.3-1.6s0.4-2.8-1.6-2.6
			c-2.2,0.2-4.5,0.4-6.7,0.7c-3.5,0.4-7,0.8-10.4,1.2l-13.5,1.6v-9.7c9.2-2.7,18.4-5.3,27.6-8c1-0.3,1.5-0.7,1.1-1.9
			c-0.2-0.5-0.4-1-0.5-1.5c-0.2-1-0.7-1.2-1.8-0.9c-8.8,2.6-17.6,5.2-26.4,7.7v-8.3c0.4-0.1,0.8-0.1,1.2-0.3
			c6.3-2.9,12.6-5.8,18.9-8.8c2.5-1.2,2.5-1.2,1.2-3.8c-0.5-1-1-1.2-2-0.7c-4.1,2-8.1,4-12.3,5.8c-2.4,1-4.4,2.6-7.1,2.9
			c-0.1-4.4-0.2-8.8,0-13.2c0.9,0.1,1.4-0.5,2-0.9c3.2-2.2,6.3-4.4,9.5-6.6c2.1-1.5,2.1-1.4,0.8-3.5c-0.8-1.3-1.5-1.3-2.6-0.5
			c-3.2,2.3-6.5,4.4-9.7,6.6c-0.4-3.9-2.2-7.6-4.9-10.4c0.1-1.1,1-1.7,1.8-2.3c2.4-1.9,4.4-4.3,6.6-6.4c0.8-0.7,1.5-1.4,0.3-2.4
			c-1-0.8-1.7-2.4-3.2-0.9c-3.1,3-6.2,6.2-9.3,9.2c-3.8-1.5-7.9-1.4-11.8-2.3c0.1-0.7,0.5-1.3,1-1.8c3.2-4.2,6.4-8.3,9.6-12.5
			c1.2-1.6,1.1-1.6-0.8-3.2c-1.3-1.1-2-0.5-2.7,0.5c-2.6,3.4-5.2,6.7-7.8,10.2c-1.5,2-3.3,3.7-4.3,6l-11.8-1.4
			c0.1-0.4,0.3-0.8,0.4-1.1l11.6-21.8c0.9-1.6,0.6-1.8-1.7-3.1c-1.5-0.8-1.8,0.2-2.2,1.1c-3.6,6.9-7.2,13.7-10.8,20.6
			c-0.7,1.3-1.7,2.4-1.8,3.9l-10.1-0.7c0-0.6,0.1-1.3,0.3-1.9l8.8-26.7c1-3.1,1-3.1-2.2-3.9c-0.8-0.2-1.1,0-1.3,0.8
			c-2.9,9-6,18-8.9,27c-0.6,1.4-1,2.8-1.2,4.3c-2.3,0.1-4.6,0-7-0.3c0.1-0.6,0.3-1.1,0.4-1.7c1.3-7.3,2.5-14.5,3.8-21.8
			c0.5-2.7,1-5.3,1.3-8c0.1-0.7,0.6-1.8-0.5-2.3c-2.6-1.1-3.5-0.4-3.9,2.4c-1,6.5-2.2,13.1-3.3,19.6c-0.7,3.9-1.3,7.8-1.9,11.8
			l-8-0.1c0-10.1-0.1-20.3,0-30.4c0-1.8-1.6-3.1-1.2-4.9c0-0.1-0.1-0.2-0.2-0.3c-1.1-0.3-2.3-0.3-3.4,0c-0.8,0.2-0.5,1.2-0.5,1.8
			c0,11.2,0,22.5,0,33.7l-8.7,0.1c0-0.5,0-1-0.1-1.6c-1.6-9.5-3.2-18.9-4.8-28.4c-0.2-1.1-0.7-1.5-1.8-1.3c-0.4,0.1-0.8,0.2-1.2,0.3
			c-1.3,0-1.6,0.5-1.4,1.9c0.8,4.4,1.5,8.8,2.3,13.3c0.9,5.3,1.9,10.6,2.8,16c-2.4,0.3-4.9,0.4-7.3,0.3c0-0.4-0.1-0.8-0.2-1.2
			c-2.9-8.9-5.9-17.8-8.7-26.7c-0.7-2-1.7-1.2-2.9-0.9c-1.4,0.3-1.8,0.9-1.3,2.4c2.8,8.1,5.5,16.2,8.2,24.3c0.3,0.7,0.5,1.5,0.5,2.4
			l-10.4,0.8l-10.9-20.8c-1.4-2.8-1.4-2.8-4.1-1.4c-1,0.5-1.1,0.9-0.6,1.8c3.1,5.8,6.2,11.5,9.2,17.3c0.6,1.1,1.4,2.1,1.4,3.5
			L201,178c-0.1-0.4-0.3-0.9-0.5-1.3c-3.3-4.3-6.7-8.6-10-13c-0.7-0.9-1.2-0.7-1.9-0.2c-0.4,0.3-0.8,0.7-1.2,0.9
			c-1,0.6-1,1.2-0.3,2.1c1.4,1.8,2.9,3.6,4.2,5.5c1.6,2.3,3.7,4.2,4.9,6.8c-3.8,0.8-7.9,1-11.1,3.5c-2.9-2.8-5.7-5.7-8.6-8.5
			c-0.3-0.4-0.9-0.4-1.2-0.1c-0.1,0-0.1,0.1-0.1,0.1c-0.5,0.5-1,1-1.5,1.5c-0.8,0.7-0.8,1.2,0,1.9c2.6,2.4,5.1,4.8,7.7,7.3
			c0.3,0.3,0.7,0.5,1.1,0.5c-2.5,3.5-3.8,7.8-3.6,12.2c-0.7-0.1-1.3-0.4-1.8-0.9c-3-2.1-6-4.2-9-6.2c-1.6-1.1-1.6-1-3.2,1.2
			c-0.9,1.2-0.2,1.8,0.7,2.4c3,2,6,4.2,9,6.2c1.4,0.9,2.6,2.1,4.3,2.6l0,12.9c-0.5,0-1-0.1-1.5-0.4c-6-2.8-12-5.5-17.9-8.3
			c-2.5-1.2-2.4-1.2-3.7,1.2c-0.6,1.1-0.5,1.7,0.7,2.2c5.4,2.5,10.7,5.1,16.2,7.5c2,0.9,3.9,2.3,6.2,2.7v8c-1.1-0.3-2.1-0.5-3.2-0.8
			c-8.3-2.4-16.6-4.8-24.9-7.3c-0.3-0.1-0.8-0.4-0.9-0.1c-0.5,1-0.8,2.2-0.9,3.3c0.1,1.2,1.1,1,1.8,1.3c4.4,1.3,8.7,2.6,13.1,3.8
			c5,1.4,10,2.8,15,4.2v9.7c-2.1-0.3-4.2-0.5-6.3-0.8c-7.9-1-15.9-2-23.8-2.7c-3-0.3-2.9-0.3-3.3,2.6c-0.1,0.9-0.1,1.2,0.9,1.3
			c3.5,0.4,7.1,0.9,10.6,1.3s7.1,0.9,10.6,1.3c3.8,0.4,7.6,0.8,11.3,1.2v9c-5.9,0.3-11.9,0.7-17.8,1c-5,0.3-9.9,0.5-14.9,0.7
			c-0.5,0-1.1,0.1-1.1,0.8c0,1.1-0.4,2.4,0.2,3.4c0.5,0.9,1.6-0.2,2.4,0c0.1,0,0.2,0,0.3,0c4.2,0,8.3-0.5,12.4-0.6
			C166.4,260.7,172.5,259.9,178.6,260.1z"/>
		<path id="Path_5" class="st4" d="M100.5,212c3.3,0.1,6.5,1.1,9.3,2.8c4.1,2.7,5.1,6.5,4.3,11.1c-0.5,2.9-1.2,5.9-1.7,8.9
			c-0.2,1.2-0.7,1.5-1.9,1.3c-7.6-1.5-15.2-3-22.8-4.5c-0.9-0.2-1.1-0.5-1-1.4c0.7-3.2,1.2-6.4,1.9-9.5
			C90.1,214.7,93.6,212,100.5,212z M109.9,224c0-2.2-0.7-3.6-2.2-4.5c-2.9-1.6-6.2-2.4-9.5-2.2c-2.7,0.1-4.3,1.5-5.1,4.2
			c-0.4,1.5-0.7,3.1-1,4.6c-0.2,0.7,0.1,0.9,0.7,1l15,2.9c0.5,0.1,1,0.1,1.2-0.6C109.3,227.5,109.7,225.6,109.9,224L109.9,224z"/>
		<path id="Path_6" class="st4" d="M238.8,82.5c4.4,0,7.5,2,8.5,5.5c0.3,0.9,0.3,1.5-0.8,1.5c-0.5,0-1,0.1-1.5,0.3
			c-1.5,0.4-2.5,0.4-3.4-1.3c-1.3-2.6-7-1.4-8,0.3c-0.7,1.2-0.1,2.6,1.4,3.1c2,0.5,4,0.9,6,1.1c1,0.2,2.1,0.3,3.1,0.6
			c3.5,1,5.4,3.3,5.7,6.6c0.4,3.3-1.4,6.6-4.5,7.9c-3,1.4-6.4,1.8-9.7,1.2c-3.5-0.7-5.5-3.1-6.5-6.3c-0.1-0.3-0.2-0.7-0.1-0.8
			c1.2-0.9,2.7-0.8,4-1.2c0.8-0.3,0.9,0.3,1.1,0.8c1.4,3.5,4.7,3.9,7.9,2.8c1.6-0.4,2.7-1.8,2.6-3.5c-0.1-1.8-1.5-2.4-3-2.6
			c-2.1-0.3-4.1-0.5-6.2-0.9c-3.2-0.6-5.9-1.9-6.8-5.4s0.7-6.6,4.1-8.2C234.5,83,236.7,82.5,238.8,82.5L238.8,82.5z"/>
		<path id="Path_7" class="st4" d="M381.7,139.2c8.2,0,14.2,8.9,10.8,15.8c-0.6,1.2-1.2,1.4-2.1,0.5c-0.4-0.4-0.8-0.7-1.3-0.9
			c-1.3-0.7-1.6-1.4-1-3c0.8-2,0.2-4.2-1.4-5.6c-1.4-1.6-3.6-2.3-5.7-1.7c-3.8,1.2-6.9,3.9-8.6,7.4c-1,2.2-0.6,4.8,1.2,6.4
			c1.5,1.7,4,2.2,6.1,1.2c1.5-0.7,2-0.2,2.4,1.1c0.1,0.3,0.2,0.5,0.3,0.8c1.1,2.6,1.1,2.7-1.7,3.4c-7.8,2-15.2-5.7-13.4-13.9
			C368.7,145,375.8,139.3,381.7,139.2z"/>
		<path id="Path_8" class="st4" d="M301.5,111.5c-2.2,1.1-4,1.9-6,1.4c-3.8-0.9-6.4-4.5-6.1-8.4c0.1-2.3,0.7-4.6,1.8-6.7
			c2.9-5.3,9.1-5.9,12.9-1.2c0.1,0.2,0.2,0.4,0.3,0.6l0.4-0.2c0.6-2.4,1.3-4.7,1.9-7.1c0.3-1,0.6-1.4,1.8-1c3.5,1,3.5,0.9,2.5,4.4
			c-1.8,6.7-3.6,13.4-5.4,20.1c-0.3,1.2-0.8,1.7-2,1.1c-0.2-0.1-0.4-0.2-0.7-0.2C301.6,114.3,300.3,114,301.5,111.5z M303.3,102.8
			c0.1-2.8-1-4.5-2.8-4.9c-2-0.5-4.1,0.6-4.8,2.6c-0.7,1.5-1.1,3.2-1.1,4.9c-0.2,1.9,1,3.6,2.8,4.1c1.7,0.4,3.6-0.4,4.4-2
			C302.7,106,303.2,104.4,303.3,102.8L303.3,102.8z"/>
		<path id="Path_9" class="st4" d="M398.2,204.5c-0.7-0.2-1.5,1-2,0c-0.5-1.2-0.9-2.5-1.2-3.8c0.3-0.2,0.7-0.4,1-0.5
			c7.3-2.5,14.7-5,22-7.6c1.1-0.4,1.5-0.1,1.8,0.9c1.1,3.4,1.2,3.4-2.1,4.5l-5.4,1.9c2.8,1.5,4.4,3.7,4.5,6.8
			c0.1,1.8-0.6,3.6-1.8,4.9c-2.9,3.1-7.1,4.6-11.2,3.9c-5.3-0.8-7.4-5.3-5.4-10.8c0-0.1,0.1-0.2,0.1-0.3L398.2,204.5z M405.4,210.7
			c2-0.1,4-0.9,5.6-2.1c1.3-0.9,1.9-2.6,1.4-4.1c-0.4-1.7-2-2.9-3.7-2.8c-2.3,0-4.6,0.9-6.4,2.4c-1.3,1.1-1.7,2.9-1,4.4
			C401.9,210.2,403.4,210.8,405.4,210.7L405.4,210.7z"/>
		<path id="Path_10" class="st4" d="M173.6,132.3c1.4,2.4,2.7,4.5,4.1,6.5c0.5,0.8,0.6,1.3-0.4,1.9c-3.2,2-3.1,2-5.1-1.2
			c-3.6-5.8-7.2-11.6-10.9-17.4c-0.9-1.4-0.7-2,0.7-2.6c0.1,0,0.2-0.1,0.3-0.2c1.3-1.1,2.5-1.6,3.3,0.9c0.3-1.7,1.1-3.4,2.3-4.7
			c2.3-2.3,5.7-2.7,8.5-1.2c3.8,2.1,6.3,6,6.5,10.3c0.3,3.9-2.5,7.3-6.3,7.6c-0.5,0-1,0-1.5,0C174.5,132.2,174.1,132.2,173.6,132.3z
			 M178,125c-0.4-2.6-1.9-5-4.2-6.3c-1.8-1.1-4.1-0.5-5.1,1.3c-0.4,0.6-0.5,1.3-0.5,2c-0.1,2.4,2.3,6,4.6,6.9
			C175.4,129.9,178,128.3,178,125L178,125z"/>
		<path id="Path_11" class="st4" d="M164,138.2c-0.2,5.5-4.6,9.9-10.1,10c-4.8,0-9.7-5.1-9.8-10.2c-0.1-5,4.7-9.8,9.8-9.8
			C159.5,128.3,163.8,132.7,164,138.2z M155.1,143.5c2.3,0,4.2-1.9,4.2-4.2c0-0.3,0-0.7-0.1-1c-0.5-2.2-2-4.1-4.1-5.1
			c-2.1-1.1-4.6-0.4-5.8,1.7c-0.3,0.5-0.5,1.2-0.5,1.8C148.6,139.7,152,143.5,155.1,143.5L155.1,143.5z"/>
		<path id="Path_12" class="st4" d="M113.4,209.5c-5.4,0-10.5-3.6-11.3-7.8c-1-4.7,2-9.2,6.6-10.2c1.1-0.2,2.3-0.3,3.4,0
			c4.4,0.8,4.4,0.8,2.8,4.8c-1,2.4-1.9,4.7-2.9,7.1c-0.4,0.8-0.2,1.1,0.6,1.3c1.6,0.4,3.3-0.2,4.3-1.5c1.1-1.2,1-3.1-0.2-4.2
			c-0.4-0.3-0.5-0.8-0.2-1.2c0,0,0.1-0.1,0.1-0.1c0.3-0.5,0.6-1,0.9-1.5c1.4-2.2,1.6-2.2,2.9,0c2,3.1,1.3,6.2-0.3,9.2
			C119,207.8,116.3,209.5,113.4,209.5z M105.9,199.5c0.2,1.3,1,2.5,2.2,3.2c0.7,0.4,0.9,0.1,1.1-0.5c0.7-1.7,1.4-3.4,2.1-5.1
			c0.3-0.7,0.2-1-0.6-1.3c-2-0.6-4.1,0.6-4.6,2.5C106,198.7,105.9,199.1,105.9,199.5L105.9,199.5z"/>
		<path id="Path_13" class="st4" d="M182.8,112.1c-0.1-3.7,2.3-6.9,5.8-8c3.4-1.3,7.2-0.3,9.4,2.6c3.1,3.9,3.1,4.2-1.3,6.1
			c-2.1,0.9-4.2,1.9-6.4,2.8c-0.9,0.4-1.1,0.8-0.5,1.7c0.9,1.4,2.6,2.1,4.3,1.7c1.5-0.2,2.6-1.6,2.5-3.1c-0.1-0.6,0.3-1.1,0.8-1.2
			c0.1,0,0.1,0,0.2,0c0.6-0.1,1.1-0.3,1.7-0.4c2.4-0.6,2.5-0.6,2,1.8c-0.7,3.7-3.2,5.5-6.5,6.6c-2.9,1.1-6.2,0.4-8.3-1.8
			C184.3,118.5,182.9,115.4,182.8,112.1z M191.2,107.5c-2-0.1-3.7,1.5-3.7,3.5c0,0.4,0,0.8,0.1,1.1c0.2,0.9,0.5,1.2,1.4,0.8
			c1.2-0.6,2.6-1.1,3.8-1.7c0.6-0.3,1.8-0.3,1.7-1.2c-0.2-0.9-0.8-1.6-1.6-2C192.4,107.7,191.8,107.5,191.2,107.5L191.2,107.5z"/>
		<path id="Path_14" class="st4" d="M132.8,172.4c-4.6,0-9.7-4-10.7-8.5c-0.9-4.7,2.1-9.2,6.8-10.1c1.3-0.3,2.6-0.2,3.9,0.1
			c0.3,0.1,0.7,0.2,1,0.3c4.4,1.7,4.5,2,1.8,5.7c-1.4,1.9-2.7,3.9-4.2,5.8c-0.7,1-0.5,1.4,0.5,1.8c1.5,0.7,3.2,0.4,4.4-0.7
			c1.3-1,1.6-2.8,0.6-4.1c-0.3-0.6-0.1-1,0.3-1.3c0.3-0.3,0.5-0.6,0.9-0.9c0.7-0.5,1.2-1.9,2.1-1.6s1,1.6,1.3,2.5
			C142.7,166.5,138.1,172.4,132.8,172.4z M126.1,161.3c0.1,1.1,0.5,2.2,1.3,2.9c0.5,0.5,0.9,0.6,1.4-0.1c1.1-1.5,2.1-3,3.2-4.5
			c0.4-0.5,0.5-0.9-0.2-1.2c-1.7-1.1-4-0.7-5.1,1C126.4,160,126.2,160.6,126.1,161.3L126.1,161.3z"/>
		<path id="Path_15" class="st4" d="M329.4,110.4c0,0.4,0,0.7-0.1,1.1c-0.7,4.8-1.1,5-5.4,3.1c-2.2-1-4.4-1.9-6.5-2.9
			c-0.9-0.4-1.2-0.2-1.4,0.7c-0.5,1.6,0.1,3.3,1.5,4.3c1.2,1,3,1,4.1-0.2c0.3-0.4,0.9-0.4,1.3-0.1c0,0,0,0,0.1,0.1
			c0.5,0.3,1,0.6,1.4,1c2.2,1.4,2.2,1.7-0.1,2.9c-3.6,2-6.9,1-9.9-1.2s-3.8-5.3-3-8.8c0.5-2.2,1.5-4.3,3-5.9
			c3.2-3.5,8.6-3.8,12.2-0.6C328.5,105.5,329.5,107.9,329.4,110.4L329.4,110.4z M325,109.2c0.1-1.6-0.9-3-2.4-3.4
			c-1.7-0.6-3,0.1-4.1,1.4c-0.7,0.8-0.7,1.3,0.4,1.8c1.3,0.5,2.6,1.2,3.9,1.8C324.7,111.5,325,111.3,325,109.2L325,109.2z"/>
		<path id="Path_16" class="st4" d="M341,114.1c3-0.9,6.2,0,8.3,2.3c1.6,1.5,2.1,3.9,1,5.9c-2,4.1-4.8,7.8-7.1,11.8
			c-0.1,0.1-0.1,0.3-0.2,0.3c-1.5,0-2.5-1.2-3.7-1.8c-0.9-0.5-0.3-1,0-1.6c1.9-3.1,3.9-6.2,5.7-9.4c1-1.7,0.7-3.1-0.6-4.1
			c-1.4-1.1-3.3-1.1-4.7,0c-0.8,0.7-1.5,1.6-2.1,2.5c-1.5,2.4-3,4.7-4.4,7.1c-0.5,0.9-1,1-1.9,0.4c-3.1-1.9-3.1-1.9-1.2-5
			c2.4-3.8,4.8-7.7,7.2-11.5c0.7-1.1,1.3-1.5,2.4-0.6c0.1,0.1,0.3,0.2,0.4,0.3C341.6,111.5,342.7,112.3,341,114.1z"/>
		<path id="Path_17" class="st4" d="M279.6,106.9c-2.6,2.1-5.3,2.8-8.2,1.7c-2.5-0.8-4-3.3-3.6-5.9c0.4-4.1,1-8.3,1.4-12.4
			c0.1-0.9,0.3-1.1,1.3-1c3.7,0.5,3.7,0.4,3.3,4c-0.3,2.7-0.6,5.4-0.9,8.1c-0.3,2.3,0.5,3.7,2.4,4c2,0.5,4-0.8,4.5-2.8c0,0,0,0,0,0
			c0.7-3.3,1.1-6.7,1.4-10.1c0.1-1.3,0.5-1.8,1.9-1.6c3.3,0.3,3.4,0.3,3,3.5c-0.6,4.8-1.2,9.5-1.7,14.3c-0.1,1-0.5,1.5-1.5,1.2
			c-0.3-0.1-0.6-0.1-0.9-0.1C279.3,109.4,279.3,109.4,279.6,106.9z"/>
		<path id="Path_18" class="st4" d="M393,190.5c-2.4-0.5-4.5-2.2-5.5-4.4c-1.4-3-0.8-5.6,2-7.5c3.7-2.4,7.7-4.2,11.6-6.3
			c0.1-0.1,0.2-0.2,0.3-0.1c1.5,0.7,1.5,2.4,2.4,3.5c0.5,0.7-0.1,0.9-0.6,1.1c-3,1.6-6,3.2-9,4.9c-2.6,1.5-3.2,2.8-2.2,4.6
			c1.1,2,3.1,2.7,5.5,1.5c2.9-1.4,5.9-3,8.8-4.6c0.9-0.5,1.3-0.5,1.9,0.5c1.8,3.3,1.8,3.2-1.4,4.9c-4,2.1-8.1,4.3-12.1,6.5
			c-1.2,0.6-1.8,0.5-2.2-0.7c0-0.1-0.1-0.1-0.1-0.2C391.1,192,391.1,192,393,190.5z"/>
		<path id="Path_19" class="st4" d="M401.8,226.5c-0.2-2.6,0.9-5.1,3-6.7c0.7-0.6,1.3-0.8,1.6,0.4c0.2,0.8,0.5,1.7,0.9,2.5
			c0.3,0.7,0.3,1.3-0.5,1.8c-2.1,1.1-1.3,5.4,0,6.6c0.4,0.4,1,0.6,1.6,0.4c0.8-0.2,1-1,1-1.6c0.2-2,0.1-4,0.4-6.1
			c0.5-3.4,1.9-5.2,4.6-5.5c2.9-0.3,5.1,1.2,6.2,4.2c0.7,1.8,1,3.7,1,5.6c0,1-0.2,2.1-0.7,3c-0.6,1.3-1.7,2.9-2.9,2.6
			c-1-0.3-1.2-2.4-1.6-3.6c-0.1-0.3,0.1-0.5,0.3-0.8c1.9-1.8,1.1-3.7,0.3-5.6c-0.2-0.7-0.8-1.1-1.5-0.9c-0.7,0.1-0.9,0.7-0.9,1.3
			c-0.2,2.4-0.3,4.7-0.6,7.1c-0.4,3.1-1.7,4.7-4.1,5.1c-2.5,0.4-5.1-0.8-6.4-3C402.4,231.2,401.8,228.9,401.8,226.5z"/>
		<path id="Path_20" class="st4" d="M123.3,182.5c-2.7-3-5.2-5.9-7.7-8.6c-0.9-1-1.1-1.7-0.3-2.8c0.6-1,1.1-1.9,1.6-2.9
			c1.1,1.3,2.2,2.5,3.2,3.7c3,3.5,6,7.1,9,10.6c0.7,0.6,0.8,1.5,0.3,2.2c-1.8,3.1-0.7,2.9-4.7,2.4c-4.9-0.5-9.8-1-14.7-1.5
			c-2.3-0.2-2.3-0.2-1.3-2.1c1.4-2.7,1.5-2.7,4.5-2.4C116.4,181.5,119.7,182,123.3,182.5z"/>
		<path id="Path_21" class="st4" d="M260.3,86c0,0.4,0,0.8-0.1,1.2c-0.3,1.5,0.2,2.3,1.9,2c2.2-0.3,1.3,1.4,1.5,2.4
			c0.2,1.3-0.3,1.9-1.6,1.6c-1.6-0.3-1.9,0.4-1.9,1.9c0.1,2.4,0,4.9,0,7.3c0,1.5,0.5,2.3,2.1,1.8c0.9-0.3,1.2,0,1.4,0.9
			c0.4,2.7,0.2,3-2.4,3.3c-4,0.5-6.1-1.2-6.1-5.3c0-2.9,0.1-5.8,0.2-8.7c0-0.6,0.1-1.4-0.8-1.3c-1.5,0.1-1.5-0.8-1.5-1.9
			s-0.3-2.6,1.8-2.2c0.9,0.1,0.6-0.8,0.7-1.3c0.1-0.8-0.4-1.9,0.3-2.5c1.3-0.9,2.8-1.7,4.2-2.4c0.4-0.2,0.5,0.3,0.5,0.6L260.3,86
			L260.3,86z"/>
		<path id="Path_22" class="st4" d="M366.3,120.9c-1.1,1.4-2.1,2.8-3.1,4c-0.8,0.9-0.8,1.5,0.2,2.2c0.5,0.3,1.5,0.7,1.2,1.4
			c-0.5,1-1.2,1.9-2,2.6c-0.5,0.4-1.1-0.5-1.5-0.9c-0.9-0.9-1.5-0.7-2.2,0.3c-1.5,2-3.1,3.9-4.6,5.9c-1.2,1.6-1.1,2.1,0.6,2.9
			c0.9,0.4,0.8,0.8,0.4,1.5c-1.5,2.5-1.7,2.6-4.2,1c-3.4-2.2-3.8-4.4-1.4-7.7c1.7-2.3,3.5-4.5,5.2-6.7c0.6-0.7,1.1-1.4-0.1-2
			c-0.7-0.4-0.7-0.8-0.2-1.4c0.4-0.4,0.8-0.9,1.1-1.4c0.5-0.8,1-1,1.8-0.3c0.5,0.5,1,0.7,1.4-0.1c1.1-2.4,3-2.3,5.1-1.8
			C364.6,120.6,365.3,120.7,366.3,120.9z"/>
		<path id="Path_23" class="st4" d="M147.2,158.8c-0.3-0.3-0.6-0.5-0.9-0.7c-6-5.2-11.9-10.4-17.9-15.5c-0.7-0.6-0.6-1-0.1-1.7
			c2.5-2.9,2.4-2.9,5.3-0.4c5,4.4,10,8.7,15,13c1.8,1.6,1.8,1.6,0.3,3.3c-0.4,0.4-0.7,0.9-1.1,1.3
			C147.7,158.4,147.5,158.6,147.2,158.8z"/>
		<path id="Path_24" class="st4" d="M382.6,176.4c-0.4,0-0.5-0.3-0.7-0.5c-2.6-3.2-2.6-3.3,0.8-5.5c5.8-3.7,11.6-7.5,17.3-11.3
			c1.1-0.7,1.6-0.6,2.2,0.5c1.8,2.9,1.8,2.8-0.9,4.6c-5.8,3.8-11.6,7.6-17.5,11.4C383.5,175.9,383,176.2,382.6,176.4z"/>
		<path id="Path_25" class="st4" d="M207,99.7c0.7-2.6,2.2-4.1,4.8-4.2c1.1-0.1,1.9,0.2,1.7,1.6c-0.1,0.4-0.1,0.8,0,1.2
			c0.2,1.3-0.2,1.9-1.7,1.8c-1.9-0.1-3,1.4-2.7,3.6c0.3,1.6,0.7,3.2,1.1,4.7c0.3,1.1,0.7,2.2,1.1,3.3c1.2,3.8,1.2,3.8-2.6,4.8
			c-0.7,0.2-1,0.1-1.3-0.6c-1.7-5.3-3.5-10.7-5.2-16c-0.3-0.8,0.1-1.2,0.8-1.4c0.4-0.1,0.8-0.2,1.1-0.4
			C205.6,97.5,206.7,97.6,207,99.7z"/>
		<path id="Path_26" class="st1" d="M269.2,415.4c-1.3-2.5-2.6-4.9-4.2-7.2c-1.9-3.3-4-6.5-5.9-9.8c-1-1.6-0.7-2.2,1.2-2.2h7.5
			c1.5-0.1,2.9,0.7,3.6,2.1c2.4,4.2,5.2,8.2,7.3,12.6c0.6,1,1.3,2,2,3c0.7,1.1,0.8,2.5,0,3.6c-1.8,3-3.7,6-5.5,9.1
			C274.1,422.3,271.3,419,269.2,415.4z"/>
		<path id="Path_27" class="st1" d="M243.8,416.6c2.8,5.4,6.3,10.4,9.3,15.7c0.1,0.2,0.3,0.5,0.4,0.7c1,1.8,0.7,2.2-1.3,2.2
			c-2.3,0-4.6,0-7,0c-1.7,0.1-3.2-0.7-4-2.2c-3.1-5.1-6.1-10.2-9.2-15.4c-0.7-1.1-0.8-2.5-0.1-3.6c1.8-3.1,3.5-6.3,5.6-9.2
			c0,1,0.3,2.1,0.8,2.9c1.8,2.8,3.5,5.7,5.2,8.6C243.7,416.4,243.8,416.5,243.8,416.6L243.8,416.6z"/>
		<path id="Path_28" class="st1" d="M295,413.7c7.4,0.3,14,1,20.2,4.2c2.4,1,4.3,2.8,5.6,5c0.3,0.7,0.6,1.2-0.4,1.6
			c-7.8,3.5-20.2,3-27.1-2.8c-2-1.6-3.2-3.9-3.5-6.4c-0.1-0.9,0-1.4,1.2-1.4C292.5,414.1,294,413.5,295,413.7z"/>
		<path id="Path_29" class="st1" d="M177.3,415.3c-6-0.2-11.1-1.4-15.7-4.2c-1.7-1-1.7-1.2-0.4-2.7c2.3-2.5,5.4-3.5,8.6-4.2
			c7.2-1.3,14.6-1,21.6,0.9c1.2,0.3,1.3,0.9,1.1,1.8c-0.5,1.8-1.6,3.4-3,4.5C185.9,414,181.7,415.4,177.3,415.3z"/>
		<path id="Path_30" class="st1" d="M120.4,360.7c-4.5-0.4-8.7-2.1-12.2-4.9c-4.1-3.1-7.4-7.2-9.5-12c-0.7-1.5-0.1-2,1.3-2.3
			c2.8-0.5,5.7-0.1,8.3,1.2c7.4,3,13.3,8.1,18.4,14.2c0.7,0.8,0.4,1.3-0.3,1.8C124.7,360,122.6,360.7,120.4,360.7z"/>
		<path id="Path_31" class="st1" d="M134.2,382.3c-7.2-0.6-14.3-4.7-19.8-11.8c-0.7-0.9-0.4-1.3,0.4-1.8c2.5-1.4,5.4-1.8,8.2-1.3
			c8.1,1.1,15.2,4.6,21.8,9.3c1,0.7,0.9,1.2,0.3,2.1C143.2,381.2,140.2,382.4,134.2,382.3z"/>
		<path id="Path_32" class="st1" d="M148.3,388.6c6.5,0.1,13,1.5,19,4c1,0.4,1,0.8,0.6,1.7c-1.7,4-5.2,5.5-9,6.1
			c-8.2,1.2-15.6-1.1-22.2-6.1c-1.5-1.2-1.5-1.5,0-2.7c2.6-2.1,5.8-2.7,9.1-2.9C146.5,388.5,147.4,388.5,148.3,388.6z"/>
		<path id="Path_33" class="st1" d="M427.3,282.4c-1.5,9-5.4,16.6-13.6,21.3c-2.6,1.7-5.9,2-8.8,0.7c-0.7-0.3-0.9-0.6-0.6-1.4
			c3.4-7.7,7.7-14.6,14.6-19.7c1.9-1.6,4.3-2.5,6.8-2.7C427.1,280.5,427.7,280.9,427.3,282.4z"/>
		<path id="Path_34" class="st1" d="M400.5,334.2c-0.4,0-0.7,0-1.1,0c-3-0.3-3.6-1.3-2.2-3.9c3.3-6.4,7.5-12.1,13.3-16.4
			c2.6-1.9,5.3-3.5,8.7-3.3c0.8,0,1.4,0,1.2,1.1c-1.4,8.5-5.4,15.4-12.6,20.3C405.8,333.5,403.2,334.3,400.5,334.2L400.5,334.2z"/>
		<path id="Path_35" class="st1" d="M90.6,311.3c3.6,0.3,6.6,2.1,9.4,4.5c5.4,4.7,9.7,10.5,12.8,16.9c0.5,0.9,0.1,1.2-0.6,1.6
			c-2.4,1.2-5.2,1.2-7.7,0.1c-3.9-1.6-7.3-4.3-9.8-7.8c-3.1-3.9-5.1-8.6-5.8-13.5C88.6,311.5,88.8,311.3,90.6,311.3z"/>
		<path id="Path_36" class="st1" d="M331.7,414.3c-4.1,0.1-8.1-1-11.4-3.3c-1.8-1.2-3.1-3-3.6-5.1c-0.2-0.7-0.2-1.3,0.8-1.5
			c8.3-2,16.6-2.7,25-0.2c2.2,0.6,4.2,1.8,5.7,3.5c1,1,1,1.7-0.3,2.5C342.9,413.1,337.3,414.5,331.7,414.3z"/>
		<path id="Path_37" class="st1" d="M407,340.5c4.1,0,4.6,0.6,2.6,4.2c-3.9,7.3-9.6,12.6-17.8,14.7c-3.2,0.8-6.4,0.7-9.2-1.7
			c-0.5-0.5-0.9-0.8-0.2-1.6c5.8-6.7,12.3-12.4,21-15.1C404.6,340.7,405.8,340.5,407,340.5z"/>
		<path id="Path_38" class="st1" d="M214.1,414.7h4.1c1,0,1.3,0.4,1.3,1.4c-0.1,3.3-2,5.5-4.5,7.3c-5.4,3.7-11.5,4.7-17.8,4.1
			c-2.6-0.3-5.2-0.9-7.7-1.8c-1.5-0.6-1.5-1.2-0.7-2.4c1.1-1.7,2.6-3.1,4.4-4.1c4.1-2.2,8.6-3.6,13.3-4.1
			C208.9,414.7,211.5,414.6,214.1,414.7z"/>
		<path id="Path_39" class="st1" d="M100.7,306c-4.7-0.4-8.3-2.9-11.3-6.4c-4-4.4-6.5-9.9-7.5-15.8c-0.4-2.4,0.2-3,2.6-2.5
			c2.8,0.7,5.4,2.1,7.6,4.1c5.7,5,9.7,11.3,12.7,18.2c0.4,0.9,0.2,1.3-0.6,1.6C103.2,305.8,101.9,306,100.7,306L100.7,306z"/>
		<path id="Path_40" class="st1" d="M388.3,366.7c2.1-0.3,4.2,0.2,6,1.2c0.9,0.5,1.2,0.9,0.5,1.9c-5.9,7.4-13.3,11.8-22.9,11.8
			c-3.1,0.1-6-1.3-7.8-3.8c-0.5-0.7-0.6-1.2,0.2-1.8c6.4-4.6,13.2-8,21-9.2C386.3,366.6,387.3,366.6,388.3,366.7z"/>
		<path id="Path_41" class="st1" d="M355.7,399.7c-3.5,0.2-7-0.1-10.2-1.8c-1.9-1-3.4-2.6-4.2-4.7c-0.3-0.7-0.3-1.1,0.5-1.4
			c5.1-2.1,10.5-3.4,16.1-4c3.5-0.4,7.1-0.1,10.5,0.7c1.9,0.5,3.6,1.4,4.9,2.8c0.6,0.6,0.6,1-0.1,1.6c-3.9,3.2-8.6,5.4-13.7,6.4
			C358.3,399.6,357,399.8,355.7,399.7z"/>
		<path id="Path_42" class="st1" d="M331.2,381.9c-0.5,6.9-2.3,13.2-7.7,18c-2.1,1.9-4.5,3-7.4,2.4c-0.7-0.2-1-0.4-0.9-1.1
			c1.4-6.8,3.6-13.4,8-18.9c1.5-2.2,3.8-3.8,6.4-4.5c0.9-0.2,1.1-0.1,1.2,0.8C331,379.6,331.2,380.7,331.2,381.9L331.2,381.9z"/>
		<path id="Path_43" class="st1" d="M149.4,364c0,3.4-0.4,6.7-1,10.1c-0.2,1.6-1,1.4-2,1.1c-2-0.6-3.7-2-4.7-3.8
			c-2.6-4.2-3-8.9-2.6-13.7c0.3-3.3,1.3-6.6,2.9-9.5c0.6-1.1,1.2-1.2,2.1-0.4c2.8,2.3,3.8,5.6,4.5,8.9
			C149.2,359,149.5,361.5,149.4,364L149.4,364z"/>
		<path id="Path_44" class="st1" d="M156.7,371.9c-0.1-2.1,0.2-4.2,0.7-6.2c0.3-1.5,1-1.7,2.2-1c1.8,1,3.3,2.4,4.4,4.1
			c3.3,5,4.8,10.6,5.5,16.4c0.2,1.4,0.2,2.8,0.4,4.1c0.1,1-0.2,1.3-1.3,1.3c-2.3,0-4.5-1-6-2.6c-3.3-3.2-4.8-7.3-5.6-11.7
			C156.8,374.8,156.6,373.4,156.7,371.9L156.7,371.9z"/>
		<path id="Path_45" class="st1" d="M292.2,412L292.2,412c-3.2-0.2-3.5-0.7-2.3-3.5c2.7-6.4,6-12.2,11.6-16.5
			c1.6-1.4,3.7-2.2,5.8-2.4c0.8,0,1.2,0.3,1.1,1.1c-0.7,8-3.7,14.7-10.4,19.5C296.3,411.4,294.3,412,292.2,412z"/>
		<path id="Path_46" class="st1" d="M190.8,403.2c-2.9-0.2-5.5-2.4-7.5-5.1c-4-5.4-5.8-12.1-4.9-18.7c0.1-1.3,1-0.9,1.7-0.8
			c1.7,0.5,3.2,1.4,4.4,2.7c4.2,4.1,6.5,9.3,8.2,14.8c0.5,1.5,0.8,3,1.1,4.5C194.2,403,194,403.2,190.8,403.2z"/>
		<path id="Path_47" class="st1" d="M135.1,337.2c-0.1,6.4-1.9,12.4-4.6,18.1c-0.4,0.8-0.8,0.9-1.6,0.5c-2.5-1.2-4.2-3.6-4.5-6.4
			c-1.5-8.2,1.2-15.2,6.6-21.4c0.7-0.8,1.2-0.6,1.7,0.1C134.8,330.9,135.2,334,135.1,337.2z"/>
		<path id="Path_48" class="st1" d="M200.9,392.5c0-2.4,0-2.4,2.3-1.9c4.3,1,7.1,4,9.6,7.3c3,3.9,5.4,8.2,7.1,12.8
			c0.5,1.2,0,1.6-0.9,1.9c-3.6,1.1-6.5-0.4-9.1-2.5C204.3,405.5,201.6,399.4,200.9,392.5z"/>
		<path id="Path_49" class="st1" d="M385.2,344.6c0.2,2.7-0.5,5.3-1.8,7.7c-0.3,0.5-0.7,1-1.2,1.5c-2.2,2.1-3,2-4.2-0.7
			c-2.4-5.7-4.1-11.6-3.9-17.9c-0.1-2.7,0.7-5.3,2.3-7.5c0.7-0.9,1.2-1.1,2.1-0.1C382.6,332.2,385.1,338.3,385.2,344.6z"/>
		<path id="Path_50" class="st1" d="M126.4,310.3c-0.1,3.3-0.8,6.6-2.2,9.6c-1.9,4.3-4.3,8.3-7.2,12c-0.7,0.9-1.2,0.8-1.9,0.2
			c-2.1-1.9-3.1-4.6-2.7-7.4c0.6-8.1,4.8-14.2,11.3-18.8c1.1-0.8,1.6-0.5,2,0.6C126.2,307.7,126.5,309,126.4,310.3z"/>
		<path id="Path_51" class="st1" d="M352.4,371.1c0.2,5.4-1.5,10.7-4.8,15c-1.5,2.1-3.8,3.5-6.4,3.7c-1,0.1-2.2,0.2-2-1.5
			c0.6-6.6,1.7-13.1,5.1-19c1.2-2.3,3-4.3,5.3-5.5c1.1-0.5,1.8-0.5,2.1,0.9C352.3,366.8,352.5,369,352.4,371.1z"/>
		<path id="Path_52" class="st1" d="M370.2,359.9c0.2,3.8-0.7,7.6-2.7,10.8c-1.1,1.9-3,3.3-5.2,3.8c-0.8,0.2-1.3,0.1-1.4-0.7
			c-1.4-7.7-1.9-15.4,1.2-22.8c0.6-1.5,1.6-2.9,2.8-3.9c1-0.8,1.6-0.9,2.3,0.4C369.3,351.3,370.3,355.6,370.2,359.9z"/>
		<path id="Path_53" class="st1" d="M404.4,295.7c0,2.6-0.5,5-2.5,6.8c-0.6,0.5-1,0.7-1.7,0c-5-5.6-9-11.8-10.4-19.3
			c-0.5-2.1-0.3-4.3,0.6-6.3c0.4-0.7,0.7-0.9,1.4-0.4C399,281,403.5,287.2,404.4,295.7z"/>
		<path id="Path_54" class="st1" d="M382.7,309.9c0.1-1.9,0-4.2,1.6-5c1.3-0.6,2.7,1.3,3.9,2.4c4.7,4,7.8,9.6,8.6,15.8
			c0.4,3.1-0.2,6-2.7,8.2c-0.5,0.5-1.1,0.9-1.7,0.1c-4.9-6.1-8.7-12.7-9.7-20.6C382.7,310.5,382.7,310.2,382.7,309.9z"/>
		<path id="Path_55" class="st1" d="M119.6,282c-0.3,5.6-2.7,10.3-5.6,14.9c-1.4,2.2-3,4.2-4.7,6.2c-0.9,1.1-1.5,0.8-2.2,0
			c-2.3-2.4-2.6-5.4-2.1-8.4c1.4-7.4,5.6-12.9,11.8-17c1.2-0.8,1.8-0.6,2.3,0.8C119.4,279.6,119.6,280.8,119.6,282z"/>
		<path id="Path_56" class="st0" d="M243.7,416.4c-1.8-2.9-3.5-5.7-5.2-8.6c-0.6-0.9-0.9-1.9-0.8-2.9c1.2-2.4,2.6-4.8,4.1-7.1
			c0.7-1.1,1.9-1.7,3.3-1.7h7.5c1.9,0,2.2,0.5,1.2,2.2c-2.9,4.8-5.7,9.5-8.6,14.3C244.3,413.8,243.8,415.1,243.7,416.4z"/>
		<path id="Path_57" class="st0" d="M269.2,415.4c2.2,3.6,5,6.9,6.1,11.1c-1.3,2.2-2.6,4.3-3.9,6.5c-0.8,1.5-2.4,2.4-4,2.2
			c-2.3-0.1-4.6,0-7,0c-2,0-2.2-0.5-1.3-2.1c2.9-4.9,5.8-9.8,8.7-14.6C268.4,417.5,268.5,416.3,269.2,415.4z"/>
		<path id="Path_58" class="st5" d="M243.8,416.5"/>
		<path id="Path_59" class="st0" d="M334,243.4v26.5c0.1,2.4-0.7,4.6-0.8,6.9l-0.9,4.2l-2.6,9.7l-1.4,4.1c-0.9,2.3-1.8,4.7-2.8,7
			c-0.7,1.4-1.3,2.8-2,4.2l-5.6,10.1l-2.7,3.9l-5.3,6.9l-3.2,3.5l-8.3,7.6l-3.9,2.9c-3.5,2.3-7.1,4.3-10.8,6.2l-4.1,1.8
			c-4.1,1.4-8.3,2.6-12.6,3.5l-4.1,0.5c-3.8,0.3-7.6,0.4-11.5,0.2l-4.5-0.6c-5-0.9-9.9-2.2-14.6-3.9c-1.2-0.7-2.5-1.3-3.8-1.7
			c-3.3-1.8-6.5-3.6-9.7-5.6l-3.9-2.8l-7.7-6.8l-3.2-3.3l-6.9-8.6l-2.5-3.7l-4.9-8.6c-0.7-1.4-1.3-2.8-2-4.2
			c-0.9-2.2-1.9-4.5-2.8-6.8c-0.3-1.4-0.8-2.7-1.4-4l-2.6-9.2c-0.3-1.3-0.7-2.7-1-4l-1.2-6.7c-0.1-1.5-0.1-2.9-0.2-4.4v-52.9l0-12.9
			c0-1.8,0-3.5,0-5.2c-0.2-4.3,1.1-8.6,3.6-12.2l2.7-2.7c3.3-2.5,7.3-2.7,11.1-3.5c1.6-0.1,3.3-0.4,4.8-0.8l12.2-1.4l4.9-0.5
			l10.4-0.8c1.5,0.1,3,0,4.5-0.3c2.5,0.1,4.9,0,7.4-0.3l4.2-0.1l8.7-0.1h5.3l8,0.1l4.2,0c2.3,0.3,4.6,0.4,7,0.3l4.5,0.3l10.1,0.7
			l4.5,0.4l11.8,1.4l4.9,0.7c3.9,0.9,8,0.8,11.8,2.3l3.9,2.7c2.7,2.8,4.4,6.5,4.9,10.4l0,4.9c-0.2,4.4-0.1,8.8,0,13.2l0,4.9v22.6
			C334,240.6,334,242,334,243.4z M326.6,232.8L326.6,232.8l0-36.5c0-6.3-1.9-8.7-8.1-9.8c-16.4-2.7-33-4.3-49.7-4.7
			c-16-0.5-32,0-48,1.3c-9.5,0.8-18.9,2-28.3,3.6c-1.9,0.3-3.6,1.4-4.7,2.9c-1.4,1.9-2,4.2-1.9,6.6c0,24.5,0,49,0,73.5
			c0,0.7,0,1.4,0.1,2.1c0.9,6.2,2.4,12.3,4.4,18.2c5.7,16.7,14.6,31.3,28.6,42.4c10.1,8,21.6,12.8,34.6,13.4
			c15.8,0.7,29.6-4.7,41.6-14.7c13.3-11.1,21.9-25.5,27.2-41.9c2.2-6.9,4.2-13.9,4.2-21.2C326.6,256.2,326.6,244.5,326.6,232.8
			L326.6,232.8z"/>
		<path id="Path_60" class="st1" d="M258.4,174.3h-5.3c0-11.2,0-22.5,0-33.7c0-0.6-0.4-1.6,0.5-1.8c1.1-0.3,2.3-0.3,3.4,0
			c0.1,0,0.2,0.1,0.2,0.3c-0.4,1.8,1.2,3,1.2,4.9C258.3,154,258.4,164.1,258.4,174.3z"/>
		<path id="Path_61" class="st1" d="M270.6,174.4l-4.2,0c0.6-3.9,1.3-7.8,1.9-11.8c1.1-6.5,2.3-13,3.3-19.6c0.4-2.8,1.4-3.4,3.9-2.4
			c1.1,0.5,0.6,1.5,0.5,2.3c-0.4,2.7-0.9,5.3-1.3,8l-3.8,21.8C270.8,173.3,270.7,173.8,270.6,174.4z"/>
		<path id="Path_62" class="st1" d="M178.6,255.5v4.5c-6.1-0.1-12.2,0.6-18.3,0.8c-4.1,0.1-8.3,0.6-12.4,0.6c-0.1,0-0.2,0-0.3,0
			c-0.8-0.2-1.9,0.9-2.4,0c-0.6-1-0.2-2.3-0.2-3.4c0-0.7,0.5-0.8,1.1-0.8c5-0.2,9.9-0.4,14.9-0.7
			C166.8,256.3,172.7,255.9,178.6,255.5z"/>
		<path id="Path_63" class="st1" d="M178.6,242.3v4.2c-3.8-0.4-7.6-0.8-11.3-1.2c-3.5-0.4-7.1-0.8-10.6-1.3
			c-3.6-0.4-7.1-0.9-10.6-1.3c-1-0.1-1-0.4-0.9-1.3c0.4-2.9,0.3-2.9,3.3-2.6c8,0.8,15.9,1.7,23.8,2.7
			C174.4,241.8,176.6,242,178.6,242.3z"/>
		<path id="Path_64" class="st1" d="M178.6,268.1c0.1,1.5,0.1,2.9,0.2,4.4c-5.5,1.1-11.1,2.2-16.6,3.3c-4.7,1-9.5,2-14.2,3
			c-1.1,0.2-2,0.1-2.1-1.3c-0.1-1.2-1.2-2.6,1.2-3.1c7.1-1.3,14.1-2.8,21.2-4.2L178.6,268.1z"/>
		<path id="Path_65" class="st1" d="M282.1,175l-4.5-0.3c0.2-1.5,0.6-3,1.2-4.3c2.9-9,6-18,8.9-27c0.3-0.8,0.5-1,1.3-0.8
			c3.2,0.8,3.2,0.8,2.2,3.9l-8.8,26.7C282.2,173.8,282,174.4,282.1,175L282.1,175z"/>
		<path id="Path_66" class="st1" d="M334,257.3v-4.5c7.4,0.3,14.7,0.8,22.1,1.2c3.1,0,6.2,0.2,9.3,0.6c1,0.2,1.3,0.4,1.3,1.4
			c0,2.4-0.4,2.9-2.8,2.8c-7.4-0.3-14.8-0.6-22.1-1.1C339.2,257.4,336.6,257.4,334,257.3z"/>
		<path id="Path_67" class="st1" d="M180,279.2c0.3,1.3,0.7,2.7,1,4l-28.3,9.8c-1.2,0.5-2.6-0.1-3.1-1.4c-0.2-0.5-0.2-1-0.1-1.5
			c0.1-0.8,0.7-0.8,1.2-1c5.6-1.9,11.1-3.9,16.7-5.8c3.5-1.2,7-2.5,10.5-3.7C178.5,279.4,179.2,279.2,180,279.2z"/>
		<path id="Path_68" class="st1" d="M334,243.4v-4.2l13.5-1.6c3.5-0.4,7-0.8,10.4-1.2c2.2-0.3,4.5-0.5,6.7-0.7
			c2-0.2,1.3,1.6,1.6,2.6s0,1.5-1.3,1.6c-6,0.6-12,1.3-18,2C342.7,242.5,338.4,243.3,334,243.4z"/>
		<path id="Path_69" class="st1" d="M334,269.9v-4.2c3.5,0.2,6.9,1.2,10.4,1.9c6.6,1.3,13.2,2.7,19.8,4c1.2,0.2,1.8,0.5,1.5,1.9
			c-0.6,2.8-0.5,2.8-3.2,2.2C353,273.7,343.5,271.8,334,269.9z"/>
		<path id="Path_70" class="st1" d="M244.5,174.4l-4.2,0.1c-0.9-5.3-1.9-10.6-2.8-16c-0.8-4.4-1.4-8.8-2.3-13.3
			c-0.3-1.3,0-1.9,1.4-1.9c0.4,0,0.8-0.1,1.2-0.3c1.1-0.3,1.6,0.2,1.8,1.3c1.6,9.5,3.2,18.9,4.8,28.4
			C244.4,173.3,244.5,173.8,244.5,174.4L244.5,174.4z"/>
		<path id="Path_71" class="st1" d="M178.6,228.1v4.5c-5-1.4-10-2.8-15-4.2c-4.4-1.3-8.7-2.5-13.1-3.8c-0.7-0.2-1.8-0.1-1.8-1.3
			c0.1-1.1,0.4-2.3,0.9-3.3c0.1-0.3,0.6,0,0.9,0.1c8.3,2.4,16.6,4.8,24.9,7.3C176.5,227.6,177.6,227.8,178.6,228.1z"/>
		<path id="Path_72" class="st1" d="M233,174.8c-1.5,0.3-3,0.4-4.5,0.3c0-0.8-0.2-1.6-0.5-2.4c-2.7-8.1-5.4-16.2-8.2-24.3
			c-0.5-1.5-0.1-2.1,1.3-2.4c1.2-0.3,2.3-1.1,2.9,0.9c2.8,8.9,5.8,17.8,8.7,26.7C232.9,174,232.9,174.4,233,174.8z"/>
		<path id="Path_73" class="st1" d="M332.3,281l0.9-4.2c7.9,2.7,15.8,5.5,23.8,8.2c0.9,0.3,1.8,0.6,2.6,0.9c2.7,0.9,3,2,1.5,4.4
			c-0.4,0.7-1,0.4-1.5,0.3l-18-6.2C338.5,283.2,335.4,282.1,332.3,281z"/>
		<path id="Path_74" class="st1" d="M183.6,292.4c0.6,1.3,1.1,2.6,1.4,4c-2.7,1.5-5.3,3-8,4.5c-5.3,2.9-10.6,5.9-15.9,8.8
			c-2,1.1-3.6,0.3-4-2c-0.1-0.6,0.2-0.9,0.7-1.2c5.6-3.1,11.3-6.2,16.9-9.3C177.6,295.6,180.6,294,183.6,292.4z"/>
		<path id="Path_75" class="st1" d="M187.8,303.2c0.7,1.4,1.3,2.8,2,4.2c-2.6,1.3-4.6,3.4-7,5.1c-5,3.7-9.9,7.5-14.8,11.4
			c-1.1,0.9-1.7,0.5-2.4-0.4c-1.6-2-1.6-2.1,0.4-3.7c6.7-5.1,13.4-10.2,20.1-15.3C186.8,304.1,187.3,303.6,187.8,303.2z"/>
		<path id="Path_76" class="st1" d="M334,229.4v-4.5c8.8-2.6,17.7-5.1,26.4-7.7c1.1-0.3,1.5-0.1,1.8,0.9c0.1,0.5,0.3,1,0.5,1.5
			c0.5,1.1,0,1.6-1.1,1.9C352.4,224.1,343.2,226.7,334,229.4z"/>
		<path id="Path_77" class="st1" d="M296.7,176.1l-4.5-0.4c0.1-1.5,1.1-2.6,1.8-3.9c3.6-6.9,7.2-13.7,10.8-20.6
			c0.5-0.9,0.7-2,2.2-1.1c2.3,1.3,2.5,1.5,1.7,3.1c-3.8,7.3-7.7,14.5-11.6,21.8C297,175.4,296.8,175.7,296.7,176.1z"/>
		<path id="Path_78" class="st1" d="M328.3,294.8l1.4-4.1c2.7,1.2,5.4,2.6,8,4.2c5.2,2.8,10.4,5.8,15.6,8.6c1.2,0.6,1.4,1.2,0.6,2.2
			c-0.3,0.4-0.5,0.8-0.7,1.2c-0.4,0.9-1,1-1.8,0.5c-7.2-4-14.5-8-21.7-12C329.2,295.2,328.7,295,328.3,294.8z"/>
		<path id="Path_79" class="st1" d="M323.5,306c0.7-1.4,1.3-2.8,2-4.2c7,5.3,14,10.6,20.9,15.9c0.7,0.5,0.7,0.9,0.2,1.7
			c-2,2.5-1.9,2.6-4.4,0.6c-5.9-4.5-11.8-9-17.7-13.5C324.2,306.2,323.9,306.1,323.5,306L323.5,306z"/>
		<path id="Path_80" class="st1" d="M194.8,316l2.5,3.7c-0.7,1-1.4,1.9-2.2,2.9c-4.2,4.5-8.5,9-12.7,13.5c-0.2,0.2-0.3,0.3-0.5,0.5
			c-1.9,2.3-1.9,2.2-3.9,0.3c-1-0.9-0.9-1.4,0-2.4c5.4-5.7,10.8-11.4,16.1-17.1C194.4,317,194.7,316.5,194.8,316z"/>
		<path id="Path_81" class="st1" d="M218,175.9l-4.9,0.5c0-1.3-0.9-2.4-1.4-3.5c-3-5.8-6.1-11.6-9.2-17.3c-0.5-0.9-0.4-1.3,0.6-1.8
			c2.7-1.4,2.6-1.4,4.1,1.4C210.8,162.1,214.4,169,218,175.9z"/>
		<path id="Path_82" class="st1" d="M178.6,215.2v4.9c-2.3-0.4-4.1-1.8-6.2-2.7c-5.5-2.4-10.8-5-16.2-7.5c-1.2-0.6-1.3-1.1-0.7-2.2
			c1.3-2.4,1.2-2.4,3.7-1.2c6,2.8,11.9,5.5,17.9,8.3C177.6,215,178.1,215.2,178.6,215.2L178.6,215.2z"/>
		<path id="Path_83" class="st1" d="M315.2,320l2.7-3.9c2.9,2.3,5,5.3,7.6,7.8c2.8,2.8,5.4,5.9,8.2,8.7c1.1,1.1,0.9,1.7-0.2,2.6
			c-2,1.6-2.2,1.8-3.5,0c-1.7-2.2-3.8-4-5.6-6.1c-2.6-3.1-5.5-5.9-8.3-8.8C315.7,320.1,315.5,320,315.2,320L315.2,320z"/>
		<path id="Path_84" class="st1" d="M334,216.6l0-4.9c2.6-0.3,4.7-1.9,7.1-2.9c4.1-1.8,8.2-3.8,12.3-5.8c1-0.5,1.5-0.4,2,0.7
			c1.3,2.6,1.4,2.6-1.2,3.8c-6.3,2.9-12.6,5.9-18.9,8.8C334.8,216.4,334.4,216.5,334,216.6z"/>
		<path id="Path_85" class="st1" d="M306.7,330.4l3.2-3.5c4.1,6.2,8.1,12.5,12.3,18.7c0.8,1.2,0.3,1.8-0.6,2.2s-1.8,2.1-3.1,0.1
			c-3.4-5.3-6.8-10.6-10.3-15.8C307.7,331.4,307.5,330.7,306.7,330.4z"/>
		<path id="Path_86" class="st1" d="M204.1,328.3l3.2,3.3c-3.8,5.8-7.7,11.6-11.4,17.4c-0.5,0.7-0.8,1-1.6,0.4
			c-0.4-0.3-0.8-0.6-1.3-0.9c-1.1-0.6-1.2-1.3-0.5-2.4c3.7-5.5,7.2-11,10.8-16.5C203.6,329.2,203.8,328.7,204.1,328.3z"/>
		<path id="Path_87" class="st1" d="M294.5,340.8l3.8-2.9c2.8,6.1,5.6,12.2,8.5,18.2c0.5,1,0.4,1.6-0.7,2.1c-0.5,0.2-1,0.4-1.4,0.7
			c-0.8,0.5-1.3,0.3-1.8-0.6c-1.8-3.8-3.5-7.7-5.3-11.5C296.7,344.8,296.1,342.5,294.5,340.8z"/>
		<path id="Path_88" class="st1" d="M313.4,178.2l-4.9-0.7c0.9-2.4,2.8-4.1,4.3-6c2.5-3.4,5.2-6.8,7.8-10.2c0.8-1,1.4-1.6,2.7-0.5
			c1.9,1.6,2,1.6,0.8,3.2c-3.2,4.1-6.4,8.3-9.6,12.5C313.9,176.9,313.6,177.5,313.4,178.2z"/>
		<path id="Path_89" class="st1" d="M214.9,338.4l3.9,2.8c-1.2,0.8-1.4,2.1-1.9,3.2c-2.2,4.6-4.3,9.1-6.3,13.7
			c-0.4,0.9-0.8,1-1.6,0.7c-2.7-1-2.9-1.3-1.8-3.7C209.7,349.5,212.3,343.9,214.9,338.4z"/>
		<path id="Path_90" class="st1" d="M200.9,177.9c-1.6,0.4-3.2,0.7-4.8,0.8c-1.2-2.6-3.3-4.6-4.9-6.8c-1.3-1.9-2.8-3.7-4.2-5.5
			c-0.7-0.9-0.7-1.5,0.3-2.1c0.4-0.2,0.8-0.6,1.2-0.9c0.7-0.5,1.2-0.6,1.9,0.2c3.3,4.4,6.7,8.6,10,13
			C200.6,177,200.8,177.4,200.9,177.9z"/>
		<path id="Path_91" class="st1" d="M279.6,348.8l4.1-1.8c1.1,4,2.1,8,3.2,12c0.4,1.4,0.7,2.8,1.2,4.2c0.4,1.1,0,1.5-0.9,1.7
			c-2.9,0.8-2.9,0.8-3.7-2.1C282.2,358.1,280.9,353.4,279.6,348.8z"/>
		<path id="Path_92" class="st1" d="M228.4,346.8c1.3,0.4,2.6,1,3.8,1.7c-0.2,3.3-1.6,6.3-2.4,9.5c-0.4,1.7-1,3.3-1.4,5
			c-0.2,1.1-0.7,1.4-1.7,0.9c-0.4-0.2-0.9-0.3-1.3-0.3c-1.2-0.2-1.4-0.8-1.1-2c1.3-4.5,2.5-9.1,3.7-13.7
			C228.3,347.6,228.4,347.2,228.4,346.8z"/>
		<path id="Path_93" class="st1" d="M178.6,197c0,1.8,0,3.5,0,5.2c-1.7-0.4-2.9-1.7-4.3-2.6c-3-2-6-4.1-9-6.2
			c-1-0.6-1.6-1.2-0.7-2.4c1.6-2.2,1.6-2.3,3.2-1.2c3,2.1,6,4.1,9,6.2C177.3,196.6,177.9,196.9,178.6,197z"/>
		<path id="Path_94" class="st1" d="M262.9,352.8l4.1-0.5c0.5,4.6,1,9.3,1.4,13.9c0.1,0.6,0.4,1.4-0.5,1.8c-1,0.5-2.2,0.6-3.2,0.2
			c-0.8-0.4-0.6-1.6-0.7-2.4C263.6,361.5,263.3,357.1,262.9,352.8z"/>
		<path id="Path_95" class="st1" d="M246.9,352.4l4.5,0.6c-0.2,4.7-0.5,9.3-0.7,14c0,0.8-0.4,1.1-1.2,1.1c-0.4,0-0.8,0-1.2,0
			c-1.4-0.1-1.9-0.5-1.9-2.3C246.6,361.3,247.2,356.8,246.9,352.4z"/>
		<path id="Path_96" class="st1" d="M334,198.4l0-4.9c3.2-2.2,6.5-4.4,9.7-6.6c1.2-0.8,1.8-0.8,2.6,0.5c1.3,2.1,1.4,2.1-0.8,3.5
			c-3.2,2.2-6.3,4.4-9.5,6.6C335.4,198,334.8,198.6,334,198.4z"/>
		<path id="Path_97" class="st1" d="M329.1,183.1l-3.8-2.7c3.1-3.1,6.2-6.2,9.3-9.2c1.5-1.5,2.3,0.1,3.2,0.9c1.2,1,0.5,1.7-0.3,2.4
			c-2.2,2.1-4.2,4.4-6.6,6.4C330.1,181.5,329.2,182,329.1,183.1z"/>
		<path id="Path_98" class="st1" d="M185,182.2l-2.7,2.7c-0.4,0-0.8-0.2-1.1-0.5c-2.5-2.4-5.1-4.9-7.7-7.3c-0.8-0.7-0.8-1.3,0-1.9
			c0.5-0.4,1-1,1.5-1.5c0.3-0.4,0.9-0.4,1.2-0.1c0.1,0,0.1,0.1,0.1,0.1C179.2,176.6,182.1,179.4,185,182.2z"/>
		<path id="Path_99" class="st1" d="M109.9,224c-0.3,1.5-0.6,3.5-1,5.4c-0.1,0.8-0.6,0.7-1.2,0.6l-15-2.9c-0.6-0.1-0.9-0.3-0.7-1
			c0.4-1.5,0.6-3.1,1-4.6c0.7-2.7,2.4-4.1,5.1-4.2c3.3-0.2,6.6,0.6,9.5,2.2C109.3,220.5,110,221.9,109.9,224z"/>
		<path id="Path_100" class="st1" d="M303.3,102.8c-0.1,1.6-0.6,3.2-1.5,4.6c-0.9,1.6-2.7,2.4-4.4,2c-1.8-0.5-3-2.2-2.8-4.1
			c0-1.7,0.4-3.3,1.1-4.9c0.7-1.9,2.8-3,4.8-2.6C302.3,98.3,303.4,99.9,303.3,102.8z"/>
		<path id="Path_101" class="st1" d="M405.4,210.7c-2.1,0-3.5-0.6-4.1-2.2c-0.7-1.5-0.2-3.4,1-4.4c1.8-1.6,4-2.4,6.4-2.4
			c1.7,0,3.3,1.1,3.7,2.8c0.5,1.5-0.1,3.2-1.4,4.1C409.4,209.9,407.5,210.6,405.4,210.7L405.4,210.7z"/>
		<path id="Path_102" class="st6" d="M398.2,204.5l0.4-0.1c0,0.1-0.1,0.2-0.1,0.3C398.4,204.7,398.3,204.6,398.2,204.5z"/>
		<path id="Path_103" class="st1" d="M178,125c0,3.3-2.6,4.9-5.3,3.9c-2.2-0.9-4.6-4.5-4.6-6.9c-0.1-2.1,1.6-3.8,3.7-3.8
			c0.7,0,1.4,0.2,2,0.5C176.1,120,177.6,122.4,178,125z"/>
		<path id="Path_104" class="st1" d="M155.1,143.5c-3.1,0-6.6-3.8-6.2-6.9c0.1-2.3,2.2-4.1,4.5-4c0.6,0,1.2,0.2,1.8,0.5
			c2.1,1,3.6,2.9,4.1,5.1c0.5,2.3-0.9,4.5-3.1,5.1C155.8,143.4,155.5,143.5,155.1,143.5z"/>
		<path id="Path_105" class="st1" d="M105.9,199.5c0-2.1,1.6-3.8,3.7-3.8c0.4,0,0.8,0,1.1,0.1c0.7,0.2,0.9,0.6,0.6,1.3
			c-0.7,1.7-1.4,3.4-2.1,5.1c-0.2,0.6-0.5,0.9-1.1,0.5C106.9,202,106.1,200.9,105.9,199.5z"/>
		<path id="Path_106" class="st1" d="M191.2,107.5c0.6,0,1.2,0.2,1.8,0.5c0.8,0.4,1.4,1.1,1.6,2c0,0.8-1.1,0.8-1.7,1.2
			c-1.2,0.6-2.5,1.1-3.8,1.7c-0.9,0.4-1.2,0.1-1.4-0.8c-0.6-1.9,0.5-3.9,2.4-4.5C190.4,107.6,190.8,107.5,191.2,107.5L191.2,107.5z"
			/>
		<path id="Path_107" class="st1" d="M126.1,161.3c0.1-2,1.9-3.6,3.9-3.5c0.7,0,1.3,0.3,1.8,0.6c0.7,0.3,0.5,0.7,0.2,1.2
			c-1.1,1.5-2.2,3-3.2,4.5c-0.5,0.7-0.8,0.6-1.4,0.1C126.7,163.4,126.2,162.4,126.1,161.3L126.1,161.3z"/>
		<path id="Path_108" class="st1" d="M325,109.2c0,2.1-0.3,2.4-2.2,1.5c-1.3-0.6-2.6-1.2-3.9-1.8c-1.1-0.4-1.1-1-0.4-1.8
			c1.1-1.3,2.4-2,4.1-1.4C324.1,106.2,325.1,107.6,325,109.2z"/>
		<path id="Path_109" class="st2" d="M326.6,232.8v35.2c0,7.4-2,14.3-4.2,21.2c-5.3,16.4-13.9,30.7-27.2,41.9
			c-12,10-25.8,15.4-41.6,14.7c-13-0.6-24.5-5.4-34.6-13.4c-14-11.1-22.9-25.6-28.6-42.4c-2-5.9-3.5-12-4.4-18.2
			c-0.1-0.7-0.1-1.4-0.1-2.1c0-24.5,0-49,0-73.5c-0.1-2.3,0.6-4.6,1.9-6.5c1.1-1.6,2.8-2.6,4.7-2.9c9.4-1.6,18.8-2.8,28.3-3.6
			c16-1.4,32-1.8,48-1.3c16.6,0.4,33.2,2,49.7,4.7c6.1,1.1,8.1,3.5,8.1,9.8C326.6,208.3,326.6,220.5,326.6,232.8L326.6,232.8z
			 M256,338.8c2.7,0.1,5.4-0.2,8.1-0.8c14.8-3.1,26.3-11.3,35.7-22.8c5.6-6.8,10.2-14.4,13.7-22.5c3-6.9,5.4-14.1,7.2-21.5
			c0.3-1.1,0-1.7-1.3-1.7c-21.1,0-42.2,0.1-63.3,0.1c-21,0-42,0-63-0.1c-1.6,0-1.3,0.7-1.1,1.7c1.4,5.7,3.1,11.2,5.2,16.7
			c4.2,11.2,10.4,21.5,18.4,30.4c6.2,7,13.8,12.6,22.4,16.3C243.6,337.1,249.7,338.5,256,338.8L256,338.8z M256.8,251.3
			c13.1,0,26.1,0,39.2,0c1.6,0,2.2-0.3,2.2-2.1c-0.1-16.5-0.1-33,0-49.4c0-1.5-0.3-2.1-2-2.1c-26.2,0.1-52.5,0.1-78.7,0
			c-1.7,0-2,0.5-2,2.1c0.1,16.5,0.1,33,0,49.4c0,1.7,0.5,2.1,2.2,2.1C230.7,251.3,243.8,251.3,256.8,251.3L256.8,251.3z
			 M257.4,259.3h47c3.9,0,3.4,0.6,3.4-3.4c0-2.4,0-2.4-2.4-2.4h-94.5c-3.8,0-3.7,0-3.8,3.9c0,1.6,0.5,2,2,2
			C225.2,259.3,241.3,259.3,257.4,259.3L257.4,259.3z"/>
		<path id="Path_110" class="st3" d="M256,269.5c21.1,0,42.2,0,63.3-0.1c1.4,0,1.6,0.6,1.3,1.7c-1.8,7.4-4.2,14.6-7.2,21.5
			c-3.5,8.1-8.1,15.7-13.7,22.5c-9.4,11.4-21,19.7-35.7,22.8c-2.6,0.6-5.4,0.9-8.1,0.8L256,269.5z M268.9,282.3c0,0.4,0,0.8,0,1.2
			c1.6,8.5,3.2,16.9,4.7,25.4c0.1,0.6,0,1.3,0.8,1.3s0.8-0.7,1-1.2c0.8-2.3,2.1-4.4,3.9-6.1c0.8-0.7,1.3-0.9,2,0.1
			c1.6,2.2,3.5,4.2,5.1,6.4c0.9,1.4,1.6,1.5,2.7,0.3c0.6-0.6,1.3-1.2,2-1.6c0.9-0.6,1.1-1.1,0.3-2c-1.8-2.1-3.4-4.2-5.1-6.4
			c-1.2-1.5-1.2-1.7,0.6-2.5c1.6-0.8,3.4-1.2,5.2-1.3c0.6,0,1.6,0.3,1.7-0.7c0.1-0.9-0.8-0.9-1.3-1.2c-7.3-3.7-14.7-7.5-22-11.2
			C270.1,282.5,269.5,282.3,268.9,282.3L268.9,282.3z"/>
		<path id="Path_111" class="st1" d="M256,269.5v69.2c-6.3-0.2-12.4-1.6-18.1-4.2c-8.6-3.7-16.2-9.3-22.4-16.3
			c-8-8.9-14.2-19.2-18.4-30.4c-2.1-5.5-3.8-11-5.2-16.7c-0.2-0.9-0.5-1.7,1.1-1.7C214,269.5,235,269.5,256,269.5z M222.9,282.3
			c-0.4,0-0.8,0-1.2,0c-1.8-0.3-2.9,0.3-3.1,2.3c-0.3,2.7-2,4.5-4.4,5.8c-1.2,0.6-1.7,1.5-1,2.8c1.5,2.5,1.5,5.5,0,8
			c-0.6,0.8-0.4,1.8,0.4,2.4c0.2,0.1,0.3,0.2,0.5,0.3c2.6,1.2,4.4,3.7,4.7,6.5c0,0.1,0.1,0.1,0.1,0.2c0.2,1.1,0.7,1.6,1.9,1.4
			c3.1-0.6,6.2,0.4,8.3,2.7c0.7,0.8,1.5,0.7,2.2-0.1c2-2.2,5.1-3.2,8-2.7c0.8,0.3,1.8-0.2,2-1c0.1-0.2,0.1-0.4,0.1-0.5
			c0.3-2.9,2.2-5.4,4.8-6.6c0.9-0.3,1.3-1.2,1-2.1c-0.1-0.2-0.1-0.3-0.2-0.5c-1.4-2.5-1.4-5.5,0-8c0.6-0.8,0.4-1.9-0.4-2.5
			c-0.2-0.1-0.4-0.2-0.6-0.3c-2.5-1.2-4.3-3.6-4.6-6.4c0-0.1,0-0.1,0-0.2c0-0.8-0.6-1.6-1.5-1.6c-0.2,0-0.3,0-0.5,0.1
			c-2.9,0.6-5.9-0.4-7.9-2.5c-1-1-1.7-0.9-2.8,0C226.9,281.2,225.3,283.1,222.9,282.3z"/>
		<path id="Path_112" class="st0" d="M256.8,251.3c-13.1,0-26.1,0-39.2,0c-1.6,0-2.2-0.3-2.2-2.1c0.1-16.5,0.1-33,0-49.4
			c0-1.5,0.3-2.1,2-2.1c26.2,0.1,52.5,0.1,78.7,0c1.7,0,2,0.5,2,2.1c0,16.5,0,33,0,49.4c0,1.7-0.5,2.1-2.2,2.1
			C282.9,251.3,269.9,251.3,256.8,251.3z M256.6,246.8h35.5c1.3,0,1.8-0.3,1.8-1.7c-0.1-13.7-0.1-27.4,0-41.1c0-1.5-0.4-1.8-1.9-1.8
			c-23.5,0-47,0-70.5,0c-1.4,0-1.9,0.3-1.9,1.8c0.1,13.6,0.1,27.3,0,40.9c0,1.5,0.4,1.9,1.9,1.9C233.3,246.8,245,246.8,256.6,246.8
			L256.6,246.8z"/>
		<path id="Path_113" class="st0" d="M257.4,259.3c-16.1,0-32.1,0-48.2,0c-1.6,0-2.1-0.4-2-2c0.1-3.9,0-3.9,3.8-3.9h94.5
			c2.4,0,2.4,0,2.4,2.4c0,4,0.5,3.4-3.4,3.4C288.7,259.3,273,259.3,257.4,259.3z"/>
		<path id="Path_114" class="st0" d="M268.9,282.3c0.6,0,1.2,0.2,1.6,0.6c7.3,3.7,14.7,7.4,22,11.2c0.5,0.3,1.4,0.3,1.3,1.2
			c-0.2,1-1.1,0.7-1.7,0.7c-1.8,0.1-3.6,0.5-5.2,1.3c-1.8,0.8-1.8,1-0.6,2.5c1.7,2.1,3.4,4.3,5.1,6.4c0.8,0.9,0.6,1.4-0.3,2
			c-0.7,0.4-1.4,1-2,1.6c-1.1,1.2-1.7,1.1-2.7-0.3c-1.6-2.2-3.4-4.2-5.1-6.4c-0.8-1-1.2-0.8-2-0.1c-1.8,1.7-3.1,3.8-3.9,6.1
			c-0.2,0.5-0.2,1.3-1,1.2s-0.7-0.8-0.8-1.3c-1.6-8.5-3.2-16.9-4.8-25.4C268.9,283.1,268.9,282.7,268.9,282.3L268.9,282.3z"/>
		<path id="Path_115" class="st0" d="M222.9,282.3c2.4,0.8,4-1.2,5.7-2.5c1.1-0.8,1.8-1,2.8,0c2,2.1,5,3.1,7.9,2.5
			c0.8-0.3,1.7,0.2,1.9,1c0,0.2,0.1,0.3,0.1,0.5c0,0.1,0,0.1,0,0.2c0.3,2.8,2.1,5.2,4.6,6.4c1,0.3,1.5,1.3,1.2,2.2
			c-0.1,0.2-0.2,0.4-0.3,0.6c-1.4,2.5-1.4,5.5,0,8c0.6,0.7,0.4,1.7-0.3,2.3c-0.1,0.1-0.3,0.2-0.5,0.3c-2.7,1.2-4.5,3.7-4.8,6.6
			c0,0.9-0.7,1.6-1.6,1.6c-0.2,0-0.3,0-0.5-0.1c-2.9-0.6-6,0.4-8,2.7c-0.7,0.7-1.5,0.9-2.2,0.1c-2.1-2.3-5.2-3.3-8.2-2.7
			c-1.2,0.2-1.7-0.3-1.9-1.4c0-0.1-0.1-0.1-0.1-0.2c-0.3-2.9-2.1-5.3-4.7-6.5c-0.9-0.3-1.4-1.2-1.2-2.1c0.1-0.2,0.1-0.4,0.3-0.5
			c1.5-2.5,1.5-5.5,0-8c-0.7-1.3-0.2-2.1,1-2.8c2.4-1.2,4.1-3,4.4-5.8c0.2-2,1.3-2.6,3.1-2.3C222.1,282.4,222.5,282.4,222.9,282.3
			L222.9,282.3z M230,310c7.1,0,12.9-5.7,12.9-12.8s-5.7-12.9-12.8-12.9c-7.1,0-12.8,5.7-12.9,12.8C217,304.2,223.3,310.2,230,310
			L230,310z"/>
		<path id="Path_116" class="st1" d="M256.6,246.8c-11.7,0-23.3,0-35,0c-1.5,0-2-0.4-1.9-1.9c0.1-13.6,0.1-27.3,0-40.9
			c0-1.5,0.5-1.8,1.9-1.8c23.5,0,47,0,70.5,0c1.4,0,1.9,0.4,1.9,1.8c-0.1,13.7-0.1,27.4,0,41.1c0,1.4-0.5,1.8-1.8,1.7
			C280.3,246.8,268.5,246.8,256.6,246.8z M245,226h13.9c1.1,0,1.7-0.1,1.7-1.4c0-1.2-0.4-1.5-1.6-1.5c-9.3,0-18.7,0-28,0
			c-1.2,0-1.6,0.3-1.6,1.5c0,1.4,0.6,1.4,1.7,1.4C235.7,226,240.3,226,245,226z M244.8,233.9c-4.7,0-9.4,0-14.1,0
			c-1.2,0-1.3,0.5-1.3,1.5s0.1,1.4,1.3,1.4c9.4-0.1,18.8-0.1,28.1,0c1.1,0,1.4-0.3,1.4-1.4s-0.2-1.6-1.4-1.5
			C254.2,233.9,249.5,233.9,244.8,233.9L244.8,233.9z M237.3,212.1c-2.8,0-5.7,0.1-8.5,0c-1.4-0.1-1.5,0.6-1.4,1.7
			c0.1,0.9-0.2,1.8,1.3,1.8c5.8-0.1,11.6-0.1,17.4,0c1.5,0,1.3-0.8,1.4-1.8c0-1,0-1.8-1.4-1.7C243.1,212.2,240.2,212.1,237.3,212.1
			L237.3,212.1z M241.9,228.3c-2.8,0-5.7,0.1-8.5,0c-1.2,0-1.4,0.5-1.4,1.5s0.2,1.4,1.3,1.4c5.7-0.1,11.5-0.1,17.2,0
			c1.2,0,1.3-0.5,1.3-1.4s-0.2-1.6-1.4-1.5C247.5,228.4,244.7,228.3,241.9,228.3L241.9,228.3z M234.2,209.6c2.1,0,4.3-0.1,6.4,0
			c1.4,0.1,1.1-0.8,1.1-1.6s0.2-1.6-1.1-1.6c-4.2,0.1-8.5,0.1-12.7,0c-1.5,0-1.2,0.9-1.2,1.7s-0.1,1.6,1.2,1.5
			C230,209.5,232.1,209.6,234.2,209.6L234.2,209.6z M231.1,241.6c1,0,2.1-0.1,3.1,0c1.3,0.1,1.2-0.6,1.2-1.5s-0.1-1.4-1.2-1.3
			c-2,0.1-3.9,0.1-5.9,0c-1,0-1.7,0-1.7,1.4s0.6,1.5,1.7,1.4C229.2,241.5,230.2,241.6,231.1,241.6z M233.6,218.3c-1,0-2.1,0.1-3.1,0
			s-1.1,0.5-1.1,1.3s-0.2,1.5,1,1.5c1.9-0.1,3.8-0.1,5.7,0c1.1,0,1.6-0.2,1.6-1.5s-0.7-1.3-1.6-1.3S234.5,218.3,233.6,218.3
			L233.6,218.3z"/>
		<path id="Path_117" class="st2" d="M230,310c-6.7,0.2-12.9-5.8-12.8-13c0.1-7.1,5.8-12.8,12.9-12.8c7.1-0.1,13,5.5,13.1,12.6
			s-5.5,13-12.6,13.1C230.3,310,230.1,310,230,310L230,310z M220.7,297.2c-0.1,5.1,4,9.4,9.2,9.4c0,0,0.1,0,0.1,0
			c5.2,0.1,9.6-4,9.7-9.2c0.1-5.2-4-9.6-9.2-9.7c-0.2,0-0.3,0-0.5,0c-5.1,0-9.2,4.1-9.3,9.2C220.7,297,220.7,297.1,220.7,297.2
			L220.7,297.2z"/>
		<path id="Path_118" class="st7" d="M245,226h-13.9c-1.1,0-1.7-0.1-1.7-1.4c0-1.2,0.4-1.5,1.6-1.5c9.3,0,18.7,0,28,0
			c1.2,0,1.6,0.3,1.6,1.5c0,1.4-0.6,1.5-1.7,1.4C254.2,226,249.6,226,245,226z"/>
		<path id="Path_119" class="st7" d="M244.8,233.9c4.7,0,9.4,0,14.1,0c1.2,0,1.4,0.5,1.4,1.5s-0.3,1.4-1.4,1.4c-9.4,0-18.8,0-28.1,0
			c-1.2,0-1.3-0.5-1.3-1.4s0.1-1.5,1.3-1.5C235.4,233.9,240.1,233.9,244.8,233.9z"/>
		<path id="Path_120" class="st8" d="M237.3,212.1c2.9,0,5.8,0.1,8.7,0c1.4-0.1,1.5,0.7,1.4,1.7c0,0.9,0.1,1.8-1.4,1.8
			c-5.8-0.1-11.6-0.1-17.4,0c-1.6,0-1.2-0.9-1.3-1.8c-0.1-1,0-1.8,1.4-1.7C231.6,212.2,234.5,212.1,237.3,212.1z"/>
		<path id="Path_121" class="st7" d="M241.9,228.3c2.8,0,5.7,0.1,8.5,0c1.2,0,1.4,0.5,1.4,1.5s-0.1,1.5-1.3,1.4
			c-5.7-0.1-11.5-0.1-17.2,0c-1.2,0-1.3-0.4-1.3-1.4s0.2-1.6,1.4-1.5C236.2,228.4,239,228.3,241.9,228.3z"/>
		<path id="Path_122" class="st4" d="M234.2,209.6c-2.1,0-4.2-0.1-6.3,0c-1.3,0.1-1.3-0.6-1.2-1.5s-0.3-1.7,1.2-1.7
			c4.2,0.1,8.5,0.1,12.7,0c1.3,0,1.1,0.8,1.1,1.6s0.2,1.6-1.1,1.6C238.5,209.5,236.3,209.6,234.2,209.6z"/>
		<path id="Path_123" class="st4" d="M231.1,241.6c-0.9,0-1.9-0.1-2.8,0c-1.1,0.1-1.7-0.1-1.7-1.4s0.7-1.4,1.7-1.4
			c2,0,3.9,0.1,5.9,0c1.1,0,1.2,0.4,1.2,1.3s0,1.6-1.2,1.5C233.2,241.6,232.1,241.5,231.1,241.6z"/>
		<path id="Path_124" class="st4" d="M233.6,218.3h2.6c0.9,0,1.6-0.1,1.6,1.3s-0.5,1.5-1.6,1.5c-1.9-0.1-3.8-0.1-5.7,0
			c-1.3,0-1-0.8-1-1.5s0-1.4,1.1-1.3S232.6,218.3,233.6,218.3z"/>
		<path id="Path_125" class="st0" d="M220.7,297.2c-0.1-5.1,3.9-9.3,9-9.5c0.1,0,0.2,0,0.3,0c5.2-0.1,9.6,4,9.7,9.2
			c0.1,5.2-4,9.6-9.2,9.7c-0.2,0-0.3,0-0.5,0c-5.1,0-9.3-4.2-9.3-9.3C220.7,297.2,220.7,297.2,220.7,297.2L220.7,297.2z M230,289.2
			c-0.6,1.7-1.1,3.1-1.5,4.5c-0.1,0.6-0.6,1.1-1.3,1c0,0,0,0-0.1,0c-1.5,0-2.9,0-4.9,0c1.1,0.9,2.2,1.7,3.4,2.5
			c1.2,0.7,1.3,1.5,0.8,2.7c-0.6,1.1-0.9,2.3-0.9,3.5c1.3-0.9,2.5-1.6,3.5-2.5c0.6-0.5,1-0.4,1.6,0c1.2,1,2.4,1.8,3.8,2.5
			c-0.5-1.4-0.8-2.6-1.2-3.7s-0.4-1.8,0.8-2.5c1.2-0.6,2.3-1.5,3.2-2.5h-4.6c-0.6,0.1-1.2-0.3-1.4-1c0,0,0,0,0,0
			C231.2,292.2,230.6,290.9,230,289.2z"/>
		<path id="Path_126" class="st4" d="M230,289.2c0.6,1.7,1.1,3.1,1.5,4.5c0.1,0.6,0.7,1.1,1.3,1c0,0,0,0,0,0c1.4,0,2.9,0,4.6,0
			c-0.9,1-2,1.9-3.2,2.5c-1.2,0.7-1.2,1.4-0.8,2.5s0.7,2.3,1.2,3.7c-1.4-0.7-2.6-1.6-3.8-2.5c-0.6-0.4-1-0.5-1.6,0
			c-1.1,0.9-2.2,1.6-3.5,2.5c0-1.2,0.3-2.4,0.9-3.5c0.5-1.2,0.4-2-0.8-2.7c-1.2-0.8-2.3-1.6-3.4-2.5h4.9c0.6,0.1,1.2-0.3,1.3-0.9
			c0,0,0,0,0-0.1C228.9,292.2,229.5,290.9,230,289.2z"/>
	</g>
	<g id="Group_70" transform="translate(0 -21)">
		<g id="Group_68" transform="translate(-54 -320)">
			<g class="st9">
				<path class="st10" d="M889.6,1007.6h8c2.2,0,4,0.5,5.2,1.6c1.2,1.1,1.8,2.4,1.8,4c0,1.2-0.3,2.3-1,3.2c-0.7,0.9-1.7,1.5-3,1.8
					c1.3,0.2,2.4,0.8,3.2,1.7c0.8,0.9,1.2,2,1.2,3.2c0,2.6-1.3,4.4-3.8,5.3c-1,0.3-2.1,0.5-3.5,0.5h-8V1007.6z M892.3,1017.2h5.2
					c1.3,0,2.4-0.3,3.1-1c0.8-0.6,1.2-1.5,1.2-2.7s-0.4-2-1.1-2.7c-0.8-0.6-1.8-1-3.2-1h-5.2V1017.2z M897.6,1026.7
					c1.6,0,2.8-0.3,3.5-1c0.7-0.7,1.1-1.5,1.1-2.6s-0.4-2-1.2-2.6c-0.8-0.6-1.9-1-3.4-1h-5.3v7.2H897.6z"/>
				<path class="st10" d="M907.5,1033.7c1.1,0.9,2.3,1.3,3.5,1.3c0.9,0,1.7-0.5,2.3-1.4c0.5-0.7,0.9-1.7,1.3-3l0.5-1.7l-6.7-16.3h3
					l4.9,13l3.8-13h2.7l-6.1,19.5c-0.5,1.7-1.2,2.9-2.1,3.8s-1.9,1.3-3.2,1.3c-1.3,0-2.7-0.4-4.1-1.2V1033.7z"/>
			</g>
			<g class="st9">
				<path class="st10" d="M948.6,1025.5c-1,2.7-2.8,4-5.5,4c-2.8,0-5-1-6.8-3.1c-1.9-2.2-2.8-4.9-2.8-8.3c0-3.5,1-6.4,3-8.5
					c1.9-2.1,4.4-3.1,7.4-3.1c2.1,0,3.8,0.4,5.2,1.3s2.5,2.3,3.3,4.2l-4.1,1c-1.2-1.9-2.7-2.9-4.6-2.9c-1.7,0-3.1,0.7-4.2,2.1
					c-1.2,1.5-1.7,3.4-1.7,5.8c0,2.3,0.5,4.1,1.6,5.6c1,1.4,2.4,2.1,4.1,2.1c1.5,0,2.6-0.5,3.6-1.4c1-1,1.4-2.3,1.4-3.9v-0.1l-5-0.1
					v-2.6h8.8v11.4H949L948.6,1025.5z"/>
				<path class="st10" d="M964.5,1012c1.1,0,2.2,0.2,3.1,0.5c1,0.4,1.8,0.9,2.5,1.6c1.6,1.6,2.3,3.8,2.3,6.6c0,2.8-0.8,4.9-2.3,6.5
					c-1.4,1.5-3.3,2.2-5.6,2.2s-4.3-0.7-5.7-2.2c-1.6-1.6-2.3-3.7-2.3-6.5c0-2.8,0.8-5,2.3-6.6C960.3,1012.7,962.2,1012,964.5,1012z
					 M968.5,1020.7c0-1.7-0.3-3.1-1-3.9c-0.7-0.9-1.6-1.3-2.8-1.3c-1.2,0-2.2,0.4-3,1.3c-0.8,0.9-1.2,2.2-1.2,3.9s0.3,3.1,1,3.9
					c0.7,0.9,1.6,1.3,2.8,1.3c1.2,0,2.2-0.4,3-1.3C968.1,1023.8,968.5,1022.5,968.5,1020.7z"/>
				<path class="st10" d="M983.8,1012c1.1,0,2.2,0.2,3.1,0.5c1,0.4,1.8,0.9,2.5,1.6c1.6,1.6,2.3,3.8,2.3,6.6c0,2.8-0.8,4.9-2.3,6.5
					c-1.4,1.5-3.3,2.2-5.6,2.2s-4.3-0.7-5.7-2.2c-1.6-1.6-2.3-3.7-2.3-6.5c0-2.8,0.8-5,2.3-6.6C979.5,1012.7,981.4,1012,983.8,1012z
					 M987.8,1020.7c0-1.7-0.3-3.1-1-3.9c-0.7-0.9-1.6-1.3-2.8-1.3c-1.2,0-2.2,0.4-3,1.3c-0.8,0.9-1.2,2.2-1.2,3.9s0.3,3.1,1,3.9
					c0.7,0.9,1.6,1.3,2.8,1.3c1.2,0,2.2-0.4,3-1.3C987.4,1023.8,987.8,1022.5,987.8,1020.7z"/>
				<path class="st10" d="M998,1022.2c-1.3-1.1-2-2.6-2-4.2c0-1.8,0.7-3.2,2.1-4.4c1.4-1.1,2.9-1.6,4.7-1.6c1.8,0,3.2,0.3,4.4,1
					c0.1-1.3,0.7-2.3,1.7-3.1c1-0.8,2.1-1.2,3.4-1.2l-0.2,3.8c-1.9,0-3,0.6-3,1.9c0.8,1,1.3,2.1,1.3,3.2s-0.2,2-0.6,2.7
					c-0.4,0.7-0.9,1.4-1.6,1.9c-1.4,1.1-3,1.6-5,1.6c-1.1,0-2.1-0.2-3-0.5c-0.9,0.3-1.4,0.8-1.4,1.6c0,1,0.9,1.5,2.6,1.5h5.5
					c3.8,0,5.6,1.3,5.6,3.9c0,0.9-0.2,1.8-0.7,2.6c-0.4,0.9-1.1,1.6-1.9,2.3c-1.9,1.5-4.2,2.2-7,2.2c-2.7,0-4.9-0.6-6.6-1.7
					c-1.6-1.1-2.4-2.4-2.4-3.9c0-1,0.3-1.8,0.9-2.4c0.6-0.6,1.4-1,2.5-1.1c-1.3-0.8-2-1.8-2-3c0-0.8,0.2-1.5,0.7-2
					C996.5,1022.8,997.2,1022.5,998,1022.2z M1001,1029.4c-2.1,0.1-3.2,0.9-3.2,2.4c0,0.8,0.4,1.4,1.3,1.9s2,0.7,3.2,0.7
					s2.2-0.1,2.9-0.3c0.7-0.2,1.3-0.5,1.8-0.8c1-0.7,1.5-1.5,1.5-2.4c0-0.4-0.1-0.7-0.4-1c-0.3-0.3-0.7-0.4-1.2-0.4H1001z
					 M1006.2,1017.9c0-0.9-0.3-1.7-0.8-2.2c-0.5-0.6-1.3-0.9-2.3-0.9s-1.8,0.3-2.4,0.9c-0.5,0.6-0.8,1.3-0.8,2.2s0.3,1.7,0.8,2.3
					c0.5,0.6,1.3,0.9,2.4,0.9s1.8-0.3,2.3-0.9C1006,1019.6,1006.2,1018.9,1006.2,1017.9z"/>
				<path class="st10" d="M1016.3,1005.7h4v23.3h-4V1005.7z"/>
				<path class="st10" d="M1039.5,1017c0.3,1,0.4,1.8,0.4,2.6c0,0.8,0,1.5-0.1,2.1h-10.7c0,1.3,0.4,2.4,1,3.3
					c0.6,0.8,1.5,1.3,2.8,1.3c1.7,0,2.6-0.7,3-2.2h4c-0.3,1.7-1,3-2.3,3.9c-1.3,1-2.9,1.5-4.7,1.5c-2.2,0-4-0.8-5.5-2.4
					c-1.5-1.7-2.3-3.8-2.3-6.4c0-2.7,0.8-4.8,2.3-6.4c1.5-1.5,3.3-2.3,5.5-2.3c2.3,0,4.1,0.8,5.3,2.4
					C1038.7,1015.2,1039.2,1016,1039.5,1017z M1032.9,1015.2c-1.1,0-2,0.4-2.7,1.1c-0.6,0.7-1,1.7-1.1,2.8h7c0-1.8-0.6-3-1.7-3.6
					C1034,1015.3,1033.5,1015.2,1032.9,1015.2z"/>
			</g>
			<g class="st9">
				<path class="st10" d="M1059.3,1007.6c3.2,0,5.8,1,7.7,2.9c1.9,1.9,2.9,4.5,2.9,7.8c0,3.3-1,5.8-2.9,7.8
					c-1.9,1.9-4.5,2.9-7.7,2.9h-6.3v-21.4H1059.3z M1055.7,1026.7h3.6c2.4,0,4.3-0.8,5.7-2.4c1.4-1.6,2.1-3.6,2.1-6
					c0-2.4-0.7-4.4-2.1-6c-1.4-1.6-3.3-2.3-5.7-2.3h-3.6V1026.7z"/>
				<path class="st10" d="M1081.1,1027.2c2.2,0,3.5-1,3.8-3h2.8c-0.2,1.6-1,2.9-2.2,3.8c-1.2,0.9-2.7,1.3-4.4,1.3
					c-2.2,0-3.9-0.8-5.3-2.3c-1.4-1.6-2-3.6-2-6.2s0.7-4.6,2.1-6.2c1.4-1.5,3.2-2.3,5.5-2.3c2.3,0,4,0.9,5.1,2.7
					c1.1,1.8,1.5,3.9,1.2,6.5h-11.1c0,1.7,0.4,3.1,1.2,4.1C1078.5,1026.7,1079.6,1027.2,1081.1,1027.2z M1083.1,1014.9
					c-0.5-0.3-1.2-0.4-1.9-0.4c-1.4,0-2.5,0.5-3.3,1.4c-0.8,0.9-1.3,2.1-1.4,3.5h8.7C1085.2,1017.1,1084.5,1015.6,1083.1,1014.9z"/>
				<path class="st10" d="M1093.2,1012.7l4.9,13.4l4.9-13.4h3l-6.5,16.3h-3l-6.5-16.3H1093.2z"/>
				<path class="st10" d="M1115.7,1027.2c2.2,0,3.5-1,3.8-3h2.8c-0.2,1.6-1,2.9-2.2,3.8c-1.2,0.9-2.7,1.3-4.4,1.3
					c-2.2,0-3.9-0.8-5.3-2.3c-1.4-1.6-2-3.6-2-6.2s0.7-4.6,2.1-6.2s3.2-2.3,5.5-2.3c2.3,0,4,0.9,5.1,2.7c1.1,1.8,1.5,3.9,1.2,6.5
					h-11.1c0,1.7,0.4,3.1,1.2,4.1C1113.1,1026.7,1114.3,1027.2,1115.7,1027.2z M1117.7,1014.9c-0.5-0.3-1.2-0.4-1.9-0.4
					c-1.4,0-2.5,0.5-3.3,1.4c-0.8,0.9-1.3,2.1-1.4,3.5h8.7C1119.8,1017.1,1119.1,1015.6,1117.7,1014.9z"/>
				<path class="st10" d="M1127.6,1005.8h2.7v23.2h-2.7V1005.8z"/>
				<path class="st10" d="M1143,1012.3c2.3,0,4.1,0.7,5.5,2.2c1.4,1.5,2.1,3.6,2.1,6.3c0,2.7-0.7,4.8-2.1,6.3
					c-1.4,1.5-3.2,2.2-5.5,2.2c-2.3,0-4.1-0.7-5.5-2.2c-1.4-1.5-2.1-3.6-2.1-6.3c0-2.7,0.7-4.9,2.1-6.3
					C1138.9,1013.1,1140.7,1012.3,1143,1012.3z M1147.9,1020.9c0-1.9-0.4-3.5-1.2-4.6c-0.8-1.1-2-1.6-3.6-1.6
					c-1.6,0-2.8,0.5-3.6,1.6c-0.8,1.1-1.3,2.6-1.3,4.6c0,1.9,0.4,3.5,1.2,4.6c0.8,1.1,2,1.6,3.6,1.6s2.8-0.5,3.7-1.6
					S1147.9,1022.8,1147.9,1020.9z"/>
				<path class="st10" d="M1158.2,1015.2c1.1-1.9,2.7-2.9,4.8-2.9c2.1,0,3.9,0.8,5.3,2.3c1.4,1.6,2.1,3.6,2.1,6.2s-0.7,4.6-2.1,6.2
					c-1.4,1.6-3.2,2.3-5.3,2.3c-2.1,0-3.6-0.8-4.6-2.3v10h-2.7v-24.2h2.2L1158.2,1015.2z M1162.9,1027c1.3,0,2.4-0.5,3.3-1.6
					c1-1.1,1.4-2.6,1.4-4.5c0-1.9-0.5-3.4-1.4-4.5c-0.9-1.1-2-1.7-3.3-1.7s-2.4,0.4-3.2,1.2c-0.8,0.8-1.3,1.9-1.3,3.3v3.1
					c0,1.4,0.4,2.5,1.3,3.4C1160.6,1026.6,1161.6,1027,1162.9,1027z"/>
				<path class="st10" d="M1181.5,1027.2c2.2,0,3.5-1,3.8-3h2.8c-0.2,1.6-1,2.9-2.2,3.8c-1.2,0.9-2.7,1.3-4.4,1.3
					c-2.2,0-3.9-0.8-5.3-2.3c-1.4-1.6-2-3.6-2-6.2s0.7-4.6,2.1-6.2c1.4-1.5,3.2-2.3,5.5-2.3c2.3,0,4,0.9,5.1,2.7
					c1.1,1.8,1.5,3.9,1.2,6.5h-11.1c0,1.7,0.4,3.1,1.2,4.1C1178.9,1026.7,1180,1027.2,1181.5,1027.2z M1183.5,1014.9
					c-0.5-0.3-1.2-0.4-1.9-0.4c-1.4,0-2.5,0.5-3.3,1.4c-0.8,0.9-1.3,2.1-1.4,3.5h8.7C1185.6,1017.1,1184.9,1015.6,1183.5,1014.9z"/>
				<path class="st10" d="M1200.1,1015c-2.6,0-3.9,2-4,6.1v7.9h-2.7v-16.3h2.7v3.1c0.8-2.3,2.3-3.4,4.3-3.4c0.7,0,1.3,0.1,1.9,0.3
					l-0.1,2.6C1201.4,1015.1,1200.8,1015,1200.1,1015z"/>
				<path class="st10" d="M1207.2,1013.5c1.1-0.8,2.7-1.2,4.6-1.2s3.5,0.4,4.6,1.2c1.1,0.8,1.7,1.8,1.7,3.1h-2.6
					c-0.2-1.5-1.5-2.2-3.7-2.2c-1.1,0-2,0.2-2.6,0.7s-0.9,1-0.9,1.6c0,0.6,0.2,1.1,0.7,1.5c0.5,0.4,1.2,0.7,2.2,1l3.3,1.1
					c1.4,0.4,2.4,1,3.2,1.6c0.7,0.7,1.1,1.6,1.1,2.8c0,1.2-0.6,2.2-1.8,3.2c-1.2,0.9-2.9,1.4-5,1.4s-3.8-0.5-5-1.4
					c-1.2-1-1.8-2.2-1.9-3.7h2.6c0,1,0.5,1.8,1.2,2.3c0.8,0.5,1.8,0.8,2.9,0.8s2.2-0.2,2.9-0.7c0.8-0.5,1.2-1.1,1.2-1.8
					s-0.2-1.2-0.7-1.6c-0.5-0.4-1.2-0.7-2.2-1l-3.2-1.1c-2.8-0.8-4.2-2.3-4.2-4.4C1205.5,1015.4,1206.1,1014.3,1207.2,1013.5z"/>
			</g>
		</g>
		<g id="Group_69" transform="translate(-65 -320.315)">
			<path id="Path_160" class="st1" d="M857.2,1018.5c-1.3-2.5-2.6-4.9-4.2-7.2c-1.9-3.3-4-6.5-5.9-9.8c-1-1.6-0.7-2.2,1.2-2.2h7.5
				c1.5-0.1,2.9,0.7,3.6,2.1c2.4,4.2,5.2,8.2,7.3,12.6c0.6,1,1.3,2,2,3c0.7,1.1,0.8,2.5,0,3.6c-1.8,3-3.7,6-5.5,9.1
				C862.1,1025.4,859.3,1022.2,857.2,1018.5z"/>
			<path id="Path_161" class="st1" d="M831.8,1019.7c2.8,5.4,6.3,10.4,9.3,15.7c0.1,0.2,0.3,0.5,0.4,0.7c1,1.8,0.7,2.2-1.3,2.2
				c-2.3,0-4.6,0-7,0c-1.7,0.1-3.2-0.7-4-2.2c-3.1-5.1-6.1-10.2-9.2-15.4c-0.7-1.1-0.8-2.5-0.1-3.6c1.8-3.1,3.5-6.3,5.6-9.2
				c0,1,0.3,2.1,0.8,2.9c1.8,2.8,3.5,5.7,5.2,8.6C831.7,1019.6,831.8,1019.6,831.8,1019.7L831.8,1019.7z"/>
			<path id="Path_162" class="st0" d="M831.7,1019.6c-1.8-2.9-3.5-5.7-5.2-8.6c-0.6-0.9-0.9-1.9-0.8-2.9c1.2-2.4,2.6-4.8,4.1-7.1
				c0.7-1.1,1.9-1.7,3.3-1.7h7.5c1.9,0,2.2,0.5,1.2,2.2c-2.9,4.8-5.7,9.5-8.6,14.3C832.3,1016.9,831.8,1018.2,831.7,1019.6z"/>
			<path id="Path_163" class="st0" d="M857.2,1018.5c2.2,3.6,5,6.9,6.1,11.1c-1.3,2.2-2.6,4.3-3.9,6.5c-0.8,1.5-2.4,2.4-4,2.2
				c-2.3-0.1-4.6,0-7,0c-2,0-2.2-0.5-1.3-2.1c2.9-4.9,5.8-9.8,8.7-14.6C856.4,1020.6,856.5,1019.5,857.2,1018.5z"/>
		</g>
	</g>
</g>
</svg>
