<svg xmlns="http://www.w3.org/2000/svg" viewBox="0 0 413.5 485.114">
  <defs>
    <style>
      .cls-1 {
        fill: #0084f3;
      }

      .cls-2 {
        fill: #0cf;
      }

      .cls-3 {
        fill: #fff;
      }

      .cls-4 {
        fill: #7aeaff;
      }

      .cls-5 {
        fill: #fafcfe;
      }

      .cls-6 {
        fill: #d54137;
      }

      .cls-7 {
        fill: #417df8;
      }

      .cls-8 {
        fill: #fefefe;
      }

      .cls-9 {
        fill: #f1f1f1;
      }

      .cls-10 {
        fill: #333;
        font-size: 34px;
        font-family: Karla-Regular, Karla;
      }

      .cls-11 {
        font-family: Karla-Bold, Karla;
        font-weight: 700;
      }
    </style>
  </defs>
  <g id="Group_71" data-name="Group 71" transform="translate(-754 -212)">
    <g id="DSC_Logo-01" data-name="DSC Logo-01" transform="translate(704 164.14)">
      <path id="Path_1" data-name="Path 1" class="cls-1" d="M255.921,459.972C142.2,459.907,50,367.648,50,253.91S142.324,47.783,256.074,47.86c114.091.082,206.133,92.412,206.015,206.639C461.977,367.889,369.552,459.972,255.921,459.972ZM456.567,253.545a185.887,185.887,0,0,0-3.114-35.317c-6.528-35.958-21.59-67.955-45.665-95.408q-54.553-62.2-137.282-68.956a191.088,191.088,0,0,0-64.842,5.851C157.21,72.623,118.727,99.87,90.214,141.067a195.344,195.344,0,0,0-31.632,77.25,203.248,203.248,0,0,0,1.66,79.292q16.01,69.874,72.3,114.3c31.161,24.551,66.713,38.378,106.257,41.839a190.685,190.685,0,0,0,62.546-4.409c59.1-14.527,103.2-48.72,132.273-102.136a191.252,191.252,0,0,0,21.066-65.071,177.476,177.476,0,0,0,1.884-28.607Z" transform="translate(0 0)"/>
      <path id="Path_2" data-name="Path 2" class="cls-2" d="M59.278,257.554a191.73,191.73,0,0,1,3.12-35.482,195.167,195.167,0,0,1,31.632-77.25c28.512-41.2,67-68.444,115.451-81.352a191.088,191.088,0,0,1,64.842-5.851q82.594,6.622,137.282,68.95c24.074,27.453,39.137,59.45,45.665,95.408a185.884,185.884,0,0,1,3.114,35.317H382.162a10.47,10.47,0,0,0-1.525.224,130.322,130.322,0,0,0-1.707-19.724A120.758,120.758,0,0,0,276,138.054a115.385,115.385,0,0,0-46.377,2.749c-36.888,10.071-63.506,32.562-79.757,67.1a112.567,112.567,0,0,0-10.642,49.22c-.63.047-1.266.141-1.9.141l-75.861-.006A3.846,3.846,0,0,0,59.278,257.554Zm342.756-49.249c.077.082.153.165.235.241-2.042,5.557.035,10.006,5.368,10.848a12.608,12.608,0,0,0,11.225-3.9,6.61,6.61,0,0,0,1.813-4.933c-.065-3.155-1.66-5.3-4.509-6.834l5.439-1.9c3.3-1.136,3.255-1.124,2.119-4.5-.353-1.054-.748-1.3-1.831-.918-7.322,2.566-14.662,5.068-22,7.6-.371.129-1.042.436-1.018.518a20.014,20.014,0,0,0,1.177,3.779c.506,1.012,1.307-.182,1.978-.006Zm-297.685,7.452c-6.9-.047-10.413,2.661-11.772,8.623-.724,3.161-1.277,6.357-1.937,9.53-.182.854,0,1.213.954,1.389q11.437,2.178,22.832,4.468c1.177.235,1.654-.112,1.854-1.283.506-2.943,1.177-5.886,1.672-8.87.795-4.526-.165-8.405-4.267-11.072a18.977,18.977,0,0,0-9.335-2.784ZM242.619,86.262a16.057,16.057,0,0,0-6.251,1.289c-3.426,1.607-5.062,4.862-4.12,8.241s3.638,4.774,6.822,5.362c2.048.383,4.12.589,6.18.93,1.5.253,2.9.759,2.984,2.6a3.375,3.375,0,0,1-2.625,3.479c-3.155,1.077-6.475.73-7.852-2.831-.177-.465-.318-1.018-1.089-.753-1.33.459-2.861.3-4.044,1.218-.112.088,0,.553.094.818,1.054,3.261,3.073,5.621,6.528,6.322a15.439,15.439,0,0,0,9.671-1.177,7.507,7.507,0,0,0,4.55-7.864c-.259-3.32-2.225-5.639-5.7-6.628-1-.283-2.037-.441-3.061-.624a37.357,37.357,0,0,1-5.974-1.06c-1.577-.547-2.166-1.889-1.448-3.1,1.03-1.736,6.716-2.943,8.011-.347.865,1.736,1.925,1.766,3.408,1.348a6.305,6.305,0,0,1,1.536-.283c1.177,0,1.107-.589.848-1.472-1.018-3.5-4.056-5.486-8.47-5.451Zm142.874,56.725c-5.845,0-13,5.774-14.256,11.478-1.807,8.182,5.58,15.834,13.379,13.868,2.808-.706,2.825-.748,1.689-3.361a5.294,5.294,0,0,1-.341-.8c-.365-1.342-.877-1.836-2.413-1.107a5.044,5.044,0,0,1-6.069-1.177,5.5,5.5,0,0,1-1.213-6.386,14.4,14.4,0,0,1,8.57-7.434,5.434,5.434,0,0,1,5.71,1.672,4.918,4.918,0,0,1,1.371,5.58c-.665,1.56-.353,2.3.983,2.99a5.68,5.68,0,0,1,1.271.906c.959.918,1.489.777,2.113-.459,3.432-6.887-2.631-15.781-10.8-15.757Zm-80.128-27.718c-1.254,2.443.035,2.808,1.554,3.014a2.7,2.7,0,0,1,.665.2c1.177.553,1.666.13,1.99-1.112q2.6-10.1,5.356-20.148c.936-3.49.93-3.42-2.531-4.415-1.177-.336-1.513,0-1.766,1.024-.589,2.354-1.254,4.744-1.889,7.11l-.441.153a3.594,3.594,0,0,0-.3-.624c-3.738-4.709-10.006-4.12-12.885,1.177A15.551,15.551,0,0,0,293.3,108.3a7.92,7.92,0,0,0,6.11,8.388C301.41,117.141,303.164,116.446,305.366,115.269ZM177.425,136.035a12.726,12.726,0,0,1,1.389,0,7.017,7.017,0,0,0,7.87-7.581,12.361,12.361,0,0,0-6.475-10.295,7.14,7.14,0,0,0-8.523,1.177,9.419,9.419,0,0,0-2.278,4.709c-.812-2.472-2.013-1.942-3.3-.883a1.024,1.024,0,0,1-.294.182c-1.348.559-1.577,1.177-.695,2.572,3.708,5.739,7.281,11.566,10.889,17.376,1.972,3.179,1.931,3.131,5.115,1.177.989-.589.889-1.042.353-1.866C180.115,140.5,178.849,138.372,177.425,136.035Zm-9.577,5.886a10.415,10.415,0,0,0-10.006-10.048c-5.121,0-9.877,4.768-9.818,9.806.059,5.133,4.938,10.242,9.765,10.23a10.308,10.308,0,0,0,10.036-9.983Zm-50.621,71.352a7.717,7.717,0,0,0,6.857-4.326c1.619-3.008,2.307-6.069.336-9.212-1.383-2.213-1.572-2.2-2.943.029-.306.494-.589,1.007-.918,1.477a.883.883,0,0,0,.1,1.342,3.041,3.041,0,0,1,.241,4.25,4.067,4.067,0,0,1-4.326,1.5c-.806-.206-.995-.489-.642-1.307,1.007-2.354,1.913-4.709,2.867-7.063,1.625-4.014,1.63-4.014-2.819-4.768a8.629,8.629,0,0,0-10.059,10.277c.818,4.161,5.886,7.776,11.284,7.811Zm69.415-97.416a13.256,13.256,0,0,0,3.732,8.764A7.652,7.652,0,0,0,198.7,126.5c3.249-1.089,5.81-2.9,6.475-6.563.441-2.431.4-2.478-2.025-1.848-.559.147-1.107.347-1.678.441a1.012,1.012,0,0,0-.989,1.177,3.008,3.008,0,0,1-2.549,3.084,3.982,3.982,0,0,1-4.256-1.7c-.647-.83-.471-1.266.471-1.66,2.131-.9,4.232-1.884,6.357-2.814,4.415-1.937,4.485-2.243,1.342-6.122a8.082,8.082,0,0,0-9.377-2.613A8.182,8.182,0,0,0,186.642,115.857Zm-49.985,60.28c5.227.035,9.877-5.886,8.6-10.942-.241-.965-.453-2.249-1.283-2.531s-1.348,1.042-2.066,1.589a11.877,11.877,0,0,0-.865.853c-.424.383-.642.771-.294,1.348a3,3,0,0,1-.642,4.073,3.939,3.939,0,0,1-4.368.671c-.983-.377-1.26-.8-.524-1.766,1.454-1.872,2.808-3.832,4.2-5.757,2.684-3.7,2.572-4.044-1.766-5.715-.324-.124-.653-.241-.983-.341a8.627,8.627,0,0,0-10.672,10.006C126.969,172.094,132.013,176.1,136.657,176.137Zm196.6-62.016a8.581,8.581,0,0,0-14.963-5.916,13.185,13.185,0,0,0-3.031,5.98c-.759,3.532-.065,6.634,3.026,8.782s6.328,3.2,9.906,1.177c2.254-1.277,2.254-1.513.094-2.943-.483-.318-.977-.624-1.448-.959a.93.93,0,0,0-1.366.053,3.058,3.058,0,0,1-4.12.165,4.008,4.008,0,0,1-1.46-4.32c.218-.918.524-1.13,1.419-.706,2.143,1.012,4.332,1.931,6.475,2.908,4.285,1.931,4.709,1.707,5.386-3.084a9.888,9.888,0,0,0,.088-1.136ZM344.82,117.9c1.713-1.819.542-2.608-.895-3.314a1.931,1.931,0,0,1-.447-.271c-1.059-.959-1.672-.589-2.354.553-2.354,3.879-4.756,7.687-7.152,11.525-1.919,3.078-1.9,3.037,1.177,4.962.906.589,1.336.5,1.884-.43,1.413-2.4,2.943-4.709,4.415-7.063a10.225,10.225,0,0,1,2.084-2.549,3.85,3.85,0,0,1,4.674,0c1.236.959,1.542,2.4.589,4.061-1.831,3.155-3.8,6.239-5.7,9.353-.324.524-.906,1.112,0,1.566,1.242.589,2.154,1.872,3.7,1.848.071,0,.147-.171.206-.271,2.354-3.938,5.062-7.652,7.1-11.772a4.957,4.957,0,0,0-1.024-5.927c-2.2-2.354-4.921-3.049-8.246-2.272Zm-61.445-7.281c-.188,2.555-.188,2.555,2.172,2.808a4.585,4.585,0,0,1,.859.129c1.071.341,1.424-.124,1.542-1.177.553-4.774,1.177-9.536,1.736-14.3.383-3.261.353-3.19-2.972-3.532-1.413-.147-1.766.318-1.889,1.636a85.264,85.264,0,0,1-1.389,10.136,3.744,3.744,0,0,1-4.479,2.867c-1.8-.341-2.6-1.7-2.354-4,.306-2.7.665-5.4.93-8.105.359-3.6.33-3.532-3.326-4.038-.954-.129-1.177.1-1.3.989-.453,4.12-1.048,8.241-1.43,12.414a5.289,5.289,0,0,0,3.626,5.886C278.078,113.456,280.773,112.767,283.375,110.619ZM396.83,194.29c-1.96,1.477-1.96,1.477-.718,3.8a1.021,1.021,0,0,1,.088.153c.394,1.248,1.018,1.371,2.184.73,3.991-2.225,8.052-4.338,12.084-6.475,3.214-1.707,3.173-1.683,1.4-4.938-.53-.965-.959-.995-1.866-.5-2.89,1.583-5.8,3.137-8.776,4.568-2.413,1.177-4.45.53-5.509-1.513-.977-1.866-.412-3.131,2.231-4.621,2.978-1.672,6.01-3.249,9.012-4.874.453-.241,1.065-.465.553-1.13-.859-1.136-.83-2.872-2.354-3.532-.071-.029-.206.088-.306.141-3.85,2.131-7.893,3.92-11.566,6.339-2.749,1.813-3.343,4.468-1.954,7.458A7.979,7.979,0,0,0,396.83,194.29Zm8.829,35.953a13.838,13.838,0,0,0,1.766,6.81,6.21,6.21,0,0,0,6.345,3c2.407-.483,3.72-2.054,4.12-5.144.288-2.354.424-4.709.636-7.093.053-.589.235-1.177.93-1.295a1.283,1.283,0,0,1,1.5.924c.736,1.907,1.554,3.855-.347,5.6-.23.212-.412.447-.306.753.471,1.3.647,3.361,1.648,3.644,1.23.341,2.249-1.318,2.89-2.584a6.31,6.31,0,0,0,.653-3.025,17.223,17.223,0,0,0-1.048-5.615c-1.136-3.055-3.349-4.532-6.2-4.226-2.631.288-4.12,2.143-4.579,5.5-.283,2.019-.23,4.044-.4,6.069-.059.677-.188,1.424-1.03,1.642a1.6,1.6,0,0,1-1.6-.418c-1.283-1.236-2.031-5.439.041-6.587.8-.441.783-1.03.5-1.766a20.643,20.643,0,0,1-.871-2.455c-.294-1.177-.865-.983-1.6-.43a7.487,7.487,0,0,0-3.067,6.693ZM127.092,186.208c-3.579-.5-6.84-.995-10.112-1.407-3.067-.383-3.073-.336-4.521,2.354-1.024,1.9-1,1.9,1.254,2.125,4.9.483,9.806.959,14.715,1.507,4.05.453,2.89.7,4.709-2.419a1.641,1.641,0,0,0-.271-2.249c-3.043-3.5-6.016-7.063-9.018-10.6-1.024-1.213-2.078-2.4-3.22-3.72a30.808,30.808,0,0,1-1.6,2.943c-.771,1.107-.589,1.872.33,2.843C121.936,180.322,124.385,183.171,127.092,186.208ZM264.122,89.723h.047V87.292c0-.359-.1-.842-.547-.589a31.956,31.956,0,0,0-4.22,2.4c-.753.547-.194,1.636-.336,2.466-.088.5.271,1.424-.653,1.283-2.09-.318-1.672,1.089-1.766,2.243s-.065,2,1.454,1.854c.995-.094.859.677.848,1.318-.065,2.9-.188,5.786-.171,8.682,0,4.05,2.1,5.815,6.092,5.3,2.672-.353,2.855-.647,2.437-3.326-.141-.912-.465-1.177-1.366-.9-1.566.471-2.125-.318-2.1-1.8.047-2.431.147-4.868.047-7.293-.065-1.477.283-2.207,1.878-1.884,1.313.265,1.836-.306,1.619-1.6-.165-1.007.742-2.714-1.472-2.431-1.66.212-2.178-.506-1.907-2.042A9.384,9.384,0,0,0,264.122,89.723Zm106.021,34.964c-1.007-.177-1.7-.265-2.354-.418-2.078-.477-4-.589-5.062,1.807-.347.789-.9.542-1.366.059-.724-.759-1.26-.553-1.766.253a8.916,8.916,0,0,1-1.065,1.371c-.53.559-.5.995.183,1.354,1.177.624.706,1.289.112,2.037-1.766,2.231-3.532,4.456-5.221,6.734-2.407,3.22-1.966,5.451,1.419,7.652,2.437,1.6,2.643,1.525,4.15-1,.441-.742.506-1.065-.4-1.5-1.736-.842-1.8-1.313-.589-2.914,1.5-2,3.09-3.914,4.556-5.927.7-.959,1.26-1.177,2.172-.271.418.412,1.048,1.254,1.525.883a7.269,7.269,0,0,0,2.025-2.555c.365-.777-.636-1.112-1.177-1.436-1.083-.677-1.007-1.289-.241-2.178C368.082,127.418,369.024,126.105,370.143,124.687ZM151.049,162.529c.241-.218.459-.388.647-.589.388-.43.753-.883,1.136-1.318,1.56-1.766,1.554-1.766-.277-3.343q-7.5-6.475-14.968-13.008c-2.89-2.531-2.855-2.531-5.3.4-.589.665-.653,1.036.065,1.654,5.974,5.15,11.908,10.342,17.859,15.522C150.443,162.064,150.719,162.264,151.049,162.529Zm235.4,17.658c.4-.247.848-.512,1.283-.8q8.735-5.674,17.464-11.372c2.778-1.807,2.719-1.766.936-4.65-.671-1.089-1.118-1.248-2.237-.5-5.733,3.82-11.525,7.552-17.305,11.3-3.455,2.243-3.49,2.384-.842,5.545.182.2.3.477.7.465ZM210.817,103.5c-.294-2.143-1.436-2.213-2.972-1.483a6.428,6.428,0,0,1-1.148.388c-.73.2-1.06.53-.783,1.371q2.643,8,5.2,16.022c.235.718.589.777,1.283.589,3.873-.995,3.873-.995,2.631-4.768-.365-1.1-.759-2.19-1.059-3.308a38.754,38.754,0,0,1-1.13-4.709c-.312-2.172.789-3.667,2.731-3.579,1.566.077,1.907-.506,1.731-1.848a3.678,3.678,0,0,1,0-1.218c.271-1.413-.536-1.689-1.678-1.636C213.012,99.423,211.517,100.889,210.817,103.5Z" transform="translate(-3.816 -3.756)"/>
      <path id="Path_3" data-name="Path 3" class="cls-3" d="M380.637,397.361a10.461,10.461,0,0,1,1.525-.224h78.221a177.483,177.483,0,0,1-1.884,28.607,191.335,191.335,0,0,1-21.066,65.071c-29.072,53.428-73.176,87.621-132.279,102.148a190.686,190.686,0,0,1-62.546,4.409c-39.543-3.461-75.1-17.288-106.257-41.839q-56.236-44.3-72.294-114.3a192.1,192.1,0,0,1-4.78-43.81,3.683,3.683,0,0,1,2.2-.294h75.849c.63,0,1.266-.094,1.9-.141.253,3.232.065,6.475.341,9.706a134.207,134.207,0,0,0,2.184,15.557,116.258,116.258,0,0,0,13.085,34.728,119.312,119.312,0,0,0,22.073,28.112,132.991,132.991,0,0,0,14.792,11.99,120.953,120.953,0,0,0,25.481,13.308,123.717,123.717,0,0,0,39.531,7.858,88.756,88.756,0,0,0,9.188-.235c4.556-.288,9.07-.736,13.573-1.442A116.22,116.22,0,0,0,313.023,505.9a120.112,120.112,0,0,0,24.592-16.116A123.024,123.024,0,0,0,356.4,469.913,117.551,117.551,0,0,0,369.512,447.9a125.6,125.6,0,0,0,6.539-17.711A129.279,129.279,0,0,0,380.637,397.361ZM247.651,560.189a.7.7,0,0,1-.194-.177,8.741,8.741,0,0,1,1.33-3.72c2.9-4.75,5.751-9.524,8.611-14.292.989-1.654.706-2.184-1.177-2.2h-7.475a3.532,3.532,0,0,0-3.255,1.654,66.824,66.824,0,0,0-4.12,7.063c-2.084,2.943-3.8,6.086-5.609,9.182a3.426,3.426,0,0,0,.147,3.643c3.067,5.121,6.151,10.23,9.206,15.351a4.156,4.156,0,0,0,4.014,2.213c2.319-.065,4.638,0,6.957,0,2.037,0,2.307-.5,1.313-2.249-.141-.253-.306-.494-.447-.742-3.025-5.3-6.475-10.313-9.288-15.7Zm25.31-1.177c-.642.959-.765,2.125-1.377,3.126-2.943,4.844-5.839,9.742-8.723,14.633-.983,1.66-.718,2.1,1.26,2.113,2.319,0,4.638-.059,6.957,0a4.12,4.12,0,0,0,4.014-2.213c1.295-2.19,2.625-4.356,3.938-6.534,1.842-3.014,3.7-6.022,5.509-9.053a3.267,3.267,0,0,0-.035-3.626,34.462,34.462,0,0,1-2.019-3.014c-2.143-4.379-4.927-8.376-7.346-12.6a3.832,3.832,0,0,0-3.561-2.066H264.1c-1.913,0-2.2.547-1.218,2.184,1.96,3.284,3.973,6.534,5.886,9.83a69.6,69.6,0,0,1,4.22,7.21Zm25.828-1.725c-1-.135-2.537.377-4.12.306-1.112-.053-1.248.512-1.177,1.383a9.371,9.371,0,0,0,3.5,6.357c6.863,5.827,19.3,6.31,27.112,2.79.983-.441.736-.936.388-1.63-1.177-2.4-3.284-3.844-5.568-5.021-6.08-3.2-12.761-3.908-20.113-4.191Zm-117.723,1.63a20.251,20.251,0,0,0,12.184-3.8,8.593,8.593,0,0,0,3.043-4.532c.241-.895.141-1.507-1.107-1.807a50.327,50.327,0,0,0-21.643-.871c-3.19.63-6.269,1.683-8.57,4.191-1.354,1.477-1.307,1.678.359,2.666,4.662,2.749,9.736,3.926,15.769,4.144ZM124.2,504.341a9.671,9.671,0,0,0,5.974-2.019c.683-.547,1.007-.995.294-1.825-5.1-6.022-10.96-11.09-18.382-14.162a14.114,14.114,0,0,0-8.276-1.177c-1.377.283-1.948.718-1.26,2.26a30.4,30.4,0,0,0,9.536,12,21.9,21.9,0,0,0,12.149,4.921Zm13.809,21.608c5.98.077,9.018-1.177,10.825-3.532.589-.812.783-1.324-.253-2.06-6.6-4.656-13.679-8.164-21.779-9.259a12.719,12.719,0,0,0-8.241,1.336c-.789.453-1.03.883-.365,1.766,5.527,7.069,12.667,11.113,19.848,11.743Zm14.033,6.251c-.871,0-1.766-.065-2.608,0-3.237.294-6.416.848-9.059,2.943-1.513,1.213-1.525,1.554,0,2.714,6.6,4.962,13.968,7.334,22.232,6.092,3.879-.589,7.334-2.119,9.041-6.1.365-.848.377-1.283-.63-1.678a52.265,52.265,0,0,0-18.942-3.973ZM431.116,426.038c.359-1.489-.2-1.866-1.6-1.825a11.994,11.994,0,0,0-6.8,2.708c-6.869,5.068-11.184,12.037-14.615,19.683-.347.777-.118,1.083.589,1.419a9.177,9.177,0,0,0,8.788-.671C425.772,442.643,429.6,435.032,431.116,426.038Zm-26.805,51.8a11.726,11.726,0,0,0,7.434-2.29c7.175-4.885,11.184-11.772,12.6-20.266.182-1.095-.477-1.083-1.23-1.112-3.385-.153-6.151,1.4-8.711,3.308-5.821,4.344-10.006,10.054-13.344,16.416-1.4,2.661-.865,3.62,2.178,3.938a8.048,8.048,0,0,0,1.083.024ZM94.429,454.915c-1.731,0-1.966.2-1.766,1.766a28.244,28.244,0,0,0,5.827,13.509,22.166,22.166,0,0,0,9.8,7.781,9.1,9.1,0,0,0,7.7-.13c.689-.353,1.083-.665.63-1.566a52.6,52.6,0,0,0-12.779-16.887C101.045,457.034,98,455.192,94.429,454.915ZM335.49,557.97a30.473,30.473,0,0,0,16.1-4.12c1.383-.8,1.3-1.46.347-2.508a12.408,12.408,0,0,0-5.71-3.473c-8.329-2.537-16.652-1.825-24.969.159-.977.235-1.018.771-.824,1.507a8.829,8.829,0,0,0,3.638,5.133,19.153,19.153,0,0,0,11.413,3.3Zm75.3-73.824a10.674,10.674,0,0,0-3.573.589c-8.717,2.619-15.174,8.388-20.984,15.069-.624.718-.283,1.095.241,1.554,2.719,2.354,5.921,2.537,9.153,1.7,8.176-2.119,13.832-7.422,17.776-14.686C415.353,484.764,414.906,484.111,410.791,484.146ZM217.879,558.311a42.38,42.38,0,0,0-7.693.335,37.309,37.309,0,0,0-13.256,4.12,12.672,12.672,0,0,0-4.426,4.061c-.748,1.177-.783,1.766.73,2.354a29.676,29.676,0,0,0,7.7,1.813c6.369.589,12.467-.365,17.829-4.12,2.478-1.719,4.338-3.979,4.456-7.252.035-.959-.259-1.383-1.254-1.36-1.507.088-3.008.059-4.085.059ZM104.536,449.671a8.581,8.581,0,0,0,3.532-.795c.795-.306.989-.671.589-1.56-3.025-6.928-7.01-13.179-12.749-18.188a16.893,16.893,0,0,0-7.552-4.061c-2.413-.524-3.037.053-2.637,2.484A30.743,30.743,0,0,0,93.17,443.32C96.225,446.716,99.792,449.282,104.536,449.671ZM392.1,510.333a18.329,18.329,0,0,0-2.943,0c-7.793,1.295-14.668,4.709-21.043,9.247-.871.624-.783,1.077-.247,1.807a9.293,9.293,0,0,0,7.84,3.761c9.618,0,17.011-4.438,22.874-11.772.724-.906.436-1.354-.459-1.854a9.829,9.829,0,0,0-6.021-1.189Zm-32.568,33.039a14.372,14.372,0,0,0,3.791-.406,30.191,30.191,0,0,0,13.668-6.357c.7-.589.689-.995.082-1.625a10.519,10.519,0,0,0-4.921-2.772,29.3,29.3,0,0,0-10.495-.724,54.978,54.978,0,0,0-16.052,3.95c-.806.318-.8.748-.536,1.448a8.776,8.776,0,0,0,4.214,4.656c3.214,1.748,6.7,2.019,10.248,1.831ZM334.978,525.52a17.865,17.865,0,0,0-.324-3.461c-.094-.871-.324-1.012-1.177-.806-2.778.636-4.709,2.425-6.4,4.509-4.432,5.545-6.622,12.067-8.023,18.912-.153.724.124.965.859,1.136,2.943.706,5.362-.483,7.44-2.354,5.339-4.75,7.169-11.078,7.623-17.935ZM153.22,507.585a28.843,28.843,0,0,0-.748-7.3c-.73-3.337-1.7-6.6-4.521-8.923-.936-.771-1.477-.718-2.1.418a25.31,25.31,0,0,0-2.943,9.506c-.483,4.785-.071,9.465,2.56,13.691a8.241,8.241,0,0,0,4.744,3.82c1.03.294,1.766.412,2.031-1.142A59.992,59.992,0,0,0,153.22,507.585Zm7.34,7.94a15.092,15.092,0,0,0,.341,4.432c.789,4.4,2.313,8.476,5.574,11.684a8.411,8.411,0,0,0,6.027,2.643c1.012,0,1.36-.371,1.26-1.336-.135-1.377-.182-2.772-.365-4.12-.753-5.833-2.225-11.431-5.539-16.4a12.267,12.267,0,0,0-4.373-4.12c-1.283-.695-1.96-.447-2.237,1.024A22.513,22.513,0,0,0,160.56,515.525Zm135.452,40.126a9.829,9.829,0,0,0,5.845-1.854c6.693-4.762,9.694-11.513,10.413-19.477.077-.824-.247-1.112-1.083-1.107a9.523,9.523,0,0,0-5.839,2.354c-5.586,4.3-8.959,10.177-11.625,16.534-1.207,2.878-.877,3.355,2.3,3.532C296.135,555.657,296.253,555.668,296.012,555.651Zm-101.43-8.829c3.214,0,3.385-.165,2.867-2.613-.324-1.513-.624-3.043-1.089-4.515-1.736-5.486-4.026-10.689-8.194-14.833a9.842,9.842,0,0,0-4.391-2.667c-.589-.165-1.513-.512-1.654.783a25.723,25.723,0,0,0,4.915,18.753c2.031,2.719,4.585,4.874,7.546,5.068ZM138.958,480.9c.077-3.237-.3-6.345-2.4-9-.559-.706-1.007-.965-1.731-.13-5.339,6.163-8.029,13.167-6.575,21.367a8.235,8.235,0,0,0,4.55,6.392c.818.394,1.207.3,1.589-.524,2.649-5.81,4.5-11.76,4.568-18.159Zm65.73,55.247c.753,6.975,3.473,13,8.935,17.552,2.584,2.143,5.533,3.608,9.1,2.508.971-.294,1.4-.665.942-1.854a47.124,47.124,0,0,0-7.063-12.826c-2.578-3.226-5.374-6.239-9.636-7.263-2.3-.606-2.3-.6-2.278,1.831Zm184.289-47.913a26.052,26.052,0,0,0-6.787-17.123c-.877-.989-1.383-.818-2.084.112a12.679,12.679,0,0,0-2.266,7.487c-.2,6.286,1.477,12.19,3.926,17.911,1.177,2.714,1.978,2.843,4.179.73a7.364,7.364,0,0,0,1.177-1.483,13.161,13.161,0,0,0,1.854-7.634ZM130.258,453.962a8.923,8.923,0,0,0-.783-3.8c-.43-1.089-.942-1.389-2.019-.624-6.5,4.644-10.642,10.719-11.284,18.836a8.416,8.416,0,0,0,2.731,7.375c.724.636,1.236.712,1.931-.165a50.762,50.762,0,0,0,7.246-11.978A25.192,25.192,0,0,0,130.258,453.962Zm225.975,60.757a22.42,22.42,0,0,0-.683-6.351c-.33-1.383-.948-1.46-2.078-.918a12.666,12.666,0,0,0-5.345,5.5c-3.414,5.886-4.55,12.361-5.121,19.012-.147,1.707,1.036,1.578,2.013,1.483a9.125,9.125,0,0,0,6.4-3.738A23.357,23.357,0,0,0,356.233,514.719Zm17.788-11.184a25.446,25.446,0,0,0-2.943-12.455c-.677-1.33-1.319-1.265-2.3-.418a10.347,10.347,0,0,0-2.814,3.914c-3.1,7.464-2.672,15.127-1.224,22.838.153.812.636.918,1.407.724a8.4,8.4,0,0,0,5.162-3.82A18.924,18.924,0,0,0,374.021,503.535Zm34.234-64.159c-.906-8.547-5.4-14.762-12.6-19.218-.7-.436-1.065-.3-1.424.447a9.924,9.924,0,0,0-.589,6.3c1.43,7.5,5.445,13.65,10.419,19.271.653.742,1.083.53,1.66,0a8.576,8.576,0,0,0,2.513-6.8Zm-21.7,14.127a7.177,7.177,0,0,0,0,.871c.995,7.905,4.756,14.5,9.683,20.566.677.836,1.177.394,1.731-.088,2.437-2.237,3.061-5.145,2.678-8.241a24.8,24.8,0,0,0-8.582-15.787c-1.177-1.054-2.631-2.978-3.92-2.354C386.535,449.271,386.647,451.66,386.552,453.5ZM123.389,425.626a11.572,11.572,0,0,0-.494-3.591c-.43-1.366-1.077-1.53-2.272-.753-6.263,4.073-10.466,9.612-11.849,17.005-.589,3-.241,6.027,2.084,8.441.748.777,1.342,1.071,2.207,0a68.1,68.1,0,0,0,4.709-6.216C120.7,435.944,123.112,431.183,123.389,425.626Z" transform="translate(-3.815 -143.627)"/>
      <path id="Path_4" data-name="Path 4" class="cls-4" d="M436.508,313.365a128.953,128.953,0,0,1-4.585,32.8,125.6,125.6,0,0,1-6.539,17.711,117.554,117.554,0,0,1-13.114,22.014,123.02,123.02,0,0,1-18.783,19.872,120.11,120.11,0,0,1-24.592,16.128,116.221,116.221,0,0,1-33.551,10.672c-4.5.706-9.018,1.177-13.573,1.442a88.764,88.764,0,0,1-9.188.236,123.517,123.517,0,0,1-39.531-7.823,120.955,120.955,0,0,1-25.481-13.309,132.98,132.98,0,0,1-14.792-11.99A119.313,119.313,0,0,1,210.7,373.009a116.257,116.257,0,0,1-13.085-34.728,134.206,134.206,0,0,1-2.184-15.557c-.277-3.243-.088-6.475-.341-9.706a112.567,112.567,0,0,1,10.642-49.19c16.252-34.557,42.869-57.048,79.757-67.1a115.385,115.385,0,0,1,46.377-2.749A120.758,120.758,0,0,1,434.8,293.717,130.324,130.324,0,0,1,436.508,313.365ZM238.333,319.7v8.005L228,329.8c-7.063,1.424-14.091,2.943-21.19,4.232-2.46.453-1.289,1.9-1.213,3.1.088,1.371,1,1.536,2.1,1.3,4.709-.995,9.459-2.025,14.191-2.99,5.533-1.124,11.072-2.2,16.6-3.3q.589,3.355,1.177,6.7a4.809,4.809,0,0,0-2.184.459c-3.49,1.23-6.963,2.5-10.454,3.714q-8.341,2.943-16.7,5.81c-.542.188-1.13.265-1.242,1.018-.3,2.066,1.307,3.532,3.22,2.861l28.342-9.812,2.578,9.182c-2.943,1.589-5.886,3.167-8.829,4.78q-8.441,4.638-16.87,9.294c-.494.271-.83.559-.73,1.207.365,2.354,1.984,3.161,3.979,2.043,5.3-2.973,10.6-5.886,15.928-8.829,2.666-1.477,5.327-2.972,7.988-4.462q1.424,3.373,2.837,6.751c-.542.424-1.077.859-1.625,1.277l-20.1,15.3c-2.1,1.607-2.078,1.63-.447,3.679.689.859,1.248,1.271,2.4.359q7.322-5.8,14.827-11.372c2.3-1.7,4.356-3.755,6.952-5.062l4.915,8.576a2.307,2.307,0,0,1-.742,1.33c-5.38,5.721-10.725,11.466-16.146,17.146-.883.924-.977,1.43,0,2.354,2.072,1.966,2.025,2.019,3.938-.283.153-.177.324-.33.483-.5,4.25-4.485,8.517-8.959,12.738-13.467a35.758,35.758,0,0,0,2.2-2.861l6.881,8.606c-.265.447-.506.906-.789,1.342-3.591,5.521-7.152,11.06-10.807,16.54-.736,1.1-.665,1.766.453,2.354a6.752,6.752,0,0,1,1.307.854c.748.677,1.118.365,1.6-.371,3.779-5.81,7.6-11.59,11.407-17.382l7.652,6.751c-2.6,5.562-5.221,11.107-7.793,16.681-1.107,2.4-.924,2.666,1.8,3.691.8.3,1.177.212,1.589-.659q3.084-6.893,6.328-13.721c.53-1.118.795-2.449,1.948-3.208,3.149,2.013,6.4,3.844,9.694,5.6-.077.388-.124.789-.23,1.177-1.236,4.562-2.449,9.124-3.749,13.668-.336,1.177-.077,1.766,1.1,2a7.429,7.429,0,0,1,1.336.347c.989.418,1.424.159,1.66-.936.365-1.683,1.007-3.314,1.377-5,.706-3.2,2.143-6.222,2.354-9.541a88.274,88.274,0,0,0,14.609,3.908c.277,4.444-.3,8.87-.43,13.309-.053,1.719.494,2.143,1.9,2.254.4.029.806,0,1.213.047.777.059,1.136-.224,1.177-1.071.206-4.656.459-9.306.695-13.962a98.171,98.171,0,0,0,11.472-.206c.365,4.362.677,8.735,1.177,13.085.088.777-.182,2,.665,2.354a4.055,4.055,0,0,0,3.214-.212c.889-.394.589-1.218.518-1.831-.436-4.644-.93-9.282-1.413-13.921a103.172,103.172,0,0,0,12.561-3.5c1.277,4.662,2.59,9.312,3.832,13.986.789,2.972.736,2.943,3.691,2.125.971-.271,1.324-.665.936-1.731-.494-1.342-.795-2.761-1.177-4.15q-1.589-6-3.167-12.014a110.153,110.153,0,0,0,10.766-6.175c1.566,1.766,2.2,4.008,3.184,6.063,1.836,3.8,3.561,7.652,5.3,11.5.4.889.9,1.112,1.766.589a8.39,8.39,0,0,1,1.4-.695c1.095-.418,1.136-1.083.677-2.054-2.843-6.08-5.645-12.178-8.458-18.247l8.341-7.575c.765.318,1.018,1.089,1.419,1.7,3.461,5.256,6.94,10.5,10.307,15.816,1.236,1.954,2.107.359,3.084-.112s1.466-.989.642-2.225c-4.15-6.18-8.188-12.437-12.261-18.671L375,379.649a2.3,2.3,0,0,1,.771.33c2.808,2.914,5.727,5.733,8.347,8.829,1.766,2.113,3.961,3.867,5.621,6.116,1.307,1.766,1.536,1.642,3.532,0,1.024-.848,1.3-1.448.171-2.584-2.8-2.819-5.3-5.933-8.164-8.711-2.608-2.543-4.709-5.562-7.6-7.817l5.633-10.083a1.525,1.525,0,0,1,.93.412q8.829,6.781,17.717,13.538c2.537,1.942,2.484,1.925,4.438-.624.589-.759.524-1.177-.171-1.683q-10.477-7.929-20.943-15.893,1.377-3.5,2.766-7a11.774,11.774,0,0,1,1.436.589q10.854,6,21.685,12.025c.818.453,1.407.394,1.819-.524a6.475,6.475,0,0,1,.718-1.177c.771-1.024.589-1.589-.589-2.237-5.25-2.814-10.407-5.792-15.645-8.617a75.8,75.8,0,0,0-7.964-4.167l2.572-9.724c3.108,1.089,6.21,2.19,9.318,3.267q9.006,3.131,18.012,6.239c.542.188,1.048.465,1.5-.253,1.513-2.407,1.177-3.5-1.519-4.379-.877-.294-1.766-.589-2.631-.883q-11.878-4.085-23.751-8.194c.135-2.354.859-4.591.8-6.946,9.483,1.948,18.971,3.873,28.442,5.886,2.766.589,2.666.642,3.237-2.184.283-1.413-.294-1.719-1.483-1.948-6.616-1.3-13.214-2.7-19.825-4-3.449-.677-6.822-1.731-10.36-1.919v-8.347c2.6.088,5.18.077,7.781.265,7.364.542,14.745.8,22.12,1.107,2.437.106,2.825-.412,2.814-2.843,0-.954-.324-1.177-1.277-1.36a78.453,78.453,0,0,0-9.318-.553c-7.369-.353-14.715-.854-22.114-1.177v-9.388a130.829,130.829,0,0,0,13.026-1.383c5.992-.718,11.984-1.448,17.988-2.048,1.254-.129,1.589-.724,1.271-1.636s.412-2.755-1.636-2.59c-2.231.182-4.462.441-6.687.695-3.485.394-6.963.818-10.448,1.218L393.8,298.85v-9.736Q407.6,285.1,421.4,281.1c1.03-.294,1.548-.736,1.054-1.854a9.094,9.094,0,0,1-.483-1.483c-.247-.977-.677-1.23-1.766-.912-8.829,2.619-17.617,5.162-26.435,7.729v-8.347a5.885,5.885,0,0,0,1.177-.277c6.31-2.908,12.62-5.81,18.912-8.759,2.543-1.177,2.478-1.207,1.177-3.8-.512-1.03-.977-1.177-2.007-.671-4.056,1.984-8.111,3.991-12.261,5.757-2.354.989-4.426,2.578-7.063,2.872-.077-4.409-.171-8.829.029-13.226.859.141,1.407-.489,2-.895,3.19-2.172,6.339-4.409,9.518-6.592,2.125-1.46,2.066-1.389.753-3.532-.783-1.271-1.46-1.3-2.608-.489-3.2,2.254-6.475,4.415-9.706,6.616a17.988,17.988,0,0,0-4.874-10.424c.135-1.1,1.042-1.678,1.766-2.254,2.425-1.907,4.4-4.262,6.645-6.351.771-.718,1.483-1.4.312-2.384-.959-.806-1.707-2.4-3.237-.912-3.143,3.049-6.233,6.163-9.347,9.247-3.8-1.477-7.9-1.366-11.772-2.3a3.358,3.358,0,0,1,.995-1.766c3.184-4.167,6.41-8.305,9.618-12.455,1.218-1.572,1.112-1.6-.753-3.214-1.3-1.124-1.978-.494-2.749.512-2.584,3.39-5.227,6.74-7.752,10.177-1.46,1.984-3.332,3.685-4.256,6.045l-11.819-1.36a9.233,9.233,0,0,1,.412-1.13l11.554-21.779c.871-1.648.642-1.836-1.654-3.108-1.507-.836-1.766.218-2.225,1.136q-5.4,10.295-10.825,20.6c-.671,1.271-1.66,2.354-1.807,3.891l-10.077-.7a4,4,0,0,1,.341-1.854l8.759-26.652c1.018-3.1,1.012-3.055-2.225-3.879-.848-.218-1.083,0-1.336.777-2.943,9-5.951,17.976-8.9,26.976a13.85,13.85,0,0,0-1.177,4.32,45.79,45.79,0,0,1-6.957-.312c.124-.559.259-1.118.353-1.689q1.9-10.878,3.791-21.779c.459-2.666.977-5.3,1.348-8,.1-.742.589-1.8-.53-2.272-2.584-1.071-3.49-.43-3.938,2.354-1.042,6.534-2.2,13.05-3.3,19.571-.653,3.914-1.277,7.834-1.913,11.772l-7.982-.088c0-10.148-.088-20.29.041-30.431,0-1.825-1.589-3.055-1.177-4.856a.353.353,0,0,0-.194-.259,6.475,6.475,0,0,0-3.42-.035c-.848.23-.453,1.207-.453,1.842q-.041,16.864-.035,33.733l-8.676.106a12.52,12.52,0,0,0-.053-1.56q-2.413-14.186-4.838-28.383c-.182-1.065-.7-1.542-1.766-1.277a4.756,4.756,0,0,1-1.177.259c-1.342,0-1.636.518-1.383,1.854.842,4.4,1.513,8.829,2.272,13.256.918,5.327,1.866,10.642,2.8,15.963a48.461,48.461,0,0,1-7.334.324,8.736,8.736,0,0,0-.218-1.177c-2.943-8.888-5.886-17.753-8.729-26.67-.653-2.048-1.719-1.177-2.943-.924-1.413.336-1.825.906-1.307,2.407,2.778,8.088,5.456,16.21,8.158,24.327a5.3,5.3,0,0,1,.494,2.354l-10.418.836-10.854-20.766c-1.448-2.79-1.389-2.755-4.091-1.377-.965.494-1.095.9-.589,1.836q4.644,8.635,9.182,17.329c.589,1.112,1.424,2.143,1.442,3.49l-12.178,1.43a4.91,4.91,0,0,0-.506-1.266c-3.332-4.338-6.716-8.629-10.006-12.985-.653-.865-1.177-.706-1.872-.241-.43.288-.795.683-1.242.93-1.03.589-1.012,1.177-.312,2.06,1.448,1.766,2.884,3.591,4.22,5.462,1.63,2.278,3.726,4.226,4.9,6.834-3.826.824-7.864.989-11.148,3.532q-4.291-4.25-8.588-8.488a.877.877,0,0,0-1.371,0c-.5.483-.954,1.018-1.489,1.454-.83.677-.771,1.218,0,1.942,2.578,2.4,5.1,4.844,7.652,7.275a1.5,1.5,0,0,0,1.071.477,19.748,19.748,0,0,0-3.6,12.161,3.779,3.779,0,0,1-1.842-.906c-2.99-2.078-5.98-4.161-8.982-6.222-1.607-1.1-1.572-1.048-3.22,1.177-.924,1.248-.235,1.766.718,2.431,3.014,2.042,5.963,4.185,9.006,6.186,1.389.912,2.619,2.119,4.291,2.566l.035,12.873a2.755,2.755,0,0,1-1.483-.383c-5.974-2.767-11.961-5.5-17.923-8.294-2.5-1.177-2.413-1.177-3.673,1.177-.589,1.112-.536,1.689.683,2.249,5.415,2.466,10.748,5.1,16.2,7.47,2.048.895,3.891,2.3,6.169,2.661v8c-1.065-.253-2.137-.459-3.184-.765q-12.449-3.614-24.9-7.252c-.306-.088-.812-.424-.93-.077a8.7,8.7,0,0,0-.889,3.3c.077,1.177,1.118,1.048,1.831,1.26q6.54,1.96,13.108,3.832c4.98,1.424,9.971,2.819,14.957,4.232v9.742c-2.107-.3-4.232-.489-6.345-.753-7.935-1.007-15.893-1.954-23.839-2.737-2.972-.294-2.908-.3-3.284,2.6-.118.883-.1,1.177.889,1.3,3.532.388,7.063.895,10.6,1.336s7.063.865,10.63,1.26c3.773.418,7.558.789,11.337,1.177v9.047c-5.927.347-11.855.718-17.782,1.042-4.956.265-9.912.477-14.874.7-.547.029-1.1.059-1.089.789,0,1.148-.4,2.443.2,3.408.547.865,1.589-.247,2.419,0a1.176,1.176,0,0,0,.347,0c4.161,0,8.3-.53,12.437-.624C226.114,320.328,232.206,319.557,238.333,319.7Z" transform="translate(-59.686 -59.631)"/>
      <path id="Path_5" data-name="Path 5" class="cls-5" d="M126.218,326.72a18.977,18.977,0,0,1,9.324,2.784c4.12,2.666,5.062,6.545,4.267,11.072-.518,2.943-1.177,5.886-1.672,8.87-.2,1.177-.671,1.519-1.854,1.283q-11.4-2.284-22.832-4.468c-.93-.177-1.136-.536-.954-1.389.659-3.173,1.213-6.369,1.937-9.53C115.806,329.38,119.314,326.672,126.218,326.72Zm9.418,12.031c0-2.154-.683-3.567-2.219-4.462a17.5,17.5,0,0,0-9.518-2.237c-2.749.082-4.344,1.513-5.092,4.191-.424,1.5-.653,3.055-1.036,4.574-.182.718.141.918.742,1.036l14.992,2.943c.542.106,1.042.124,1.177-.63.312-1.931.671-3.867.948-5.415Z" transform="translate(-25.686 -114.719)"/>
      <path id="Path_6" data-name="Path 6" class="cls-5" d="M363.335,106.74c4.415-.035,7.452,1.954,8.494,5.492.259.877.336,1.46-.848,1.472a6.3,6.3,0,0,0-1.536.283c-1.483.412-2.543.388-3.408-1.348-1.295-2.6-6.981-1.389-8.011.347-.718,1.213-.129,2.555,1.448,3.1a37.359,37.359,0,0,0,5.974,1.06c1.024.182,2.06.341,3.061.624,3.473.989,5.439,3.308,5.7,6.628a7.524,7.524,0,0,1-4.55,7.864,15.439,15.439,0,0,1-9.671,1.177c-3.455-.7-5.474-3.061-6.528-6.322-.082-.265-.206-.73-.094-.818,1.177-.918,2.714-.759,4.044-1.218.771-.265.912.288,1.089.753,1.36,3.532,4.709,3.908,7.852,2.831a3.4,3.4,0,0,0,2.625-3.479c-.077-1.819-1.489-2.354-2.984-2.6-2.054-.341-4.12-.547-6.18-.93-3.184-.589-5.851-1.937-6.822-5.362s.671-6.645,4.12-8.241a16.057,16.057,0,0,1,6.228-1.318Z" transform="translate(-124.531 -24.222)"/>
      <path id="Path_7" data-name="Path 7" class="cls-5" d="M603.334,203.11c8.164,0,14.227,8.87,10.8,15.757-.624,1.236-1.177,1.377-2.113.459a5.68,5.68,0,0,0-1.271-.906c-1.336-.689-1.648-1.43-.983-2.99a4.949,4.949,0,0,0-1.371-5.58,5.478,5.478,0,0,0-5.71-1.672,14.4,14.4,0,0,0-8.57,7.434,5.47,5.47,0,0,0,1.213,6.4,5.054,5.054,0,0,0,6.069,1.177c1.536-.73,2.048-.235,2.413,1.107a5.287,5.287,0,0,0,.341.8c1.136,2.613,1.118,2.655-1.689,3.361-7.8,1.966-15.186-5.686-13.379-13.868C590.337,208.884,597.489,203.122,603.334,203.11Z" transform="translate(-221.656 -63.868)"/>
      <path id="Path_8" data-name="Path 8" class="cls-5" d="M468.918,140.22c-2.2,1.13-3.955,1.854-5.957,1.43a7.908,7.908,0,0,1-6.11-8.388,15.551,15.551,0,0,1,1.819-6.651c2.855-5.3,9.147-5.886,12.885-1.177a3.593,3.593,0,0,1,.3.624l.441-.153c.636-2.354,1.307-4.709,1.889-7.11.253-1.042.589-1.36,1.766-1.024,3.461.995,3.467.924,2.531,4.415-1.807,6.71-3.62,13.415-5.356,20.148-.324,1.242-.8,1.666-1.99,1.112a2.7,2.7,0,0,0-.665-.2C468.954,143.046,467.665,142.681,468.918,140.22Zm1.766-8.735c.059-2.849-.983-4.473-2.837-4.938a4.09,4.09,0,0,0-4.78,2.572,11.019,11.019,0,0,0-1.13,4.862,3.842,3.842,0,0,0,2.843,4.061,3.938,3.938,0,0,0,4.421-1.96,10.165,10.165,0,0,0,1.489-4.579Z" transform="translate(-167.369 -28.708)"/>
      <path id="Path_9" data-name="Path 9" class="cls-5" d="M639.4,305.623c-.671-.177-1.472,1.018-1.96,0a20.012,20.012,0,0,1-1.177-3.779,3.291,3.291,0,0,1,1.018-.518c7.334-2.537,14.674-5.039,22-7.6,1.083-.383,1.477-.135,1.831.918,1.136,3.379,1.177,3.367-2.119,4.5l-5.439,1.9c2.849,1.513,4.444,3.679,4.509,6.834a6.61,6.61,0,0,1-1.813,4.933,12.608,12.608,0,0,1-11.225,3.9c-5.333-.836-7.411-5.3-5.368-10.848.047-.106.088-.212.135-.324Zm7.2,6.2a10.177,10.177,0,0,0,5.6-2.113,3.626,3.626,0,0,0,1.43-4.12,3.814,3.814,0,0,0-3.738-2.837,9.559,9.559,0,0,0-6.357,2.413,3.808,3.808,0,0,0-1.048,4.444C643.117,311.256,644.536,311.839,646.6,311.821Z" transform="translate(-241.179 -101.074)"/>
      <path id="Path_10" data-name="Path 10" class="cls-5" d="M251.047,178.128c1.448,2.354,2.713,4.462,4.073,6.534.536.824.636,1.254-.353,1.866-3.184,1.972-3.143,2.019-5.115-1.177-3.608-5.81-7.181-11.637-10.889-17.376-.883-1.371-.653-2.013.695-2.572a1.024,1.024,0,0,0,.294-.182c1.283-1.06,2.484-1.589,3.3.883a9.824,9.824,0,0,1,2.278-4.709,7.14,7.14,0,0,1,8.523-1.177,12.361,12.361,0,0,1,6.475,10.295,7.007,7.007,0,0,1-7.87,7.581A12.718,12.718,0,0,0,251.047,178.128Zm4.42-7.281a8.829,8.829,0,0,0-4.173-6.328,3.751,3.751,0,0,0-5.651,3.332c-.059,2.425,2.313,6.016,4.556,6.91,2.613,1.036,5.215-.659,5.245-3.914Z" transform="translate(-77.438 -45.849)"/>
      <path id="Path_11" data-name="Path 11" class="cls-5" d="M229.83,194.28a10.305,10.305,0,0,1-10.065,10.006c-4.827,0-9.706-5.1-9.765-10.23-.059-5.039,4.709-9.789,9.818-9.806A10.392,10.392,0,0,1,229.83,194.28Zm-8.87,5.3a4.22,4.22,0,0,0,4.12-5.192,7.5,7.5,0,0,0-4.061-5.144,4.238,4.238,0,0,0-6.263,3.461c-.347,3.12,3.1,6.928,6.2,6.887Z" transform="translate(-65.821 -56.109)"/>
      <path id="Path_12" data-name="Path 12" class="cls-5" d="M149.65,309.752c-5.4-.035-10.466-3.649-11.313-7.823A8.629,8.629,0,0,1,148.4,291.653c4.45.753,4.444.753,2.819,4.768-.954,2.354-1.86,4.744-2.867,7.063-.353.818-.165,1.1.642,1.307a4.067,4.067,0,0,0,4.326-1.5,3.04,3.04,0,0,0-.241-4.25.883.883,0,0,1-.1-1.342c.336-.471.589-.983.918-1.477,1.377-2.231,1.566-2.243,2.943-.029,1.972,3.143,1.283,6.2-.336,9.212A7.717,7.717,0,0,1,149.65,309.752Zm-7.464-10.006a4.12,4.12,0,0,0,2.184,3.161c.665.388.906.1,1.13-.465.683-1.707,1.354-3.42,2.066-5.115.288-.689.153-1.012-.589-1.254a3.744,3.744,0,0,0-4.8,3.673Z" transform="translate(-36.262 -100.23)"/>
      <path id="Path_13" data-name="Path 13" class="cls-5" d="M275.66,151.009A8.252,8.252,0,0,1,281.475,143a8.082,8.082,0,0,1,9.377,2.613c3.143,3.879,3.073,4.185-1.342,6.122-2.125.93-4.226,1.913-6.357,2.814-.942.394-1.118.83-.471,1.66a3.978,3.978,0,0,0,4.256,1.7,3.008,3.008,0,0,0,2.549-3.084,1.012,1.012,0,0,1,.989-1.177,17.093,17.093,0,0,0,1.678-.441c2.425-.63,2.466-.589,2.025,1.848-.659,3.667-3.22,5.474-6.475,6.563a7.652,7.652,0,0,1-8.311-1.836A13.256,13.256,0,0,1,275.66,151.009Zm8.376-4.574a3.614,3.614,0,0,0-3.579,4.627c.218.889.512,1.177,1.413.753,1.248-.589,2.555-1.1,3.791-1.731.624-.318,1.766-.277,1.707-1.177a2.723,2.723,0,0,0-1.583-1.96,2.943,2.943,0,0,0-1.748-.5Z" transform="translate(-92.833 -38.908)"/>
      <path id="Path_14" data-name="Path 14" class="cls-5" d="M183.141,246.25c-4.644-.035-9.689-4.044-10.677-8.494a8.626,8.626,0,0,1,10.672-10.006c.33.1.659.218.983.341,4.35,1.672,4.462,2.019,1.766,5.715-1.389,1.925-2.743,3.885-4.2,5.757-.736.954-.459,1.377.524,1.766a3.919,3.919,0,0,0,4.368-.671,2.964,2.964,0,0,0,.642-4.073c-.347-.589-.129-.965.294-1.348.3-.277.547-.589.865-.853.718-.547,1.218-1.872,2.066-1.589s1.042,1.566,1.283,2.531C193.018,240.376,188.368,246.286,183.141,246.25Zm-6.71-11.125a4.415,4.415,0,0,0,1.319,2.943c.524.53.912.589,1.366-.077,1.054-1.507,2.137-3,3.226-4.479.353-.489.518-.889-.159-1.236a3.7,3.7,0,0,0-5.751,2.849Z" transform="translate(-50.299 -73.869)"/>
      <path id="Path_15" data-name="Path 15" class="cls-5" d="M511.984,147.9a9.907,9.907,0,0,1-.077,1.1c-.7,4.791-1.1,5.015-5.386,3.084-2.166-.977-4.356-1.9-6.475-2.908-.895-.424-1.177-.212-1.419.706a4.008,4.008,0,0,0,1.46,4.32,3.033,3.033,0,0,0,4.12-.165.93.93,0,0,1,1.366-.053c.471.336.965.642,1.448.959,2.16,1.442,2.16,1.678-.094,2.943-3.579,2.025-6.857.954-9.906-1.177s-3.785-5.3-3.025-8.782a13.185,13.185,0,0,1,3.02-5.945,8.605,8.605,0,0,1,14.968,5.916Zm-4.456-1.177a3.337,3.337,0,0,0-2.407-3.4c-1.719-.589-3.014.1-4.12,1.377-.677.783-.73,1.342.4,1.766,1.336.512,2.631,1.177,3.944,1.766,1.878.812,2.2.606,2.184-1.507Z" transform="translate(-182.54 -37.538)"/>
      <path id="Path_16" data-name="Path 16" class="cls-5" d="M535.912,157.592a8.019,8.019,0,0,1,8.282,2.29,4.94,4.94,0,0,1,1.024,5.927c-2.037,4.12-4.768,7.811-7.1,11.772-.059.1-.135.271-.206.271-1.542,0-2.454-1.248-3.7-1.848-.93-.453-.347-1.042,0-1.566,1.9-3.114,3.867-6.2,5.7-9.353.959-1.666.653-3.1-.589-4.061a3.85,3.85,0,0,0-4.674,0,10.224,10.224,0,0,0-2.084,2.549c-1.489,2.354-3,4.709-4.415,7.063-.547.93-.977.995-1.884.43-3.1-1.925-3.114-1.884-1.177-4.962,2.4-3.838,4.827-7.652,7.152-11.525.689-1.148,1.3-1.513,2.354-.553a1.93,1.93,0,0,0,.447.271C536.454,154.961,537.625,155.773,535.912,157.592Z" transform="translate(-194.902 -43.449)"/>
      <path id="Path_17" data-name="Path 17" class="cls-5" d="M431.683,135.8c-2.578,2.148-5.3,2.837-8.241,1.725a5.282,5.282,0,0,1-3.626-5.886c.383-4.12.977-8.276,1.43-12.414.1-.889.347-1.118,1.3-.989,3.655.489,3.685.441,3.326,4.038-.265,2.708-.624,5.4-.93,8.105-.265,2.3.536,3.661,2.354,4a3.744,3.744,0,0,0,4.479-2.867,85.264,85.264,0,0,0,1.389-10.136c.141-1.318.477-1.766,1.889-1.636,3.326.341,3.355.271,2.972,3.532-.589,4.768-1.177,9.53-1.736,14.3-.118,1.03-.471,1.5-1.542,1.177a4.584,4.584,0,0,0-.859-.13C431.471,138.355,431.471,138.355,431.683,135.8Z" transform="translate(-152.124 -28.938)"/>
      <path id="Path_18" data-name="Path 18" class="cls-5" d="M628.386,277.424a8.031,8.031,0,0,1-5.521-4.409c-1.389-2.99-.795-5.645,1.954-7.458,3.673-2.419,7.717-4.209,11.566-6.339.1-.053.235-.171.306-.141,1.542.659,1.513,2.4,2.354,3.532.512.665-.1.889-.553,1.13-3,1.625-6.033,3.2-9.012,4.874-2.643,1.489-3.208,2.755-2.231,4.621,1.059,2.043,3.1,2.678,5.509,1.513,2.943-1.43,5.886-2.984,8.776-4.568.906-.494,1.336-.465,1.866.5,1.766,3.255,1.819,3.232-1.4,4.938-4.032,2.148-8.093,4.262-12.084,6.475-1.177.642-1.766.518-2.184-.73a1.028,1.028,0,0,0-.088-.153C626.426,278.9,626.426,278.9,628.386,277.424Z" transform="translate(-235.372 -86.89)"/>
      <path id="Path_19" data-name="Path 19" class="cls-5" d="M647.692,345.555a7.487,7.487,0,0,1,3.043-6.669c.73-.553,1.3-.765,1.6.43a20.632,20.632,0,0,0,.871,2.455c.282.724.3,1.313-.5,1.766-2.072,1.148-1.324,5.351-.041,6.587a1.6,1.6,0,0,0,1.6.418c.842-.218.971-.965,1.03-1.642.171-2.025.118-4.05.4-6.069.471-3.355,1.948-5.209,4.579-5.5,2.855-.306,5.068,1.177,6.2,4.226a17.223,17.223,0,0,1,1.048,5.615,6.311,6.311,0,0,1-.653,3.026c-.642,1.266-1.66,2.943-2.89,2.584-1-.283-1.177-2.354-1.648-3.643-.106-.306.077-.542.306-.753,1.9-1.766,1.083-3.7.347-5.6a1.283,1.283,0,0,0-1.5-.924c-.695.13-.877.689-.93,1.295-.212,2.354-.347,4.738-.636,7.093-.377,3.09-1.689,4.662-4.12,5.144a6.21,6.21,0,0,1-6.351-3.02A13.838,13.838,0,0,1,647.692,345.555Z" transform="translate(-245.872 -119.069)"/>
      <path id="Path_20" data-name="Path 20" class="cls-5" d="M163.812,266.449c-2.708-3.037-5.156-5.886-7.728-8.623-.912-.971-1.1-1.736-.33-2.843a30.808,30.808,0,0,0,1.6-2.943c1.142,1.318,2.2,2.507,3.22,3.72,3,3.532,5.974,7.11,9.018,10.6a1.641,1.641,0,0,1,.271,2.249c-1.836,3.12-.677,2.872-4.709,2.419-4.9-.547-9.8-1.024-14.715-1.507-2.254-.224-2.278-.23-1.254-2.125,1.448-2.69,1.454-2.737,4.521-2.354C156.973,265.454,160.234,265.949,163.812,266.449Z" transform="translate(-40.536 -83.997)"/>
      <path id="Path_21" data-name="Path 21" class="cls-5" d="M402.069,110.421c-.029.406-.029.812-.094,1.213-.271,1.536.247,2.254,1.907,2.042,2.213-.283,1.307,1.424,1.472,2.431.218,1.289-.306,1.86-1.619,1.6-1.6-.324-1.942.406-1.878,1.884.1,2.425,0,4.862-.047,7.293,0,1.477.536,2.266,2.1,1.8.9-.271,1.224,0,1.366.9.418,2.678.235,2.973-2.437,3.326-3.991.53-6.074-1.236-6.092-5.3,0-2.9.106-5.786.171-8.682,0-.642.147-1.413-.848-1.318-1.519.141-1.513-.783-1.454-1.854s-.347-2.56,1.766-2.243c.924.141.589-.783.653-1.283.141-.83-.418-1.919.336-2.466a31.955,31.955,0,0,1,4.22-2.4c.447-.224.542.259.547.589v2.431Z" transform="translate(-141.763 -24.454)"/>
      <path id="Path_22" data-name="Path 22" class="cls-5" d="M574.784,171.527c-1.118,1.442-2.06,2.755-3.108,3.967-.765.889-.842,1.5.241,2.178.518.324,1.519.659,1.177,1.436a7.269,7.269,0,0,1-2.025,2.555c-.477.371-1.107-.471-1.525-.883-.912-.889-1.471-.689-2.172.271-1.466,2.013-3.061,3.932-4.556,5.927-1.177,1.6-1.142,2.072.589,2.914.906.436.842.759.4,1.5-1.507,2.525-1.713,2.6-4.15,1-3.385-2.219-3.826-4.45-1.419-7.652,1.7-2.278,3.461-4.5,5.221-6.734.589-.748,1.065-1.413-.112-2.037-.683-.359-.712-.795-.182-1.354a8.913,8.913,0,0,0,1.065-1.371c.512-.806,1.048-1.012,1.766-.253.465.483,1.018.73,1.366-.059,1.065-2.4,2.984-2.284,5.062-1.807C573.089,171.238,573.778,171.326,574.784,171.527Z" transform="translate(-208.458 -50.596)"/>
      <path id="Path_23" data-name="Path 23" class="cls-5" d="M201.745,222.225c-.33-.265-.589-.465-.865-.689-5.951-5.18-11.884-10.371-17.859-15.522-.718-.618-.63-.989-.065-1.654,2.472-2.943,2.437-2.943,5.3-.4q7.464,6.528,14.968,13.008c1.831,1.589,1.836,1.577.277,3.343-.383.436-.748.889-1.136,1.318A4.017,4.017,0,0,1,201.745,222.225Z" transform="translate(-54.512 -63.452)"/>
      <path id="Path_24" data-name="Path 24" class="cls-5" d="M613.307,253.831c-.4,0-.518-.265-.7-.483-2.649-3.161-2.613-3.3.842-5.545,5.78-3.744,11.572-7.475,17.305-11.3,1.118-.748,1.566-.589,2.237.5,1.766,2.872,1.842,2.843-.936,4.65q-8.735,5.692-17.464,11.372C614.154,253.319,613.707,253.584,613.307,253.831Z" transform="translate(-230.675 -77.418)"/>
      <path id="Path_25" data-name="Path 25" class="cls-5" d="M313.235,133.067c.7-2.608,2.2-4.073,4.827-4.191,1.142-.053,1.948.224,1.678,1.636a3.678,3.678,0,0,0,0,1.218c.177,1.342-.165,1.925-1.731,1.848-1.942-.088-3.043,1.407-2.731,3.579a38.767,38.767,0,0,0,1.13,4.709c.3,1.118.695,2.207,1.059,3.308,1.224,3.785,1.224,3.785-2.649,4.785-.7.182-1.048.124-1.283-.589q-2.578-8.023-5.2-16.022c-.277-.842.053-1.177.783-1.371a6.427,6.427,0,0,0,1.148-.388C311.8,130.854,312.941,130.924,313.235,133.067Z" transform="translate(-106.234 -33.326)"/>
      <path id="Path_26" data-name="Path 26" class="cls-2" d="M414.938,658.818a76.536,76.536,0,0,0-4.167-7.187c-1.942-3.3-3.956-6.545-5.886-9.83-.983-1.636-.695-2.16,1.218-2.184h7.481a3.832,3.832,0,0,1,3.561,2.066c2.419,4.22,5.2,8.241,7.346,12.6a34.483,34.483,0,0,0,2.019,3.014,3.267,3.267,0,0,1,.035,3.626c-1.813,3.031-3.667,6.039-5.5,9.053C419.894,665.74,417.116,662.45,414.938,658.818Z" transform="translate(-145.768 -243.44)"/>
      <path id="Path_27" data-name="Path 27" class="cls-2" d="M370.684,666.052c2.837,5.386,6.263,10.424,9.288,15.7.141.247.306.489.447.742.995,1.766.724,2.231-1.313,2.249-2.319,0-4.638-.047-6.957,0a4.156,4.156,0,0,1-4.014-2.213c-3.055-5.121-6.139-10.23-9.206-15.351a3.426,3.426,0,0,1-.147-3.643c1.807-3.1,3.532-6.251,5.609-9.182a5.3,5.3,0,0,0,.842,2.943c1.766,2.843,3.5,5.709,5.25,8.564a.7.7,0,0,0,.194.177Z" transform="translate(-126.842 -249.502)"/>
      <path id="Path_28" data-name="Path 28" class="cls-2" d="M462.541,669.295c7.352.283,14.033,1.012,20.178,4.185a11.77,11.77,0,0,1,5.568,5.021c.347.695.589,1.177-.388,1.63-7.811,3.532-20.248,3.037-27.112-2.79a9.371,9.371,0,0,1-3.5-6.357c-.088-.871.047-1.436,1.177-1.383C460,669.7,461.54,669.159,462.541,669.295Z" transform="translate(-167.542 -255.641)"/>
      <path id="Path_29" data-name="Path 29" class="cls-2" d="M254.333,663.824c-6.039-.218-11.107-1.4-15.734-4.15-1.666-.989-1.713-1.177-.359-2.666,2.3-2.508,5.38-3.532,8.57-4.191a50.328,50.328,0,0,1,21.643.871c1.248.3,1.348.912,1.107,1.807a8.593,8.593,0,0,1-3.043,4.532A20.252,20.252,0,0,1,254.333,663.824Z" transform="translate(-77.045 -248.54)"/>
      <path id="Path_30" data-name="Path 30" class="cls-2" d="M154.293,565.82a22.074,22.074,0,0,1-12.167-4.909,30.4,30.4,0,0,1-9.5-11.984c-.689-1.542-.118-1.978,1.26-2.26a13.931,13.931,0,0,1,8.276,1.177c7.4,3.043,13.261,8.141,18.4,14.156.712.83.388,1.277-.294,1.825A9.671,9.671,0,0,1,154.293,565.82Z" transform="translate(-33.871 -205.112)"/>
      <path id="Path_31" data-name="Path 31" class="cls-2" d="M178.987,605.56c-7.181-.589-14.321-4.674-19.807-11.772-.665-.865-.424-1.295.365-1.766a12.719,12.719,0,0,1,8.241-1.336c8.093,1.095,15.174,4.6,21.779,9.259,1.036.736.865,1.248.253,2.06C188,604.413,184.967,605.637,178.987,605.56Z" transform="translate(-44.756 -223.244)"/>
      <path id="Path_32" data-name="Path 32" class="cls-2" d="M207.992,626.675a51.652,51.652,0,0,1,18.989,4c1.007.394.995.83.63,1.678-1.707,3.985-5.162,5.515-9.041,6.1-8.241,1.242-15.628-1.13-22.232-6.092-1.536-1.177-1.525-1.5,0-2.714,2.643-2.113,5.821-2.666,9.059-2.943A23.87,23.87,0,0,1,207.992,626.675Z" transform="translate(-59.729 -238.108)"/>
      <path id="Path_33" data-name="Path 33" class="cls-2" d="M674.8,445.063c-1.524,8.994-5.356,16.6-13.632,21.314a9.177,9.177,0,0,1-8.788.671c-.718-.336-.948-.642-.589-1.419,3.42-7.652,7.746-14.615,14.615-19.683a11.994,11.994,0,0,1,6.8-2.708C674.614,443.2,675.173,443.573,674.8,445.063Z" transform="translate(-247.501 -162.652)"/>
      <path id="Path_34" data-name="Path 34" class="cls-2" d="M642.7,517.825a8.034,8.034,0,0,1-1.071,0c-3.043-.318-3.579-1.277-2.178-3.938,3.349-6.363,7.522-12.072,13.344-16.416,2.56-1.913,5.3-3.461,8.711-3.308.753,0,1.413,0,1.23,1.112-1.442,8.476-5.427,15.38-12.6,20.266a11.725,11.725,0,0,1-7.434,2.284Z" transform="translate(-242.188 -183.599)"/>
      <path id="Path_35" data-name="Path 35" class="cls-2" d="M117.722,495.4c3.6.277,6.64,2.137,9.418,4.468a52,52,0,0,1,12.8,16.917c.453.9.059,1.213-.63,1.566a9.074,9.074,0,0,1-7.7.13,22.166,22.166,0,0,1-9.8-7.781,28.245,28.245,0,0,1-5.827-13.509C115.732,495.6,115.956,495.406,117.722,495.4Z" transform="translate(-27.108 -184.112)"/>
      <path id="Path_36" data-name="Path 36" class="cls-2" d="M517.969,662.3a19.153,19.153,0,0,1-11.413-3.273,8.829,8.829,0,0,1-3.62-5.133c-.194-.736-.153-1.271.824-1.507,8.317-1.984,16.64-2.7,24.969-.159a12.407,12.407,0,0,1,5.71,3.473c.954,1.048,1.036,1.707-.347,2.508A30.472,30.472,0,0,1,517.969,662.3Z" transform="translate(-186.293 -247.959)"/>
      <path id="Path_37" data-name="Path 37" class="cls-2" d="M639.072,545.06c4.12,0,4.562.618,2.613,4.214-3.944,7.264-9.6,12.567-17.776,14.686-3.232.836-6.434.659-9.153-1.7-.524-.459-.865-.836-.241-1.554,5.81-6.681,12.267-12.449,20.984-15.068A10.672,10.672,0,0,1,639.072,545.06Z" transform="translate(-232.096 -204.541)"/>
      <path id="Path_38" data-name="Path 38" class="cls-2" d="M310.644,671.055h4.085c.995,0,1.289.4,1.254,1.36-.118,3.273-1.978,5.533-4.456,7.252-5.362,3.732-11.46,4.662-17.829,4.12a29.676,29.676,0,0,1-7.7-1.813c-1.513-.553-1.477-1.177-.73-2.354a12.672,12.672,0,0,1,4.426-4.061,36.378,36.378,0,0,1,13.256-4.12A42.387,42.387,0,0,1,310.644,671.055Z" transform="translate(-96.579 -256.359)"/>
      <path id="Path_39" data-name="Path 39" class="cls-2" d="M122.952,469.17c-4.744-.388-8.311-2.943-11.348-6.351a30.744,30.744,0,0,1-7.452-15.769c-.4-2.431.224-3.008,2.637-2.484a16.893,16.893,0,0,1,7.552,4.061c5.739,5.009,9.724,11.26,12.749,18.188.388.889.194,1.254-.589,1.56a8.583,8.583,0,0,1-3.549.795Z" transform="translate(-22.231 -163.126)"/>
      <path id="Path_40" data-name="Path 40" class="cls-2" d="M607.491,589.5a9.83,9.83,0,0,1,6.01,1.177c.895.5,1.177.948.459,1.854-5.886,7.358-13.256,11.819-22.873,11.772a9.277,9.277,0,0,1-7.84-3.761c-.536-.73-.624-1.177.247-1.807,6.375-4.556,13.25-7.952,21.043-9.247A18.32,18.32,0,0,1,607.491,589.5Z" transform="translate(-219.204 -222.792)"/>
      <path id="Path_41" data-name="Path 41" class="cls-2" d="M559.171,637.269c-3.532.182-7.034-.082-10.248-1.831a8.777,8.777,0,0,1-4.215-4.656c-.265-.7-.271-1.13.536-1.448a54.982,54.982,0,0,1,16.051-3.95,29.705,29.705,0,0,1,10.495.724,10.519,10.519,0,0,1,4.921,2.772c.589.63.589,1.048-.082,1.625a30.19,30.19,0,0,1-13.668,6.363A14.367,14.367,0,0,1,559.171,637.269Z" transform="translate(-203.451 -237.524)"/>
      <path id="Path_42" data-name="Path 42" class="cls-2" d="M516.493,612.321c-.453,6.869-2.284,13.185-7.652,17.953-2.078,1.854-4.468,3.043-7.44,2.354-.736-.171-1.012-.412-.859-1.136,1.4-6.846,3.591-13.367,8.023-18.912a11.555,11.555,0,0,1,6.4-4.509c.877-.206,1.107-.065,1.177.806a17.871,17.871,0,0,1,.353,3.443Z" transform="translate(-185.33 -230.429)"/>
      <path id="Path_43" data-name="Path 43" class="cls-2" d="M211.55,573.18a59.992,59.992,0,0,1-.977,10.065c-.247,1.554-1,1.436-2.031,1.142a8.241,8.241,0,0,1-4.744-3.82c-2.631-4.226-3.043-8.906-2.56-13.691a25.31,25.31,0,0,1,2.943-9.506c.589-1.136,1.177-1.177,2.1-.418,2.819,2.319,3.791,5.586,4.521,8.923a28.842,28.842,0,0,1,.753,7.3Z" transform="translate(-62.145 -209.223)"/>
      <path id="Path_44" data-name="Path 44" class="cls-2" d="M231.324,593.038a22.923,22.923,0,0,1,.689-6.233c.277-1.472.954-1.719,2.237-1.024a12.267,12.267,0,0,1,4.373,4.12c3.314,4.974,4.785,10.6,5.539,16.4.182,1.371.23,2.766.365,4.12.1.965-.247,1.336-1.26,1.336a8.411,8.411,0,0,1-6.027-2.643c-3.261-3.208-4.785-7.287-5.574-11.684a15.092,15.092,0,0,1-.341-4.4Z" transform="translate(-74.578 -221.141)"/>
      <path id="Path_45" data-name="Path 45" class="cls-2" d="M459.4,650.87h0c-3.178-.2-3.532-.677-2.3-3.532,2.666-6.357,6.039-12.237,11.625-16.534a9.705,9.705,0,0,1,5.839-2.354c.836,0,1.177.282,1.083,1.107-.718,7.964-3.72,14.715-10.413,19.477A9.829,9.829,0,0,1,459.4,650.87Z" transform="translate(-167.205 -238.847)"/>
      <path id="Path_46" data-name="Path 46" class="cls-2" d="M280.3,634.174c-2.943-.194-5.515-2.354-7.546-5.092a25.722,25.722,0,0,1-4.9-18.747c.141-1.295,1.042-.948,1.654-.783a9.841,9.841,0,0,1,4.391,2.666c4.167,4.12,6.475,9.347,8.194,14.833.465,1.471.765,3,1.089,4.515C283.681,634.009,283.51,634.2,280.3,634.174Z" transform="translate(-89.53 -231.003)"/>
      <path id="Path_47" data-name="Path 47" class="cls-2" d="M186.894,532.7c-.065,6.4-1.919,12.361-4.568,18.106-.383.824-.771.918-1.589.524a8.235,8.235,0,0,1-4.55-6.392c-1.454-8.2,1.236-15.2,6.575-21.367.724-.836,1.177-.589,1.731.13C186.593,526.356,186.97,529.494,186.894,532.7Z" transform="translate(-51.751 -195.485)"/>
      <path id="Path_48" data-name="Path 48" class="cls-2" d="M306.32,631.785c0-2.431,0-2.437,2.272-1.884,4.262,1.024,7.063,4.038,9.636,7.264a47.124,47.124,0,0,1,7.063,12.826c.453,1.177.029,1.56-.942,1.854-3.567,1.1-6.516-.365-9.1-2.508C309.793,644.788,307.073,638.76,306.32,631.785Z" transform="translate(-105.447 -239.321)"/>
      <path id="Path_49" data-name="Path 49" class="cls-2" d="M611.62,539.579a13.162,13.162,0,0,1-1.848,7.652,7.369,7.369,0,0,1-1.177,1.483c-2.2,2.113-3.014,1.984-4.179-.73-2.449-5.721-4.12-11.625-3.926-17.911a12.679,12.679,0,0,1,2.266-7.487c.7-.93,1.177-1.1,2.084-.112A26.052,26.052,0,0,1,611.62,539.579Z" transform="translate(-226.458 -194.975)"/>
      <path id="Path_50" data-name="Path 50" class="cls-2" d="M170,490.38a25.192,25.192,0,0,1-2.178,9.63,50.761,50.761,0,0,1-7.246,11.978c-.695.877-1.207.8-1.931.165a8.432,8.432,0,0,1-2.731-7.375c.642-8.1,4.78-14.174,11.284-18.836,1.077-.765,1.589-.465,2.019.624A8.924,8.924,0,0,1,170,490.38Z" transform="translate(-43.557 -180.046)"/>
      <path id="Path_51" data-name="Path 51" class="cls-2" d="M554.527,591.7a23.348,23.348,0,0,1-4.815,14.992,9.125,9.125,0,0,1-6.4,3.738c-.977.094-2.16.224-2.013-1.483.589-6.645,1.707-13.138,5.121-19.012a12.7,12.7,0,0,1,5.345-5.5c1.13-.542,1.766-.465,2.078.918A22.42,22.42,0,0,1,554.527,591.7Z" transform="translate(-202.11 -220.61)"/>
      <path id="Path_52" data-name="Path 52" class="cls-2" d="M586.726,568.562a18.289,18.289,0,0,1-2.731,10.783,8.4,8.4,0,0,1-5.162,3.82c-.771.194-1.254.088-1.407-.724-1.448-7.711-1.878-15.375,1.224-22.838a10.347,10.347,0,0,1,2.778-3.932c.983-.848,1.625-.912,2.3.418A25.447,25.447,0,0,1,586.726,568.562Z" transform="translate(-216.52 -208.655)"/>
      <path id="Path_53" data-name="Path 53" class="cls-2" d="M641.723,455.4c.035,2.637-.547,4.974-2.549,6.8-.589.524-1.007.736-1.66,0-4.974-5.621-8.988-11.772-10.418-19.271a9.923,9.923,0,0,1,.589-6.3c.359-.747.724-.883,1.424-.447C636.348,440.614,640.816,446.83,641.723,455.4Z" transform="translate(-237.301 -159.651)"/>
      <path id="Path_54" data-name="Path 54" class="cls-2" d="M615.283,489.4c.094-1.854,0-4.244,1.6-5.033,1.289-.63,2.743,1.295,3.92,2.354A24.889,24.889,0,0,1,629.38,502.5c.383,3.1-.241,6.01-2.678,8.241-.524.483-1.054.924-1.73.088-4.927-6.063-8.688-12.661-9.683-20.566A7.177,7.177,0,0,1,615.283,489.4Z" transform="translate(-232.545 -179.521)"/>
      <path id="Path_55" data-name="Path 55" class="cls-2" d="M157.833,442.288c-.277,5.557-2.69,10.318-5.592,14.892a68.107,68.107,0,0,1-4.709,6.216c-.865,1.065-1.46.771-2.207,0-2.325-2.413-2.649-5.439-2.084-8.441,1.383-7.393,5.586-12.949,11.849-17.005,1.177-.777,1.842-.589,2.272.753A11.572,11.572,0,0,1,157.833,442.288Z" transform="translate(-38.259 -160.29)"/>
      <path id="Path_56" data-name="Path 56" class="cls-1" d="M374.742,659.858c-1.766-2.855-3.485-5.721-5.25-8.564a5.3,5.3,0,0,1-.842-2.943,68.122,68.122,0,0,1,4.12-7.063,3.532,3.532,0,0,1,3.255-1.654H383.5c1.9,0,2.184.547,1.177,2.2-2.861,4.768-5.715,9.541-8.611,14.292A8.742,8.742,0,0,0,374.742,659.858Z" transform="translate(-131.088 -243.444)"/>
      <path id="Path_57" data-name="Path 57" class="cls-1" d="M414.9,672.24c2.178,3.632,4.956,6.934,6.075,11.148-1.319,2.178-2.649,4.344-3.944,6.534a4.121,4.121,0,0,1-4.014,2.213c-2.319-.082-4.638,0-6.957,0-1.978,0-2.243-.453-1.26-2.113,2.884-4.891,5.757-9.789,8.723-14.633C414.137,674.365,414.261,673.2,414.9,672.24Z" transform="translate(-145.732 -256.861)"/>
      <path id="Path_58" data-name="Path 58" class="cls-6" d="M379.32,674.23Z" transform="translate(-135.478 -257.68)"/>
      <path id="Path_59" data-name="Path 59" class="cls-1" d="M423.862,331.716V358.18c.059,2.354-.665,4.615-.8,6.946l-.924,4.2-2.572,9.724-1.442,4.12q-1.389,3.5-2.766,7c-.659,1.4-1.313,2.808-1.972,4.209l-5.633,10.083-2.666,3.855-5.333,6.881-3.19,3.5-8.341,7.575-3.85,2.867a110.138,110.138,0,0,1-10.766,6.175l-4.12,1.766a103.184,103.184,0,0,1-12.567,3.532l-4.12.518a98.17,98.17,0,0,1-11.472.206l-4.544-.589a88.274,88.274,0,0,1-14.609-3.908,20.018,20.018,0,0,0-3.838-1.719c-3.3-1.766-6.545-3.591-9.694-5.6l-3.867-2.784-7.652-6.751-3.167-3.337-6.881-8.606-2.455-3.708-4.915-8.576q-.995-2.1-2.007-4.185-1.424-3.373-2.837-6.751a19.14,19.14,0,0,0-1.436-4.02l-2.578-9.182c-.33-1.348-.653-2.7-.983-4.05l-1.177-6.7c-.065-1.477-.129-2.943-.2-4.438V303.5l-.035-12.873c0-1.766,0-3.49.029-5.233a19.748,19.748,0,0,1,3.6-12.161l2.725-2.672c3.284-2.537,7.322-2.7,11.148-3.532a22.762,22.762,0,0,0,4.833-.795l12.178-1.43,4.909-.512,10.418-.836a16.646,16.646,0,0,0,4.521-.312,48.451,48.451,0,0,0,7.358-.3l4.173-.112,8.676-.106h5.262l7.982.088,4.185.047a45.786,45.786,0,0,0,6.957.312l4.544.312,10.077.7,4.544.394,11.819,1.36,4.9.718c3.9.93,8,.818,11.772,2.3l3.85,2.655a17.988,17.988,0,0,1,4.874,10.424l.041,4.874c-.2,4.409-.106,8.829-.029,13.226l.035,4.88v22.62Q423.85,329.626,423.862,331.716Zm-7.346-10.6h-.041V284.568c0-6.292-1.931-8.723-8.064-9.777a350.281,350.281,0,0,0-49.661-4.709,415.777,415.777,0,0,0-47.984,1.33q-14.215,1.254-28.253,3.626a7.217,7.217,0,0,0-4.744,2.943,10.542,10.542,0,0,0-1.931,6.551q.035,36.729.041,73.459a13.614,13.614,0,0,0,.112,2.078,108.211,108.211,0,0,0,4.385,18.218c5.668,16.711,14.574,31.267,28.554,42.38,10.124,8.017,21.573,12.832,34.581,13.426,15.828.718,29.584-4.709,41.6-14.715C398.445,408.235,407,393.9,412.3,377.521c2.225-6.881,4.244-13.85,4.232-21.19Q416.507,338.664,416.516,321.121Z" transform="translate(-89.867 -88.353)"/>
      <path id="Path_60" data-name="Path 60" class="cls-2" d="M400.353,237.6h-5.262q0-16.864.035-33.733c0-.636-.394-1.613.453-1.842a6.475,6.475,0,0,1,3.42.035.353.353,0,0,1,.194.259c-.389,1.8,1.224,3.031,1.177,4.856C400.265,217.308,400.347,227.45,400.353,237.6Z" transform="translate(-141.942 -63.333)"/>
      <path id="Path_61" data-name="Path 61" class="cls-2" d="M421.815,238.915l-4.185-.047c.636-3.92,1.26-7.84,1.913-11.772,1.095-6.522,2.254-13.038,3.3-19.571.447-2.778,1.354-3.42,3.938-2.354,1.136.471.63,1.53.53,2.272-.371,2.678-.889,5.333-1.348,8l-3.791,21.779A16.333,16.333,0,0,1,421.815,238.915Z" transform="translate(-151.238 -64.515)"/>
      <path id="Path_62" data-name="Path 62" class="cls-2" d="M244.878,400.69v4.532c-6.127-.147-12.22.624-18.347.771-4.12.094-8.276.589-12.437.624a1.176,1.176,0,0,1-.347,0c-.83-.23-1.872.883-2.419,0-.589-.965-.177-2.26-.2-3.408,0-.73.542-.759,1.089-.789,4.962-.224,9.918-.436,14.874-.7C233.024,401.408,238.951,401.037,244.878,400.69Z" transform="translate(-66.237 -145.15)"/>
      <path id="Path_63" data-name="Path 63" class="cls-2" d="M245.116,375.687v4.185c-3.779-.394-7.564-.765-11.337-1.177-3.532-.394-7.063-.824-10.63-1.26s-7.063-.948-10.6-1.336c-.989-.106-1.007-.418-.889-1.3.377-2.9.312-2.89,3.284-2.6,7.964.783,15.893,1.731,23.839,2.737C240.884,375.2,243.038,375.386,245.116,375.687Z" transform="translate(-66.486 -133.378)"/>
      <path id="Path_64" data-name="Path 64" class="cls-2" d="M245.456,422c.071,1.477.135,2.943.2,4.438-5.533,1.1-11.072,2.172-16.6,3.3-4.709.965-9.459,2-14.191,2.99-1.1.235-2.013.071-2.1-1.3-.077-1.177-1.248-2.643,1.213-3.1,7.063-1.3,14.127-2.808,21.19-4.232Z" transform="translate(-66.815 -153.916)"/>
      <path id="Path_65" data-name="Path 65" class="cls-2" d="M441.1,241.211l-4.544-.312a14.012,14.012,0,0,1,1.177-4.32c2.943-9,5.951-17.976,8.9-26.976.253-.765.489-.995,1.336-.777,3.237.824,3.243.783,2.225,3.879l-8.759,26.652a4,4,0,0,0-.336,1.854Z" transform="translate(-159.026 -66.187)"/>
      <path id="Path_66" data-name="Path 66" class="cls-2" d="M532.46,400.488V395.95c7.375.3,14.715.8,22.114,1.177a78.439,78.439,0,0,1,9.318.553c.954.159,1.271.406,1.277,1.36,0,2.431-.377,2.943-2.814,2.843-7.375-.306-14.757-.589-22.12-1.107C537.64,400.565,535.056,400.577,532.46,400.488Z" transform="translate(-198.477 -143.2)"/>
      <path id="Path_67" data-name="Path 67" class="cls-2" d="M249.451,440.909c.33,1.348.653,2.7.983,4.05l-28.342,9.812a2.418,2.418,0,0,1-3.22-2.861c.112-.753.7-.83,1.242-1.018q8.352-2.9,16.7-5.81c3.49-1.218,6.963-2.484,10.454-3.714A4.809,4.809,0,0,1,249.451,440.909Z" transform="translate(-69.456 -161.694)"/>
      <path id="Path_68" data-name="Path 68" class="cls-2" d="M532.48,374.641V370.45l13.538-1.554c3.485-.4,6.963-.824,10.448-1.218,2.225-.253,4.456-.512,6.687-.695,2.048-.165,1.307,1.642,1.636,2.59s0,1.507-1.271,1.636c-6,.589-12,1.33-17.988,2.048C541.168,373.775,536.859,374.558,532.48,374.641Z" transform="translate(-198.486 -131.278)"/>
      <path id="Path_69" data-name="Path 69" class="cls-2" d="M532.48,422.071V417.88c3.532.188,6.91,1.242,10.36,1.919,6.61,1.3,13.208,2.7,19.825,4,1.177.23,1.766.536,1.483,1.948-.589,2.825-.471,2.766-3.237,2.184C551.451,425.92,541.963,424,532.48,422.071Z" transform="translate(-198.486 -152.221)"/>
      <path id="Path_70" data-name="Path 70" class="cls-2" d="M373.874,240.91l-4.173.112c-.93-5.3-1.878-10.636-2.8-15.963-.759-4.415-1.43-8.829-2.272-13.256-.253-1.336.041-1.86,1.383-1.854a4.756,4.756,0,0,0,1.177-.259c1.089-.265,1.607.212,1.766,1.277q2.413,14.2,4.838,28.383a12.521,12.521,0,0,1,.077,1.56Z" transform="translate(-129.402 -66.545)"/>
      <path id="Path_71" data-name="Path 71" class="cls-2" d="M247.638,348.237v4.532c-4.986-1.413-9.977-2.808-14.957-4.232q-6.551-1.9-13.114-3.832c-.712-.212-1.766-.147-1.831-1.26a9.268,9.268,0,0,1,.889-3.3c.118-.347.624,0,.93.077q12.449,3.62,24.9,7.252C245.5,347.755,246.573,347.961,247.638,348.237Z" transform="translate(-69.003 -120.179)"/>
      <path id="Path_72" data-name="Path 72" class="cls-2" d="M351.483,243.119a17.379,17.379,0,0,1-4.521.312,5.3,5.3,0,0,0-.494-2.354c-2.7-8.117-5.38-16.24-8.158-24.327-.518-1.5-.106-2.072,1.307-2.407,1.177-.283,2.266-1.124,2.943.924,2.831,8.917,5.815,17.782,8.729,26.67A8.735,8.735,0,0,1,351.483,243.119Z" transform="translate(-118.518 -68.319)"/>
      <path id="Path_73" data-name="Path 73" class="cls-2" d="M529.55,440.963l.924-4.2q11.878,4.12,23.75,8.194c.871.306,1.766.589,2.631.883,2.672.883,3.031,1.972,1.519,4.379-.447.718-.954.441-1.5.253l-18.012-6.239C535.76,443.152,532.658,442.052,529.55,440.963Z" transform="translate(-197.28 -159.988)"/>
      <path id="Path_74" data-name="Path 74" class="cls-2" d="M258.4,463.39a19.141,19.141,0,0,1,1.436,4.02c-2.66,1.489-5.3,2.984-7.987,4.462-5.3,2.943-10.63,5.886-15.928,8.829-2,1.118-3.614.312-3.979-2.042-.1-.647.235-.936.73-1.207q8.441-4.644,16.87-9.294C252.48,466.557,255.441,464.979,258.4,463.39Z" transform="translate(-74.839 -170.943)"/>
      <path id="Path_75" data-name="Path 75" class="cls-2" d="M267.844,481.69q1.006,2.1,2.007,4.185c-2.6,1.307-4.65,3.361-6.952,5.062q-7.5,5.562-14.827,11.372c-1.148.912-1.707.5-2.4-.359-1.63-2.048-1.648-2.072.447-3.679q10.042-7.652,20.1-15.3C266.767,482.549,267.3,482.114,267.844,481.69Z" transform="translate(-80.014 -178.472)"/>
      <path id="Path_76" data-name="Path 76" class="cls-2" d="M532.45,347.676v-4.538c8.829-2.566,17.658-5.109,26.435-7.729,1.071-.318,1.5-.065,1.766.912a9.1,9.1,0,0,0,.483,1.483c.494,1.118,0,1.56-1.054,1.854Q546.247,343.644,532.45,347.676Z" transform="translate(-198.473 -118.241)"/>
      <path id="Path_77" data-name="Path 77" class="cls-2" d="M465.944,247.36l-4.544-.394c.147-1.507,1.136-2.619,1.807-3.891q5.421-10.289,10.825-20.6c.477-.918.718-1.972,2.225-1.136,2.3,1.271,2.525,1.46,1.654,3.108q-5.757,10.9-11.554,21.779A9.236,9.236,0,0,0,465.944,247.36Z" transform="translate(-169.244 -71.241)"/>
      <path id="Path_78" data-name="Path 78" class="cls-2" d="M522.73,464.56l1.442-4.12a75.828,75.828,0,0,1,7.964,4.167c5.239,2.825,10.395,5.8,15.645,8.617,1.177.647,1.377,1.213.589,2.237a6.477,6.477,0,0,0-.718,1.177c-.412.918-1,.977-1.819.524Q535,471.129,524.149,465.137a11.772,11.772,0,0,0-1.419-.577Z" transform="translate(-194.475 -169.73)"/>
      <path id="Path_79" data-name="Path 79" class="cls-2" d="M514.68,483.539c.659-1.4,1.313-2.808,1.972-4.209q10.471,7.94,20.943,15.893c.695.524.748.924.171,1.683-1.954,2.549-1.9,2.566-4.438.624q-8.829-6.793-17.717-13.538a1.524,1.524,0,0,0-.93-.453Z" transform="translate(-191.163 -177.501)"/>
      <path id="Path_80" data-name="Path 80" class="cls-2" d="M283.627,503.37l2.454,3.708a35.758,35.758,0,0,1-2.2,2.861c-4.22,4.509-8.488,8.982-12.738,13.467-.159.171-.33.324-.483.5-1.913,2.3-1.866,2.249-3.938.283-.965-.912-.871-1.419,0-2.354,5.421-5.68,10.766-11.425,16.146-17.146A2.307,2.307,0,0,0,283.627,503.37Z" transform="translate(-88.876 -187.391)"/>
      <path id="Path_81" data-name="Path 81" class="cls-2" d="M324.4,249.366l-4.909.512c0-1.348-.859-2.354-1.442-3.49q-4.515-8.694-9.182-17.311c-.506-.936-.377-1.342.589-1.836,2.7-1.377,2.643-1.413,4.091,1.377Q318.95,238.995,324.4,249.366Z" transform="translate(-106.375 -73.418)"/>
      <path id="Path_82" data-name="Path 82" class="cls-2" d="M252.179,325.47v4.885c-2.278-.365-4.12-1.766-6.169-2.661-5.456-2.354-10.789-5-16.2-7.469-1.218-.589-1.277-1.136-.683-2.249,1.26-2.354,1.177-2.354,3.673-1.177,5.963,2.79,11.949,5.527,17.923,8.294a2.755,2.755,0,0,0,1.46.377Z" transform="translate(-73.538 -110.32)"/>
      <path id="Path_83" data-name="Path 83" class="cls-2" d="M500.58,507.465l2.666-3.855c2.89,2.254,4.991,5.3,7.6,7.817,2.843,2.778,5.362,5.886,8.164,8.712,1.13,1.136.854,1.736-.171,2.584-1.984,1.642-2.213,1.766-3.532,0-1.66-2.249-3.826-4-5.621-6.116-2.619-3.078-5.539-5.886-8.347-8.829a2.3,2.3,0,0,0-.759-.312Z" transform="translate(-185.362 -187.489)"/>
      <path id="Path_84" data-name="Path 84" class="cls-2" d="M532.435,324.812l-.035-4.88c2.608-.294,4.709-1.884,7.063-2.872,4.12-1.766,8.205-3.773,12.261-5.757,1.03-.506,1.5-.359,2.007.671,1.289,2.6,1.354,2.613-1.177,3.8q-9.438,4.415-18.912,8.759A5.887,5.887,0,0,1,532.435,324.812Z" transform="translate(-198.453 -108.261)"/>
      <path id="Path_85" data-name="Path 85" class="cls-2" d="M486.1,525.346l3.19-3.5c4.073,6.233,8.111,12.49,12.261,18.671.824,1.236.336,1.766-.642,2.225s-1.848,2.066-3.084.112c-3.367-5.3-6.846-10.56-10.307-15.816C487.118,526.435,486.865,525.664,486.1,525.346Z" transform="translate(-179.406 -194.993)"/>
      <path id="Path_86" data-name="Path 86" class="cls-2" d="M303.342,524.29l3.167,3.337c-3.808,5.792-7.652,11.572-11.407,17.382-.477.736-.848,1.048-1.6.371a6.755,6.755,0,0,0-1.307-.854c-1.118-.589-1.177-1.254-.453-2.354,3.655-5.48,7.216-11.019,10.807-16.54C302.836,525.2,303.077,524.737,303.342,524.29Z" transform="translate(-99.255 -195.997)"/>
      <path id="Path_87" data-name="Path 87" class="cls-2" d="M465.39,543.527l3.85-2.867c2.814,6.092,5.615,12.19,8.458,18.247.459.971.418,1.636-.677,2.054a8.391,8.391,0,0,0-1.4.695c-.842.524-1.342.3-1.766-.589-1.766-3.849-3.467-7.7-5.3-11.5C467.586,547.535,466.956,545.275,465.39,543.527Z" transform="translate(-170.886 -202.731)"/>
      <path id="Path_88" data-name="Path 88" class="cls-2" d="M494.1,256.675l-4.9-.718c.924-2.354,2.8-4.061,4.256-6.045,2.525-3.437,5.168-6.787,7.752-10.177.771-1.007,1.448-1.636,2.749-.512,1.866,1.613,1.972,1.642.753,3.214-3.208,4.15-6.434,8.288-9.618,12.455A3.408,3.408,0,0,0,494.1,256.675Z" transform="translate(-180.681 -78.478)"/>
      <path id="Path_89" data-name="Path 89" class="cls-2" d="M324.229,541.43l3.867,2.784c-1.177.759-1.419,2.09-1.948,3.208q-3.249,6.828-6.328,13.721c-.388.871-.789.959-1.589.659-2.719-1.024-2.9-1.289-1.8-3.691C319.008,552.537,321.627,546.992,324.229,541.43Z" transform="translate(-109.346 -203.048)"/>
      <path id="Path_90" data-name="Path 90" class="cls-2" d="M296.332,258.377a22.762,22.762,0,0,1-4.832.795c-1.177-2.608-3.267-4.556-4.9-6.834-1.336-1.872-2.772-3.673-4.22-5.462-.7-.865-.718-1.489.312-2.06.447-.247.812-.642,1.242-.93.683-.465,1.218-.624,1.872.241,3.3,4.356,6.687,8.647,10.006,12.985A4.909,4.909,0,0,1,296.332,258.377Z" transform="translate(-95.394 -80.486)"/>
      <path id="Path_91" data-name="Path 91" class="cls-2" d="M440.09,557.816l4.12-1.766q1.577,6,3.167,12.014c.371,1.389.671,2.808,1.177,4.15.388,1.065.035,1.46-.936,1.731-2.943.842-2.9.848-3.691-2.125C442.68,567.128,441.367,562.5,440.09,557.816Z" transform="translate(-160.478 -209.062)"/>
      <path id="Path_92" data-name="Path 92" class="cls-2" d="M350.276,555.68a20.014,20.014,0,0,1,3.838,1.719c-.2,3.32-1.636,6.345-2.354,9.541-.371,1.683-1.012,3.314-1.377,5-.235,1.095-.671,1.354-1.66.936a7.424,7.424,0,0,0-1.336-.347c-1.177-.235-1.436-.83-1.1-2,1.3-4.544,2.513-9.106,3.749-13.668A9.726,9.726,0,0,0,350.276,555.68Z" transform="translate(-121.832 -208.91)"/>
      <path id="Path_93" data-name="Path 93" class="cls-2" d="M258.419,295.837c0,1.766,0,3.49-.029,5.233-1.672-.447-2.9-1.654-4.291-2.566-3.043-2-5.992-4.12-9.006-6.186-.954-.647-1.642-1.177-.718-2.431,1.648-2.225,1.613-2.278,3.22-1.177,3,2.06,5.992,4.12,8.982,6.222A3.779,3.779,0,0,0,258.419,295.837Z" transform="translate(-79.784 -98.793)"/>
      <path id="Path_94" data-name="Path 94" class="cls-2" d="M411.71,565.508l4.12-.518c.483,4.638.977,9.277,1.413,13.921.059.589.371,1.436-.518,1.831a4.055,4.055,0,0,1-3.214.212c-.848-.365-.589-1.583-.665-2.354C412.387,574.243,412.075,569.87,411.71,565.508Z" transform="translate(-148.803 -212.74)"/>
      <path id="Path_95" data-name="Path 95" class="cls-2" d="M384.193,565.24l4.544.589c-.235,4.656-.489,9.306-.695,13.962-.035.848-.394,1.13-1.177,1.071a10.4,10.4,0,0,1-1.213-.047c-1.4-.112-1.948-.536-1.9-2.254C383.9,574.11,384.487,569.684,384.193,565.24Z" transform="translate(-137.302 -212.843)"/>
      <path id="Path_96" data-name="Path 96" class="cls-2" d="M532.421,295.276l-.041-4.874c3.237-2.2,6.475-4.362,9.706-6.616,1.177-.812,1.825-.783,2.608.489,1.313,2.125,1.371,2.054-.753,3.532-3.179,2.184-6.328,4.421-9.518,6.592C533.828,294.787,533.281,295.417,532.421,295.276Z" transform="translate(-198.445 -96.831)"/>
      <path id="Path_97" data-name="Path 97" class="cls-2" d="M521.41,268.956l-3.85-2.655c3.114-3.084,6.2-6.2,9.347-9.247,1.53-1.483,2.278.106,3.237.912,1.177.989.459,1.666-.312,2.384-2.243,2.09-4.22,4.444-6.645,6.351C522.451,267.278,521.545,267.855,521.41,268.956Z" transform="translate(-192.348 -85.809)"/>
      <path id="Path_98" data-name="Path 98" class="cls-2" d="M270.856,269.955l-2.725,2.672a1.5,1.5,0,0,1-1.071-.477c-2.543-2.431-5.068-4.88-7.652-7.275-.777-.724-.836-1.266,0-1.942.536-.436.989-.971,1.489-1.454a.877.877,0,0,1,1.371,0Q266.571,265.705,270.856,269.955Z" transform="translate(-85.898 -87.744)"/>
      <path id="Path_99" data-name="Path 99" class="cls-2" d="M139.316,342.466c-.277,1.548-.636,3.485-.959,5.421-.13.753-.63.736-1.177.63l-14.992-2.943c-.589-.118-.924-.318-.742-1.036.383-1.519.589-3.073,1.036-4.574.748-2.678,2.354-4.12,5.091-4.191a17.5,17.5,0,0,1,9.518,2.237C138.633,338.9,139.345,340.311,139.316,342.466Z" transform="translate(-29.371 -118.434)"/>
      <path id="Path_100" data-name="Path 100" class="cls-2" d="M474.257,137.651a10.165,10.165,0,0,1-1.483,4.6,3.938,3.938,0,0,1-4.421,1.96,3.846,3.846,0,0,1-2.843-4.061,11.02,11.02,0,0,1,1.131-4.863,4.089,4.089,0,0,1,4.779-2.571C473.274,133.177,474.316,134.8,474.257,137.651Z" transform="translate(-170.935 -34.855)"/>
      <path id="Path_101" data-name="Path 101" class="cls-2" d="M650.718,318.234c-2.06,0-3.479-.589-4.12-2.237a3.808,3.808,0,0,1,1.048-4.444A9.559,9.559,0,0,1,654,309.14a3.814,3.814,0,0,1,3.738,2.837,3.626,3.626,0,0,1-1.43,4.12,10.177,10.177,0,0,1-5.592,2.137Z" transform="translate(-245.302 -107.487)"/>
      <path id="Path_102" data-name="Path 102" class="cls-7" d="M641.59,314l.371-.082c-.047.112-.088.218-.135.324C641.743,314.167,641.667,314.085,641.59,314Z" transform="translate(-243.372 -109.453)"/>
      <path id="Path_103" data-name="Path 103" class="cls-2" d="M260.583,174.111c-.029,3.255-2.649,4.95-5.3,3.914-2.243-.895-4.615-4.485-4.556-6.91a3.751,3.751,0,0,1,5.651-3.332A8.829,8.829,0,0,1,260.583,174.111Z" transform="translate(-82.577 -49.114)"/>
      <path id="Path_104" data-name="Path 104" class="cls-2" d="M224.26,202.723c-3.108.041-6.551-3.767-6.216-6.875a4.238,4.238,0,0,1,6.263-3.461,7.5,7.5,0,0,1,4.061,5.144,4.22,4.22,0,0,1-4.108,5.192Z" transform="translate(-69.122 -59.243)"/>
      <path id="Path_105" data-name="Path 105" class="cls-2" d="M145,302.838a3.744,3.744,0,0,1,4.791-3.673c.742.241.877.589.589,1.254-.712,1.7-1.383,3.408-2.066,5.115-.224.589-.465.854-1.13.465A4.12,4.12,0,0,1,145,302.838Z" transform="translate(-39.081 -103.322)"/>
      <path id="Path_106" data-name="Path 106" class="cls-2" d="M287.3,149.249a2.943,2.943,0,0,1,1.766.53,2.828,2.828,0,0,1,1.583,1.96c.047.83-1.083.842-1.707,1.177-1.236.63-2.543,1.118-3.791,1.731-.9.441-1.177.135-1.413-.753a3.614,3.614,0,0,1,3.561-4.644Z" transform="translate(-96.094 -41.71)"/>
      <path id="Path_107" data-name="Path 107" class="cls-2" d="M179.34,238.1a3.7,3.7,0,0,1,5.751-2.843c.677.347.512.748.159,1.236-1.089,1.483-2.172,2.972-3.226,4.479-.453.653-.842.589-1.366.077a4.414,4.414,0,0,1-1.318-2.949Z" transform="translate(-53.209 -76.839)"/>
      <path id="Path_108" data-name="Path 108" class="cls-2" d="M512.284,149.519c0,2.113-.306,2.354-2.178,1.489-1.313-.589-2.608-1.224-3.944-1.766-1.13-.43-1.077-.989-.4-1.766,1.1-1.277,2.4-1.972,4.12-1.377A3.338,3.338,0,0,1,512.284,149.519Z" transform="translate(-187.295 -40.326)"/>
      <path id="Path_109" data-name="Path 109" class="cls-3" d="M421.659,326.169v35.158c0,7.358-2.007,14.327-4.232,21.19-5.3,16.375-13.856,30.714-27.194,41.856-12.014,10.042-25.769,15.445-41.6,14.715-13.008-.589-24.457-5.409-34.581-13.426-13.98-11.084-22.885-25.64-28.554-42.38a108.2,108.2,0,0,1-4.385-18.218,13.618,13.618,0,0,1-.112-2.078q0-36.729-.041-73.459a10.542,10.542,0,0,1,1.925-6.539,7.217,7.217,0,0,1,4.744-2.943q14.068-2.384,28.253-3.626a415.786,415.786,0,0,1,47.984-1.33,350.28,350.28,0,0,1,49.661,4.709c6.133,1.054,8.076,3.485,8.064,9.777q-.035,18.247,0,36.553ZM350.973,432.155a30.8,30.8,0,0,0,8.088-.812c14.757-3.1,26.282-11.349,35.729-22.785A95.026,95.026,0,0,0,408.48,386.1a127.95,127.95,0,0,0,7.193-21.52c.265-1.1.029-1.707-1.342-1.707q-31.673.071-63.341.053-31.485,0-62.982-.071c-1.6,0-1.318.742-1.089,1.678a141.506,141.506,0,0,0,5.192,16.693,95.867,95.867,0,0,0,18.353,30.414,63.533,63.533,0,0,0,22.367,16.346,49.8,49.8,0,0,0,18.141,4.173Zm.859-87.444c13.055,0,26.117-.029,39.172.035,1.625,0,2.166-.336,2.16-2.066q-.094-24.722,0-49.444c0-1.525-.288-2.078-1.972-2.072q-39.355.082-78.692,0c-1.683,0-1.984.547-1.984,2.072q.077,24.722,0,49.444c0,1.731.536,2.078,2.16,2.066C325.715,344.681,338.777,344.71,351.832,344.71Zm.553,8.023h46.971c3.861,0,3.379.553,3.408-3.42,0-2.4,0-2.4-2.354-2.4H305.95c-3.779,0-3.691,0-3.808,3.861-.047,1.648.494,2.007,2.048,2C320.259,352.715,336.311,352.733,352.386,352.733Z" transform="translate(-95.011 -93.402)"/>
      <path id="Path_110" data-name="Path 110" class="cls-4" d="M399.928,424.4q31.673,0,63.341-.053c1.371,0,1.607.589,1.342,1.707a127.947,127.947,0,0,1-7.193,21.52,95.026,95.026,0,0,1-13.691,22.479c-9.447,11.437-20.972,19.689-35.729,22.785a30.8,30.8,0,0,1-8.088.812Zm12.949,12.743a6.747,6.747,0,0,0,0,1.177q2.39,12.708,4.744,25.393c.1.553,0,1.266.783,1.342s.836-.689,1.024-1.177a14.916,14.916,0,0,1,3.885-6.092c.8-.712,1.26-.912,2.025.118,1.619,2.184,3.532,4.167,5.068,6.392.948,1.36,1.577,1.5,2.666.277a10.082,10.082,0,0,1,2.042-1.607c.93-.589,1.095-1.107.306-2.025-1.766-2.066-3.414-4.238-5.133-6.351-1.213-1.5-1.207-1.713.589-2.5a13.592,13.592,0,0,1,5.192-1.277c.642,0,1.554.271,1.713-.706.135-.853-.777-.906-1.295-1.177q-11-5.615-22.008-11.184a3.007,3.007,0,0,0-1.625-.6Z" transform="translate(-143.948 -154.883)"/>
      <path id="Path_111" data-name="Path 111" class="cls-2" d="M355.057,424.4v69.233a49.8,49.8,0,0,1-18.129-4.156,63.217,63.217,0,0,1-22.367-16.346,95.867,95.867,0,0,1-18.353-30.414,141.509,141.509,0,0,1-5.192-16.693c-.23-.936-.506-1.683,1.089-1.678Q323.573,424.421,355.057,424.4ZM322,437.223a11.232,11.232,0,0,1-1.236,0c-1.831-.294-2.914.271-3.143,2.3-.306,2.749-2.037,4.526-4.4,5.751-1.218.63-1.707,1.472-.995,2.778a7.917,7.917,0,0,1,0,8.011,1.721,1.721,0,0,0,.9,2.672,8.111,8.111,0,0,1,4.709,6.539c0,.053.059.106.065.159.153,1.095.706,1.625,1.872,1.436a8.923,8.923,0,0,1,8.305,2.743c.748.777,1.477.653,2.213-.088a8.688,8.688,0,0,1,8.005-2.655,1.615,1.615,0,0,0,2.119-1.566,8.37,8.37,0,0,1,4.833-6.645,1.651,1.651,0,0,0,.783-2.56,8.127,8.127,0,0,1,0-8.017,1.8,1.8,0,0,0-.942-2.808,8.11,8.11,0,0,1-4.626-6.386q0-.085,0-.171a1.535,1.535,0,0,0-2.007-1.5,8.539,8.539,0,0,1-7.887-2.5c-.954-1-1.7-.877-2.767-.041C325.974,436.075,324.332,437.988,322,437.223Z" transform="translate(-99.078 -154.883)"/>
      <path id="Path_112" data-name="Path 112" class="cls-1" d="M372.482,356.076c-13.055,0-26.117-.029-39.172.035-1.625,0-2.166-.336-2.16-2.066q.1-24.722,0-49.444c0-1.525.3-2.078,1.984-2.072q39.343.082,78.692,0c1.683,0,1.978.547,1.972,2.072q-.071,24.722,0,49.444c0,1.731-.536,2.078-2.16,2.066C398.6,356.047,385.538,356.076,372.482,356.076Zm-.182-4.468h35.5c1.33,0,1.8-.3,1.766-1.731q-.082-20.525,0-41.068c0-1.46-.424-1.836-1.854-1.836q-35.246.065-70.481,0c-1.413,0-1.884.336-1.878,1.819q.088,20.448,0,40.9c0,1.548.424,1.937,1.948,1.925C348.979,351.585,360.639,351.609,372.3,351.609Z" transform="translate(-115.661 -104.768)"/>
      <path id="Path_113" data-name="Path 113" class="cls-1" d="M367.192,403.057q-24.095,0-48.2.035c-1.554,0-2.1-.353-2.048-2,.118-3.855.029-3.861,3.808-3.861h94.472c2.354,0,2.354,0,2.354,2.4,0,3.973.453,3.414-3.408,3.42Q390.678,403.081,367.192,403.057Z" transform="translate(-109.818 -143.726)"/>
      <path id="Path_114" data-name="Path 114" class="cls-1" d="M421.88,446.09a3.008,3.008,0,0,1,1.63.589q11.007,5.574,22.008,11.184c.518.265,1.43.318,1.295,1.177-.159.977-1.071.689-1.713.706a13.59,13.59,0,0,0-5.192,1.277c-1.766.789-1.766,1.007-.589,2.5,1.719,2.113,3.361,4.285,5.133,6.351.789.918.624,1.43-.306,2.025a10.086,10.086,0,0,0-2.042,1.607c-1.089,1.224-1.719,1.083-2.666-.277-1.554-2.225-3.449-4.209-5.068-6.392-.765-1.03-1.224-.83-2.025-.118a14.916,14.916,0,0,0-3.885,6.092c-.188.494-.224,1.266-1.024,1.177s-.683-.789-.783-1.342q-2.39-12.69-4.78-25.375a6.746,6.746,0,0,1,.006-1.183Z" transform="translate(-152.974 -163.826)"/>
      <path id="Path_115" data-name="Path 115" class="cls-1" d="M336.72,443.972c2.354.765,3.973-1.177,5.739-2.549,1.065-.836,1.813-.959,2.766.041a8.524,8.524,0,0,0,7.887,2.5,1.544,1.544,0,0,1,2.007,1.5q0,.085,0,.171a8.1,8.1,0,0,0,4.626,6.386,1.8,1.8,0,0,1,.942,2.808,8.247,8.247,0,0,0,0,8.017,1.637,1.637,0,0,1-.783,2.56,8.37,8.37,0,0,0-4.832,6.646,1.637,1.637,0,0,1-2.119,1.566,8.688,8.688,0,0,0-8.005,2.655c-.736.742-1.466.865-2.213.088a8.923,8.923,0,0,0-8.241-2.743c-1.177.188-1.719-.341-1.872-1.436,0-.053-.059-.106-.065-.159a8.111,8.111,0,0,0-4.709-6.539,1.726,1.726,0,0,1-.9-2.672,7.917,7.917,0,0,0,0-8.011c-.712-1.307-.224-2.148.995-2.778,2.354-1.224,4.091-3,4.4-5.751.23-2.025,1.313-2.59,3.143-2.3a11.239,11.239,0,0,0,1.236.006Zm7.063,27.624a12.867,12.867,0,1,0,.094-25.734,12.943,12.943,0,0,0-12.914,12.767c-.13,7.163,6.086,13.2,12.8,12.967Z" transform="translate(-113.797 -161.631)"/>
      <path id="Path_116" data-name="Path 116" class="cls-2" d="M375.254,354.735q-17.491,0-34.975.035c-1.525,0-1.954-.377-1.948-1.925q.088-20.448,0-40.9c0-1.483.465-1.819,1.878-1.819q35.24.065,70.481,0c1.43,0,1.86.377,1.854,1.836q-.082,20.537,0,41.068c0,1.43-.459,1.766-1.766,1.731C398.922,354.717,387.085,354.735,375.254,354.735ZM363.6,333.922h13.927c1.071,0,1.707-.071,1.683-1.448,0-1.242-.406-1.536-1.6-1.53q-14.015.071-28.024,0c-1.177,0-1.572.294-1.6,1.536,0,1.371.589,1.448,1.683,1.442C354.317,333.9,358.961,333.922,363.6,333.922Zm-.206,7.858c-4.709,0-9.377.041-14.068,0-1.177,0-1.266.53-1.277,1.46s.13,1.442,1.3,1.436q14.068-.077,28.13,0c1.054,0,1.4-.288,1.389-1.36s-.177-1.554-1.413-1.536C372.77,341.839,368.078,341.78,363.393,341.78Zm-7.458-21.814c-2.837,0-5.68.071-8.511-.035-1.407-.053-1.483.647-1.413,1.689.059.895-.247,1.807,1.307,1.766q8.688-.124,17.382,0c1.507,0,1.33-.824,1.366-1.766.035-1.036,0-1.766-1.442-1.707C361.733,320.06,358.831,319.966,355.935,319.966Zm4.532,16.24c-2.843,0-5.692.059-8.529-.029-1.242-.035-1.407.494-1.4,1.536s.171,1.442,1.324,1.43q8.611-.088,17.229,0c1.177,0,1.295-.465,1.307-1.442s-.177-1.56-1.407-1.524C366.154,336.264,363.3,336.206,360.468,336.206Zm-7.681-18.7c2.143,0,4.291-.065,6.428,0,1.354.053,1.13-.8,1.13-1.583s.212-1.613-1.13-1.6c-4.232.065-8.464.082-12.7,0-1.483-.029-1.177.865-1.177,1.689s-.065,1.56,1.207,1.5C348.607,317.429,350.7,317.505,352.786,317.505ZM349.7,349.491c1.036,0,2.084-.077,3.114,0,1.26.124,1.207-.589,1.23-1.489s-.118-1.383-1.177-1.336c-1.96.077-3.926.053-5.886,0-1.012,0-1.713-.041-1.7,1.383s.589,1.5,1.666,1.43C347.848,349.42,348.778,349.491,349.7,349.491Zm2.56-23.309c-1.042,0-2.084.059-3.12,0s-1.112.512-1.065,1.283-.218,1.548,1.042,1.5c1.907-.071,3.82-.071,5.721,0,1.13.047,1.63-.171,1.642-1.477s-.689-1.33-1.619-1.295S353.116,326.181,352.262,326.181Z" transform="translate(-118.615 -107.894)"/>
      <path id="Path_117" data-name="Path 117" class="cls-3" d="M346.8,475.172c-6.71.235-12.949-5.8-12.791-12.95a12.914,12.914,0,0,1,12.885-12.773,12.864,12.864,0,1,1-.094,25.722Zm-9.224-12.8a9.3,9.3,0,0,0,9.294,9.418,9.465,9.465,0,1,0-.041-18.924,9.241,9.241,0,0,0-9.253,9.506Z" transform="translate(-116.836 -165.208)"/>
      <path id="Path_118" data-name="Path 118" class="cls-8" d="M370.354,348.468H356.433c-1.071,0-1.707-.071-1.683-1.442,0-1.242.4-1.542,1.6-1.536q14.015.071,28.024,0c1.177,0,1.572.288,1.6,1.53,0,1.377-.589,1.454-1.683,1.448C379.618,348.445,375,348.468,370.354,348.468Z" transform="translate(-125.37 -122.441)"/>
      <path id="Path_119" data-name="Path 119" class="cls-8" d="M370.185,363.9c4.709,0,9.377.041,14.062,0,1.236,0,1.4.494,1.413,1.536s-.336,1.36-1.389,1.36q-14.062-.065-28.13,0c-1.177,0-1.313-.465-1.3-1.436s.082-1.477,1.277-1.46C360.82,363.959,365.493,363.9,370.185,363.9Z" transform="translate(-125.407 -130.014)"/>
      <path id="Path_120" data-name="Path 120" class="cls-9" d="M361.291,326.813c2.9,0,5.8.077,8.688-.035,1.419-.053,1.477.671,1.442,1.707-.035.942.141,1.766-1.366,1.766q-8.688-.124-17.382,0c-1.554,0-1.248-.889-1.307-1.766-.071-1.042,0-1.766,1.413-1.689C355.611,326.908,358.454,326.813,361.291,326.813Z" transform="translate(-123.971 -114.742)"/>
      <path id="Path_121" data-name="Path 121" class="cls-8" d="M369,354.408c2.837,0,5.686.059,8.523-.029,1.23-.035,1.419.471,1.407,1.525s-.147,1.454-1.307,1.442q-8.617-.088-17.229,0c-1.177,0-1.324-.441-1.324-1.43s.159-1.572,1.4-1.536C363.308,354.467,366.157,354.408,369,354.408Z" transform="translate(-127.147 -126.097)"/>
      <path id="Path_122" data-name="Path 122" class="cls-5" d="M357.659,320.434c-2.09,0-4.179-.077-6.263,0-1.271.065-1.254-.618-1.207-1.5s-.283-1.719,1.177-1.689c4.232.088,8.464.071,12.7,0,1.342,0,1.13.8,1.13,1.6s.224,1.636-1.13,1.583C361.95,320.369,359.8,320.434,357.659,320.434Z" transform="translate(-123.488 -110.823)"/>
      <path id="Path_123" data-name="Path 123" class="cls-5" d="M354.548,375.031c-.924,0-1.854-.053-2.772,0-1.071.071-1.654-.065-1.666-1.43s.689-1.4,1.7-1.383c1.96.047,3.926.071,5.886,0,1.077-.047,1.218.441,1.177,1.336s.029,1.613-1.23,1.489A30.519,30.519,0,0,0,354.548,375.031Z" transform="translate(-123.461 -133.435)"/>
      <path id="Path_124" data-name="Path 124" class="cls-5" d="M359.067,337.387h2.6c.865,0,1.63-.071,1.619,1.295s-.512,1.525-1.642,1.477c-1.9-.071-3.814-.071-5.721,0-1.26.047-.995-.783-1.042-1.5s0-1.36,1.065-1.283S358.013,337.387,359.067,337.387Z" transform="translate(-125.419 -119.1)"/>
      <path id="Path_125" data-name="Path 125" class="cls-1" d="M340.068,464.766a9.241,9.241,0,0,1,9.253-9.488,9.465,9.465,0,1,1,.041,18.924,9.3,9.3,0,0,1-9.294-9.435Zm9.306-8.005c-.589,1.736-1.083,3.084-1.46,4.473a1.136,1.136,0,0,1-1.342.971c-1.471-.047-2.943,0-4.885,0a35.667,35.667,0,0,0,3.432,2.484c1.236.689,1.289,1.5.836,2.69a7.762,7.762,0,0,0-.9,3.532c1.283-.912,2.46-1.648,3.532-2.531.63-.536,1.03-.412,1.619,0a20.613,20.613,0,0,0,3.808,2.549c-.453-1.389-.759-2.555-1.177-3.667s-.394-1.825.759-2.525a11.4,11.4,0,0,0,3.226-2.543h-4.574a1.177,1.177,0,0,1-1.354-.989C350.48,459.822,349.956,458.485,349.374,456.761Z" transform="translate(-119.329 -167.605)"/>
      <path id="Path_126" data-name="Path 126" class="cls-5" d="M350.478,457.8c.589,1.725,1.107,3.067,1.477,4.45a1.177,1.177,0,0,0,1.354.989c1.43-.029,2.867,0,4.574,0a11.4,11.4,0,0,1-3.226,2.543c-1.177.7-1.177,1.43-.759,2.525s.747,2.278,1.177,3.667a21.229,21.229,0,0,1-3.808-2.549c-.589-.4-.989-.524-1.619,0-1.054.883-2.231,1.619-3.532,2.531a7.607,7.607,0,0,1,.9-3.532c.453-1.177.4-2-.836-2.69a35.673,35.673,0,0,1-3.432-2.484h4.885a1.136,1.136,0,0,0,1.342-.971C349.372,460.861,349.9,459.536,350.478,457.8Z" transform="translate(-120.433 -168.644)"/>
    </g>
    <g id="Group_70" data-name="Group 70" transform="translate(0 -21)">
      <g id="Group_68" data-name="Group 68" transform="translate(-54 -320)">
        <text id="By_Google_Developers" data-name="By Google Developers" class="cls-10" transform="translate(1053.5 1029)"><tspan x="-167.331" y="0">By </tspan><tspan class="cls-11" y="0">Google</tspan><tspan y="0" xml:space="preserve"> Developers</tspan></text>
      </g>
      <g id="Group_69" data-name="Group 69" transform="translate(-65 -320.315)">
        <path id="Path_160" data-name="Path 160" class="cls-2" d="M414.938,658.818a76.536,76.536,0,0,0-4.167-7.187c-1.942-3.3-3.956-6.545-5.886-9.83-.983-1.636-.695-2.16,1.218-2.184h7.481a3.832,3.832,0,0,1,3.561,2.066c2.419,4.22,5.2,8.241,7.346,12.6a34.483,34.483,0,0,0,2.019,3.014,3.267,3.267,0,0,1,.035,3.626c-1.813,3.031-3.667,6.039-5.5,9.053C419.894,665.74,417.116,662.45,414.938,658.818Z" transform="translate(442.232 359.7)"/>
        <path id="Path_161" data-name="Path 161" class="cls-2" d="M370.684,666.052c2.837,5.386,6.263,10.424,9.288,15.7.141.247.306.489.447.742.995,1.766.724,2.231-1.313,2.249-2.319,0-4.638-.047-6.957,0a4.156,4.156,0,0,1-4.014-2.213c-3.055-5.121-6.139-10.23-9.206-15.351a3.426,3.426,0,0,1-.147-3.643c1.807-3.1,3.532-6.251,5.609-9.182a5.3,5.3,0,0,0,.842,2.943c1.766,2.843,3.5,5.709,5.25,8.564a.7.7,0,0,0,.194.177Z" transform="translate(461.158 353.638)"/>
        <path id="Path_162" data-name="Path 162" class="cls-1" d="M374.742,659.858c-1.766-2.855-3.485-5.721-5.25-8.564a5.3,5.3,0,0,1-.842-2.943,68.122,68.122,0,0,1,4.12-7.063,3.532,3.532,0,0,1,3.255-1.654H383.5c1.9,0,2.184.547,1.177,2.2-2.861,4.768-5.715,9.541-8.611,14.292A8.742,8.742,0,0,0,374.742,659.858Z" transform="translate(456.912 359.696)"/>
        <path id="Path_163" data-name="Path 163" class="cls-1" d="M414.9,672.24c2.178,3.632,4.956,6.934,6.075,11.148-1.319,2.178-2.649,4.344-3.944,6.534a4.121,4.121,0,0,1-4.014,2.213c-2.319-.082-4.638,0-6.957,0-1.978,0-2.243-.453-1.26-2.113,2.884-4.891,5.757-9.789,8.723-14.633C414.137,674.365,414.261,673.2,414.9,672.24Z" transform="translate(442.268 346.279)"/>
      </g>
    </g>
  </g>
</svg>
